<?xml version="1.0" encoding="UTF-8"?>
<svg width="1159px" height="102px" viewBox="0 0 1159 102" version="1.1" xmlns="http://www.w3.org/2000/svg" xmlns:xlink="http://www.w3.org/1999/xlink">
    <!-- Generator: Sketch 46.2 (44496) - http://www.bohemiancoding.com/sketch -->
    <title>Desktop HD Copy 45</title>
    <desc>Created with Sketch.</desc>
    <defs></defs>
    <g id="Page-1" stroke="none" stroke-width="1" fill="none" fill-rule="evenodd">
        <g id="Desktop-HD-Copy-45">
            <g id="Group" transform="translate(388.000000, 16.000000)">
                <path d="M14,16.3047091 C14,14.1440335 14.7188564,12.315797 16.1565907,10.8199446 C17.594325,9.32409224 19.2857518,8.57617729 21.2309217,8.57617729 C22.8800875,8.57617729 24.2438004,9.27977136 25.3221011,10.6869806 L25.3221011,3.32409972 C25.3221011,2.48199025 25.1820298,1.95567972 24.9018831,1.74515235 C24.6217363,1.53462499 23.9213799,1.42936288 22.8007929,1.42936288 L22.8007929,0.36565097 L27.4786918,0 L27.4786918,20.6592798 C27.4786918,21.5013893 27.6187631,22.0304698 27.8989098,22.2465374 C28.1790566,22.462605 28.879413,22.5706371 30,22.5706371 L30,23.6177285 L25.2269574,24 L25.2269574,21.7396122 C24.1063703,23.2354645 22.6580862,23.9889196 20.8820614,24 C19.0214641,24 17.409323,23.252085 16.0455897,21.7562327 C14.6818564,20.2603803 14,18.443224 14,16.3047091 Z M16.6957384,16.3379501 C16.6957384,18.4432238 17.0075952,20.0166153 17.6313181,21.0581717 C18.4981874,22.5097025 19.6346147,23.2354571 21.0406343,23.2354571 C22.6475138,23.2354571 23.9266553,22.4432212 24.8780971,20.8587258 C25.1212434,20.4709122 25.237529,20.0498638 25.2269574,19.5955679 L25.2269574,12.6149584 C25.2269574,12.1606625 25.1106718,11.7451542 24.8780971,11.3684211 C23.9900848,10.0055334 22.8219432,9.32409972 21.3736373,9.32409972 C19.8619019,9.32409972 18.6356175,10.0498542 17.6947473,11.501385 C17.028738,12.587263 16.6957384,14.1994353 16.6957384,16.3379501 Z" id="d" fill="#000000"></path>
                <path d="M7,63.3047091 C7,61.1440335 7.7473626,59.315797 9.24211022,57.8199446 C10.7368578,56.3240922 12.4953581,55.5761773 14.5176637,55.5761773 C16.2322271,55.5761773 17.6500179,56.2797714 18.7710787,57.6869806 L18.7710787,50.3240997 C18.7710787,49.4819902 18.6254529,48.9556797 18.3341969,48.7451524 C18.0429409,48.534625 17.3148119,48.4293629 16.149788,48.4293629 L16.149788,47.365651 L21.0131889,47 L21.0131889,67.6592798 C21.0131889,68.5013893 21.1588147,69.0304698 21.4500707,69.2465374 C21.7413266,69.462605 22.4694556,69.5706371 23.6344795,69.5706371 L23.6344795,70.6177285 L18.672162,71 L18.672162,68.7396122 C17.5071382,70.2354645 16.0014223,70.9889196 14.1549694,71 C12.2205901,71 10.5445196,70.252085 9.12670749,68.7562327 C7.70889541,67.2603803 7,65.443224 7,63.3047091 Z M9.80263778,63.3379501 C9.80263778,65.4432238 10.1268613,67.0166153 10.7753179,68.0581717 C11.6765628,69.5097025 12.8580552,70.2354571 14.3198304,70.2354571 C15.9904307,70.2354571 17.3202965,69.4432212 18.3094677,67.8587258 C18.5622559,67.4709122 18.6831528,67.0498638 18.672162,66.5955679 L18.672162,59.6149584 C18.672162,59.1606625 18.5512651,58.7451542 18.3094677,58.3684211 C17.3862413,57.0055334 16.171777,56.3240997 14.6660386,56.3240997 C13.0943555,56.3240997 11.8194428,57.0498542 10.8412624,58.501385 C10.1488425,59.587263 9.80263778,61.1994353 9.80263778,63.3379501 Z M24.9863401,70.6177285 L24.9863401,69.5706371 C26.7448667,69.5706371 28.1846388,68.8892035 29.3056995,67.5263158 L32.4710316,63.4709141 L29.1243523,59.0831025 C28.3330154,58.0637068 27.7642504,57.4626048 27.4180405,57.2797784 C27.0718306,57.096952 26.316225,57.0055402 25.1512011,57.0055402 L25.1512011,55.9418283 C26.0744276,56.0083106 27.1405184,56.0415512 28.3495054,56.0415512 C29.0199437,56.0415512 30.2399032,56.0083106 32.0094206,55.9418283 L32.0094206,57.0055402 C31.2180837,57.0498617 30.8224211,57.3324074 30.8224211,57.8531856 C30.8224211,58.0304718 30.9213367,58.2354559 31.119171,58.468144 L33.7569477,61.9085873 L35.850683,59.2493075 C36.1913975,58.8393331 36.3617522,58.4404452 36.3617522,58.0526316 C36.3617522,57.4210495 36.0320334,57.0720225 35.372586,57.0055402 L35.372586,55.9418283 C36.2518493,56.0083106 37.334426,56.0415512 38.6203486,56.0415512 C39.5875382,56.0415512 40.5107508,56.0083106 41.3900141,55.9418283 L41.3900141,57.0055402 C39.6754507,57.0498617 38.3345943,57.6371135 37.3674046,58.767313 C36.9387638,59.2437697 35.9056449,60.5290754 34.268017,62.6232687 L38.7852096,68.5069252 C39.1479057,68.9833819 39.5325776,69.2797778 39.9392369,69.3961219 C40.3458962,69.512466 41.0328104,69.5706371 42,69.5706371 L42,70.6177285 C40.9888472,70.5512462 39.9062705,70.5180055 38.7522374,70.5180055 C38.3455781,70.5180055 37.1311139,70.5512462 35.1088083,70.6177285 L35.1088083,69.5706371 C35.5154676,69.5484763 35.8204575,69.4459843 36.0237871,69.2631579 C36.2271167,69.0803315 36.32878,68.8947378 36.32878,68.7063712 C36.32878,68.6177281 36.0924816,68.2465407 35.6198775,67.5927978 L33.0480452,64.1855956 C31.3334818,66.2243869 30.3663066,67.4819921 30.1464908,67.9584488 C30.0585645,68.1578957 30.014602,68.3407194 30.014602,68.5069252 C30.014602,69.1163465 30.3388255,69.4709136 30.9872821,69.5706371 L30.9872821,70.6177285 C29.3716358,70.5512462 28.3055451,70.5180055 27.7889779,70.5180055 C26.7998066,70.5180055 25.8656034,70.5512462 24.9863401,70.6177285 Z" id="dx" fill="#000000"></path>
                <path d="M0.416666667,34.5 L44.5833333,34.5" id="Line" stroke="#000000" stroke-linecap="square"></path>
                <path d="M63,34.5 C63,30.7831845 63.7005962,27.4262845 65.1018095,24.4291992 C65.699226,23.172357 66.4161151,22.0175834 67.2524982,20.9648438 C68.0888814,19.9121041 68.7840465,19.1547875 69.3380146,18.6928711 C69.8919827,18.2309547 70.2449962,18 70.3970659,18 C70.6143083,18 70.7283588,18.1074208 70.7392209,18.3222656 C70.7392209,18.429688 70.5925845,18.6176744 70.2993073,18.8862305 C66.7148081,22.4956235 64.9280164,27.7001613 64.9388785,34.5 C64.9388785,41.3213232 66.6822224,46.4667795 70.1689625,49.9365234 C70.5491367,50.3125019 70.7392209,50.5595697 70.7392209,50.6777344 C70.7392209,50.8925792 70.6251704,51 70.3970659,51 C70.2449962,51 69.9028446,50.7797874 69.3706008,50.3393555 C68.838357,49.8989236 68.1594847,49.1738332 67.3339637,48.1640625 C66.5084427,47.1542918 65.7969846,46.0317445 65.199568,44.7963867 C63.733182,41.7993014 63,38.3672068 63,34.5 Z M76.5402149,42.75 L76.5402149,41.7348633 C78.2781539,41.7348633 79.7010701,41.0742254 80.8090062,39.7529297 L83.9372808,35.8212891 L80.6297821,31.5673828 C79.8477096,30.5790966 79.2856034,29.9963388 78.9434466,29.8190918 C78.6012899,29.6418448 77.8545304,29.5532227 76.7031459,29.5532227 L76.7031459,28.5219727 C77.6155638,28.5864261 78.6691735,28.6186523 79.8640066,28.6186523 C80.5265959,28.6186523 81.7322729,28.5864261 83.4810741,28.5219727 L83.4810741,29.5532227 C82.6990015,29.5961916 82.3079711,29.8701147 82.3079711,30.375 C82.3079711,30.5468759 82.4057287,30.7456043 82.6012468,30.9711914 L85.2081423,34.3066406 L87.2773656,31.7285156 C87.6140913,31.3310527 87.7824516,30.9443378 87.7824516,30.5683594 C87.7824516,29.9560516 87.4565929,29.6176761 86.8048658,29.5532227 L86.8048658,28.5219727 C87.6738353,28.5864261 88.7437379,28.6186523 90.0146058,28.6186523 C90.9704723,28.6186523 91.8828766,28.5864261 92.7518461,28.5219727 L92.7518461,29.5532227 C91.0573555,29.5961916 89.7321969,30.1655219 88.7763305,31.2612305 C88.3527078,31.7231468 87.331684,32.9692281 85.7132283,34.9995117 L90.1775368,40.7036133 C90.5359867,41.1655297 90.9161552,41.4528803 91.3180536,41.5656738 C91.719952,41.6784674 92.3988242,41.7348633 93.3546906,41.7348633 L93.3546906,42.75 C92.3553757,42.6855466 91.2854731,42.6533203 90.1449506,42.6533203 C89.7430522,42.6533203 88.5428061,42.6855466 86.5441762,42.75 L86.5441762,41.7348633 C86.9460746,41.7133788 87.2474939,41.6140146 87.4484431,41.4367676 C87.6493923,41.2595206 87.7498654,41.0795908 87.7498654,40.8969727 C87.7498654,40.8110347 87.5163333,40.451175 87.0492622,39.8173828 L84.5075392,36.5141602 C82.8130486,38.4907325 81.8571965,39.7099586 81.6399541,40.171875 C81.5530572,40.3652353 81.5096094,40.5424797 81.5096094,40.7036133 C81.5096094,41.2944365 81.8300371,41.6381831 82.4709021,41.7348633 L82.4709021,42.75 C80.8741706,42.6855466 79.8205609,42.6533203 79.3100413,42.6533203 C78.3324506,42.6533203 77.4091844,42.6855466 76.5402149,42.75 Z M98.047754,31.0163086 C98.047754,30.6886702 98.1373652,30.4617438 98.3165901,30.3355225 C98.4958151,30.2093011 98.6804683,30.1461914 98.8705554,30.1461914 C99.1258152,30.1461914 99.3281191,30.2254142 99.4774733,30.3838623 C99.6268274,30.5423104 99.7015034,30.7316395 99.7015034,30.9518555 C99.7015034,31.1720714 99.6268274,31.3614006 99.4774733,31.5198486 C99.3281191,31.6782967 99.1258152,31.7575195 98.8705554,31.7575195 C98.7456411,31.7575195 98.6505989,31.7467775 98.5854262,31.725293 C98.7320648,32.2301783 99.0294109,32.6652325 99.4774733,33.0304687 C99.9255357,33.395705 100.445552,33.5783203 101.037537,33.5783203 C101.781592,33.5783203 102.376284,33.2211461 102.821631,32.5067871 C103.087753,32.0448707 103.220812,31.2902396 103.220812,30.2428711 C103.220812,29.3190383 103.120339,28.6261742 102.91939,28.1642578 C102.60982,27.460641 102.137324,27.1088379 101.501891,27.1088379 C100.600335,27.1088379 99.8834456,27.4928673 99.3512018,28.2609375 C99.2860291,28.3576177 99.2154264,28.4086426 99.1393915,28.4140137 C99.0307703,28.4140137 98.9642409,28.3831302 98.9398011,28.3213623 C98.9153613,28.2595944 98.9031416,28.1454598 98.9031416,27.9789551 L98.9031416,23.0966309 C98.9031416,22.8334459 98.9574514,22.7018555 99.0660726,22.7018555 C99.1095211,22.7018555 99.1774083,22.7179686 99.2697363,22.7501953 C99.970343,23.0563492 100.708956,23.2121093 101.485597,23.2174805 C102.283963,23.2174805 103.041585,23.0563493 103.758484,22.734082 C103.812795,22.7018553 103.856243,22.6857422 103.888829,22.6857422 C103.99745,22.6857422 104.054476,22.7475091 104.059907,22.8710449 C104.059907,22.9140139 104.015101,22.9986078 103.925489,23.1248291 C103.835876,23.2510504 103.696029,23.3960685 103.505941,23.5598877 C103.315854,23.7237069 103.098615,23.8834953 102.854218,24.0392578 C102.60982,24.1950203 102.309758,24.325268 101.954024,24.4300049 C101.59829,24.5347417 101.22491,24.5871094 100.833874,24.5871094 C100.366802,24.5871094 99.8943074,24.5146003 99.4163742,24.3695801 L99.4163742,27.5841797 C99.9920665,27.0255831 100.698094,26.7462891 101.534477,26.7462891 C102.42517,26.7462891 103.177361,27.1007777 103.791071,27.8097656 C104.40478,28.5187535 104.711631,29.3673779 104.711631,30.3556641 C104.711631,31.3922903 104.349113,32.2650843 103.624066,32.9740723 C102.89902,33.6830602 102.047714,34.0375488 101.070123,34.0375488 C100.17943,34.0375488 99.4530364,33.723343 98.8909218,33.0949219 C98.3288071,32.4665008 98.047754,31.7736366 98.047754,31.0163086 Z M118.439868,36.6108398 L118.439868,34.6611328 L127.319605,34.6611328 L127.319605,36.6108398 L118.439868,36.6108398 Z M134.375168,42.75 C134.375168,42.3525371 134.394176,42.0947272 134.432194,41.9765625 C134.470211,41.8583978 134.576115,41.7080087 134.749909,41.5253906 L141.153096,34.4677734 C143.488451,31.8681511 144.656112,29.4350699 144.656112,27.168457 C144.656112,25.69677 144.267797,24.4345756 143.491155,23.3818359 C142.714514,22.3290963 141.614741,21.8027344 140.191803,21.8027344 C139.214213,21.8027344 138.31267,22.0981416 137.487149,22.6889648 C136.661628,23.2797881 136.05879,24.1015572 135.678615,25.1542969 C135.743788,25.1328124 135.890425,25.1220703 136.118529,25.1220703 C136.672497,25.1220703 137.10426,25.2939436 137.41383,25.6376953 C137.723401,25.981447 137.878184,26.384275 137.878184,26.8461914 C137.878184,27.4370147 137.685384,27.8747544 137.299779,28.1594238 C136.914173,28.4440932 136.531289,28.5864258 136.151115,28.5864258 C135.999046,28.5864258 135.822539,28.5703127 135.62159,28.5380859 C135.42064,28.5058592 135.162669,28.3366715 134.847668,28.0305176 C134.532666,27.7243637 134.375168,27.297366 134.375168,26.7495117 C134.375168,25.2133712 134.964429,23.8330139 136.142969,22.6083984 C137.321509,21.3837829 138.812312,20.7714844 140.615424,20.7714844 C142.657502,20.7714844 144.349252,21.3703553 145.690723,22.5681152 C147.032195,23.7658751 147.702921,25.2993071 147.702921,27.168457 C147.702921,27.8237337 147.602448,28.4494599 147.401499,29.0456543 C147.200549,29.6418487 146.967017,30.1708961 146.700895,30.6328125 C146.434773,31.0947289 145.94327,31.6962854 145.22637,32.4375 C144.50947,33.1787146 143.863184,33.8124974 143.287492,34.3388672 C142.711799,34.865237 141.777671,35.6870061 140.485079,36.8041992 L136.949477,40.2041016 L142.96163,40.2041016 C144.916811,40.2041016 145.970421,40.1181649 146.12249,39.9462891 C146.339733,39.6347641 146.584127,38.6572348 146.85568,37.0136719 L147.702921,37.0136719 L146.757921,42.75 L134.375168,42.75 Z M153.308398,42.75 L153.308398,41.7348633 C155.046337,41.7348633 156.469253,41.0742254 157.577189,39.7529297 L160.705464,35.8212891 L157.397965,31.5673828 C156.615892,30.5790966 156.053786,29.9963388 155.711629,29.8190918 C155.369473,29.6418448 154.622713,29.5532227 153.471329,29.5532227 L153.471329,28.5219727 C154.383747,28.5864261 155.437356,28.6186523 156.632189,28.6186523 C157.294779,28.6186523 158.500456,28.5864261 160.249257,28.5219727 L160.249257,29.5532227 C159.467184,29.5961916 159.076154,29.8701147 159.076154,30.375 C159.076154,30.5468759 159.173911,30.7456043 159.36943,30.9711914 L161.976325,34.3066406 L164.045548,31.7285156 C164.382274,31.3310527 164.550634,30.9443378 164.550634,30.5683594 C164.550634,29.9560516 164.224776,29.6176761 163.573049,29.5532227 L163.573049,28.5219727 C164.442018,28.5864261 165.511921,28.6186523 166.782789,28.6186523 C167.738655,28.6186523 168.651059,28.5864261 169.520029,28.5219727 L169.520029,29.5532227 C167.825538,29.5961916 166.50038,30.1655219 165.544513,31.2612305 C165.120891,31.7231468 164.099867,32.9692281 162.481411,34.9995117 L166.94572,40.7036133 C167.304169,41.1655297 167.684338,41.4528803 168.086236,41.5656738 C168.488135,41.6784674 169.167007,41.7348633 170.122873,41.7348633 L170.122873,42.75 C169.123558,42.6855466 168.053656,42.6533203 166.913133,42.6533203 C166.511235,42.6533203 165.310989,42.6855466 163.312359,42.75 L163.312359,41.7348633 C163.714257,41.7133788 164.015677,41.6140146 164.216626,41.4367676 C164.417575,41.2595206 164.518048,41.0795908 164.518048,40.8969727 C164.518048,40.8110347 164.284516,40.451175 163.817445,39.8173828 L161.275722,36.5141602 C159.581231,38.4907325 158.625379,39.7099586 158.408137,40.171875 C158.32124,40.3652353 158.277792,40.5424797 158.277792,40.7036133 C158.277792,41.2944365 158.59822,41.6381831 159.239085,41.7348633 L159.239085,42.75 C157.642353,42.6855466 156.588744,42.6533203 156.078224,42.6533203 C155.100633,42.6533203 154.177367,42.6855466 153.308398,42.75 Z M174.685592,31.4513672 C174.685592,31.1237288 174.780634,30.882032 174.970721,30.7262695 C175.160808,30.570507 175.378047,30.492627 175.622445,30.492627 C175.877705,30.492627 176.096302,30.5745353 176.278242,30.7383545 C176.460183,30.9021737 176.551152,31.1264146 176.551152,31.411084 C176.551152,31.7172379 176.44389,31.9562491 176.229363,32.128125 C176.014836,32.3000009 175.755507,32.3644533 175.451368,32.3214844 C175.717489,32.7619163 176.0963,33.0814931 176.587811,33.2802246 C177.079322,33.4789561 177.553175,33.5783203 178.009384,33.5783203 C178.487317,33.5783203 178.920437,33.3742208 179.308758,32.9660156 C179.697079,32.5578105 179.891236,31.8542042 179.891236,30.8551758 C179.891236,30.0065387 179.724234,29.3378442 179.390224,28.8490723 C179.056214,28.3603003 178.560637,28.115918 177.903479,28.115918 L177.170289,28.115918 C177.001926,28.115918 176.893307,28.1078614 176.844427,28.091748 C176.795548,28.0756347 176.771108,28.0219243 176.771108,27.9306152 C176.771108,27.8231928 176.855289,27.7587403 177.023651,27.7372559 C177.192014,27.7372559 177.409253,27.7211427 177.675375,27.688916 C178.321671,27.6674315 178.81589,27.3800809 179.158047,26.8268555 C179.467617,26.3112279 179.6224,25.6855017 179.6224,24.9496582 C179.6224,24.2782681 179.460829,23.8015883 179.137681,23.5196045 C178.814533,23.2376207 178.443868,23.0966309 178.025677,23.0966309 C177.634641,23.0966309 177.224602,23.1771965 176.795548,23.3383301 C176.366494,23.4994637 176.035205,23.7599591 175.801669,24.1198242 C176.491414,24.1198242 176.836281,24.3964328 176.836281,24.9496582 C176.836281,25.1913586 176.758889,25.3914299 176.604104,25.5498779 C176.449319,25.708326 176.2443,25.7875488 175.98904,25.7875488 C175.744642,25.7875488 175.54098,25.7110115 175.378049,25.5579346 C175.215117,25.4048576 175.133652,25.1967298 175.133652,24.9335449 C175.133652,24.3051238 175.417421,23.7733908 175.984966,23.3383301 C176.552512,22.9032693 177.254466,22.6857422 178.090849,22.6857422 C178.91637,22.6857422 179.634617,22.9005838 180.245611,23.3302734 C180.856605,23.7599631 181.162098,24.3051236 181.162098,24.9657715 C181.162098,25.6156771 180.944859,26.2064915 180.510374,26.7382324 C180.075889,27.2699734 179.513783,27.6459462 178.824039,27.8661621 C179.671284,28.0326668 180.347441,28.3992403 180.852529,28.9658936 C181.357618,29.5325468 181.610158,30.1623012 181.610158,30.8551758 C181.610158,31.7145551 181.268006,32.4597869 180.583693,33.0908936 C179.89938,33.7220002 179.057578,34.0375488 178.058263,34.0375488 C177.134983,34.0375488 176.34206,33.790481 175.679471,33.2963379 C175.016882,32.8021948 174.685592,32.1872107 174.685592,31.4513672 Z M186.156584,36.6108398 L186.156584,34.6611328 L195.036321,34.6611328 L195.036321,36.6108398 L186.156584,36.6108398 Z M202.091884,42.75 C202.091884,42.3525371 202.110892,42.0947272 202.14891,41.9765625 C202.186927,41.8583978 202.292831,41.7080087 202.466625,41.5253906 L208.869812,34.4677734 C211.205167,31.8681511 212.372828,29.4350699 212.372828,27.168457 C212.372828,25.69677 211.984513,24.4345756 211.207871,23.3818359 C210.43123,22.3290963 209.331457,21.8027344 207.908519,21.8027344 C206.930929,21.8027344 206.029386,22.0981416 205.203865,22.6889648 C204.378344,23.2797881 203.775506,24.1015572 203.395331,25.1542969 C203.460504,25.1328124 203.607141,25.1220703 203.835245,25.1220703 C204.389213,25.1220703 204.820976,25.2939436 205.130546,25.6376953 C205.440117,25.981447 205.594899,26.384275 205.594899,26.8461914 C205.594899,27.4370147 205.4021,27.8747544 205.016495,28.1594238 C204.630889,28.4440932 204.248005,28.5864258 203.867831,28.5864258 C203.715762,28.5864258 203.539255,28.5703127 203.338306,28.5380859 C203.137356,28.5058592 202.879385,28.3366715 202.564384,28.0305176 C202.249382,27.7243637 202.091884,27.297366 202.091884,26.7495117 C202.091884,25.2133712 202.681145,23.8330139 203.859685,22.6083984 C205.038225,21.3837829 206.529028,20.7714844 208.33214,20.7714844 C210.374218,20.7714844 212.065968,21.3703553 213.407439,22.5681152 C214.748911,23.7658751 215.419637,25.2993071 215.419637,27.168457 C215.419637,27.8237337 215.319164,28.4494599 215.118214,29.0456543 C214.917265,29.6418487 214.683733,30.1708961 214.417611,30.6328125 C214.151489,31.0947289 213.659986,31.6962854 212.943086,32.4375 C212.226186,33.1787146 211.5799,33.8124974 211.004208,34.3388672 C210.428515,34.865237 209.494387,35.6870061 208.201795,36.8041992 L204.666193,40.2041016 L210.678346,40.2041016 C212.633527,40.2041016 213.687137,40.1181649 213.839206,39.9462891 C214.056449,39.6347641 214.300843,38.6572348 214.572396,37.0136719 L215.419637,37.0136719 L214.474637,42.75 L202.091884,42.75 Z M222.524078,50.6777344 C222.524078,50.570312 222.665284,50.3823256 222.947699,50.1137695 C226.532198,46.5043765 228.324421,41.2998387 228.324421,34.5 C228.324421,27.6786768 226.602801,22.5439626 223.159509,19.0957031 C222.735887,18.6982402 222.524078,18.4404303 222.524078,18.3222656 C222.524078,18.1074208 222.632698,18 222.84994,18 C223.00201,18 223.346877,18.2202126 223.884552,18.6606445 C224.422227,19.1010764 225.101099,19.8261668 225.921189,20.8359375 C226.741279,21.8457082 227.455453,22.9682555 228.063731,24.2036133 C229.530117,27.2006986 230.263299,30.6327932 230.263299,34.5 C230.263299,38.2168155 229.562703,41.5737155 228.16149,44.5708008 C227.564073,45.827643 226.847184,46.9824166 226.010801,48.0351562 C225.174418,49.0878959 224.479253,49.8452125 223.925285,50.3071289 C223.371317,50.7690453 223.012872,51 222.84994,51 C222.632698,51 222.524078,50.8925792 222.524078,50.6777344 Z M238.964465,37.7387695 C238.986189,37.4702135 239.208859,37.3359375 239.632482,37.3359375 L260.080318,37.3359375 C260.721183,37.3359375 261.047042,37.4594714 261.057904,37.706543 C261.057904,37.975099 260.753769,38.104004 260.14549,38.0932617 L239.860585,38.0932617 C239.263168,38.104004 238.964465,37.9858411 238.964465,37.7387695 Z M238.964465,31.293457 C238.964465,31.024901 239.197997,30.895996 239.665068,30.9067383 L260.047732,30.9067383 C260.710321,30.9067383 261.047042,31.0356432 261.057904,31.293457 C261.057904,31.5405286 260.775493,31.6640625 260.210663,31.6640625 L239.632482,31.6640625 C239.187135,31.6640625 238.964465,31.5405286 238.964465,31.293457 Z M268.178638,37.4326172 C268.178638,36.7773405 268.357861,36.3234876 268.716311,36.0710449 C269.074761,35.8186023 269.444067,35.6923828 269.824241,35.6923828 C270.334761,35.6923828 270.739369,35.8508285 271.038077,36.1677246 C271.336785,36.4846207 271.486137,36.863279 271.486137,37.3037109 C271.486137,37.7441428 271.336785,38.1228011 271.038077,38.4396973 C270.739369,38.7565934 270.334761,38.9150391 269.824241,38.9150391 C269.574412,38.9150391 269.384328,38.8935549 269.253983,38.8505859 C269.54726,39.8603566 270.141952,40.7304651 271.038077,41.4609375 C271.934202,42.1914099 272.974234,42.5566406 274.158205,42.5566406 C275.646315,42.5566406 276.835699,41.8422923 277.726393,40.4135742 C278.258637,39.4897415 278.524755,37.9804792 278.524755,35.8857422 C278.524755,34.0380767 278.323809,32.6523484 277.92191,31.7285156 C277.302769,30.321282 276.357779,29.6176758 275.086911,29.6176758 C273.2838,29.6176758 271.850022,30.3857345 270.785534,31.921875 C270.655188,32.1152353 270.513983,32.2172851 270.361913,32.2280273 C270.144671,32.2280273 270.011612,32.1662604 269.962733,32.0427246 C269.913853,31.9191888 269.889414,31.6909196 269.889414,31.3579102 L269.889414,21.5932617 C269.889414,21.0668919 269.998033,20.8037109 270.215276,20.8037109 C270.302172,20.8037109 270.437947,20.8359372 270.622603,20.9003906 C272.023816,21.5126984 273.501042,21.8242187 275.054325,21.8349609 C276.651057,21.8349609 278.1663,21.5126985 279.600099,20.8681641 C279.70872,20.8037106 279.795616,20.7714844 279.860789,20.7714844 C280.078031,20.7714844 280.192082,20.8950183 280.202944,21.1420898 C280.202944,21.2280278 280.113333,21.3972155 279.934108,21.6496582 C279.754883,21.9021009 279.475187,22.192137 279.095013,22.5197754 C278.714839,22.8474137 278.280361,23.1669906 277.791565,23.4785156 C277.30277,23.7900406 276.702647,24.0505361 275.991178,24.2600098 C275.27971,24.4694835 274.53295,24.5742187 273.750878,24.5742187 C272.816735,24.5742187 271.871745,24.4292007 270.915879,24.1391602 L270.915879,30.5683594 C272.067263,29.4511663 273.479318,28.8925781 275.152084,28.8925781 C276.933471,28.8925781 278.437852,29.6015554 279.665272,31.0195312 C280.892691,32.4375071 281.506392,34.1347557 281.506392,36.1113281 C281.506392,38.1845807 280.781356,39.9301687 279.331263,41.3481445 C277.88117,42.7661204 276.178559,43.4750977 274.223377,43.4750977 C272.44199,43.4750977 270.989203,42.846686 269.864974,41.5898438 C268.740745,40.3330015 268.178638,38.9472732 268.178638,37.4326172 Z M287.111868,42.75 L287.111868,41.7348633 C288.849807,41.7348633 290.272724,41.0742254 291.38066,39.7529297 L294.508934,35.8212891 L291.201436,31.5673828 C290.419363,30.5790966 289.857257,29.9963388 289.5151,29.8190918 C289.172943,29.6418448 288.426184,29.5532227 287.274799,29.5532227 L287.274799,28.5219727 C288.187217,28.5864261 289.240827,28.6186523 290.43566,28.6186523 C291.098249,28.6186523 292.303926,28.5864261 294.052728,28.5219727 L294.052728,29.5532227 C293.270655,29.5961916 292.879625,29.8701147 292.879625,30.375 C292.879625,30.5468759 292.977382,30.7456043 293.1729,30.9711914 L295.779796,34.3066406 L297.849019,31.7285156 C298.185745,31.3310527 298.354105,30.9443378 298.354105,30.5683594 C298.354105,29.9560516 298.028246,29.6176761 297.376519,29.5532227 L297.376519,28.5219727 C298.245489,28.5864261 299.315391,28.6186523 300.586259,28.6186523 C301.542126,28.6186523 302.45453,28.5864261 303.3235,28.5219727 L303.3235,29.5532227 C301.629009,29.5961916 300.30385,30.1655219 299.347984,31.2612305 C298.924361,31.7231468 297.903337,32.9692281 296.284882,34.9995117 L300.74919,40.7036133 C301.10764,41.1655297 301.487809,41.4528803 301.889707,41.5656738 C302.291605,41.6784674 302.970478,41.7348633 303.926344,41.7348633 L303.926344,42.75 C302.927029,42.6855466 301.857127,42.6533203 300.716604,42.6533203 C300.314706,42.6533203 299.11446,42.6855466 297.11583,42.75 L297.11583,41.7348633 C297.517728,41.7133788 297.819147,41.6140146 298.020097,41.4367676 C298.221046,41.2595206 298.321519,41.0795908 298.321519,40.8969727 C298.321519,40.8110347 298.087987,40.451175 297.620916,39.8173828 L295.079193,36.5141602 C293.384702,38.4907325 292.42885,39.7099586 292.211608,40.171875 C292.124711,40.3652353 292.081263,40.5424797 292.081263,40.7036133 C292.081263,41.2944365 292.401691,41.6381831 293.042556,41.7348633 L293.042556,42.75 C291.445824,42.6855466 290.392214,42.6533203 289.881695,42.6533203 C288.904104,42.6533203 287.980838,42.6855466 287.111868,42.75 Z M308.252813,30.9518555 L308.252813,30.4442871 L313.376992,22.7018555 C313.463889,22.5675775 313.575224,22.503125 313.711,22.5084961 C313.835915,22.5084961 313.911948,22.5326658 313.939104,22.5810059 C313.966259,22.6293459 313.979836,22.7475088 313.979836,22.935498 L313.979836,30.4442871 L315.649879,30.4442871 L315.649879,30.9518555 L313.979836,30.9518555 L313.979836,32.3859375 C313.979836,32.7028336 314.046366,32.9123042 314.179427,33.0143555 C314.312488,33.1164068 314.666859,33.1674316 315.242551,33.1674316 L315.592853,33.1674316 L315.592853,33.675 C315.136644,33.6427733 314.381738,33.6266602 313.328112,33.6266602 C312.279918,33.6266602 311.527728,33.6427733 311.071519,33.675 L311.071519,33.1674316 L311.42182,33.1674316 C311.997512,33.1674316 312.353241,33.1177495 312.489018,33.0183838 C312.624794,32.9190181 312.692682,32.7082047 312.692682,32.3859375 L312.692682,30.9518555 L308.252813,30.9518555 Z M308.725313,30.4442871 L312.79044,30.4442871 L312.79044,24.2890137 L308.725313,30.4442871 Z M319.960054,36.6108398 L319.960054,34.6611328 L328.839792,34.6611328 L328.839792,36.6108398 L319.960054,36.6108398 Z M335.634665,32.324707 C335.634665,28.8657054 336.525345,26.0754501 338.306733,23.9538574 C340.08812,21.8322648 342.124737,20.7714844 344.416644,20.7714844 C345.752685,20.7714844 346.792717,21.1071744 347.536772,21.7785645 C348.280827,22.4499545 348.652849,23.3012644 348.652849,24.3325195 C348.652849,24.9018583 348.484489,25.3100574 348.147763,25.5571289 C347.811037,25.8042005 347.468886,25.9277344 347.121298,25.9277344 C346.7194,25.9277344 346.360955,25.7934584 346.045954,25.5249023 C345.730952,25.2563463 345.573454,24.8803735 345.573454,24.3969727 C345.573454,23.4086865 346.187154,22.9145508 347.414574,22.9145508 C346.838881,22.033687 345.861305,21.5932617 344.481816,21.5932617 C344.058194,21.5932617 343.629146,21.6550287 343.194662,21.7785645 C342.760177,21.9021002 342.260527,22.1679667 341.695697,22.5761719 C341.130867,22.984377 340.631217,23.510739 340.196732,24.1552734 C339.762247,24.7998079 339.392941,25.7289978 339.088801,26.9428711 C338.784662,28.1567444 338.632595,29.5532148 338.632595,31.1323242 L338.632595,31.921875 C339.545013,29.7412 340.935343,28.6535644 342.803627,28.6589355 C344.671912,28.6643067 346.252326,29.3705984 347.544919,30.777832 C348.837511,32.1850656 349.483797,33.9306536 349.483797,36.0146484 C349.483797,38.1523544 348.810356,39.9301687 347.463453,41.3481445 C346.11655,42.7661204 344.498119,43.4750977 342.60811,43.4750977 C341.760865,43.4750977 340.954365,43.3005389 340.188585,42.951416 C339.422806,42.6022932 338.684193,42.0302774 337.972724,41.2353516 C337.261255,40.4404257 336.693718,39.2802811 336.270096,37.7548828 C335.846473,36.2294846 335.634665,34.4194441 335.634665,32.324707 Z M338.697767,35.2895508 C338.697767,37.4487413 338.898713,39.0439402 339.300612,40.0751953 C339.365784,40.2470712 339.471688,40.4511707 339.618327,40.6875 C339.764966,40.9238293 339.965912,41.1950668 340.221172,41.5012207 C340.476431,41.8073746 340.815868,42.0598135 341.23949,42.2585449 C341.663113,42.4572764 342.119315,42.5566406 342.60811,42.5566406 C344.096221,42.5566406 345.198709,41.8422923 345.915609,40.4135742 C346.295783,39.6186484 346.485867,38.1416124 346.485867,35.9824219 C346.485867,33.7802624 346.284921,32.2763712 345.883023,31.4707031 C345.198709,30.1064385 344.161392,29.4243164 342.771041,29.4243164 C341.836899,29.4243164 341.046692,29.7412078 340.400396,30.375 C339.7541,31.0087922 339.308759,31.7499958 339.064362,32.5986328 C338.819964,33.4472699 338.697767,34.3442336 338.697767,35.2895508 Z M354.828584,42.75 L354.828584,41.7348633 C356.566523,41.7348633 357.98944,41.0742254 359.097376,39.7529297 L362.22565,35.8212891 L358.918152,31.5673828 C358.136079,30.5790966 357.573973,29.9963388 357.231816,29.8190918 C356.889659,29.6418448 356.1429,29.5532227 354.991515,29.5532227 L354.991515,28.5219727 C355.903933,28.5864261 356.957543,28.6186523 358.152376,28.6186523 C358.814965,28.6186523 360.020642,28.5864261 361.769443,28.5219727 L361.769443,29.5532227 C360.987371,29.5961916 360.596341,29.8701147 360.596341,30.375 C360.596341,30.5468759 360.694098,30.7456043 360.889616,30.9711914 L363.496512,34.3066406 L365.565735,31.7285156 C365.902461,31.3310527 366.070821,30.9443378 366.070821,30.5683594 C366.070821,29.9560516 365.744962,29.6176761 365.093235,29.5532227 L365.093235,28.5219727 C365.962205,28.5864261 367.032107,28.6186523 368.302975,28.6186523 C369.258842,28.6186523 370.171246,28.5864261 371.040215,28.5219727 L371.040215,29.5532227 C369.345725,29.5961916 368.020566,30.1655219 367.0647,31.2612305 C366.641077,31.7231468 365.620053,32.9692281 364.001598,34.9995117 L368.465906,40.7036133 C368.824356,41.1655297 369.204525,41.4528803 369.606423,41.5656738 C370.008321,41.6784674 370.687194,41.7348633 371.64306,41.7348633 L371.64306,42.75 C370.643745,42.6855466 369.573842,42.6533203 368.43332,42.6533203 C368.031422,42.6533203 366.831176,42.6855466 364.832546,42.75 L364.832546,41.7348633 C365.234444,41.7133788 365.535863,41.6140146 365.736813,41.4367676 C365.937762,41.2595206 366.038235,41.0795908 366.038235,40.8969727 C366.038235,40.8110347 365.804703,40.451175 365.337632,39.8173828 L362.795909,36.5141602 C361.101418,38.4907325 360.145566,39.7099586 359.928324,40.171875 C359.841427,40.3652353 359.797979,40.5424797 359.797979,40.7036133 C359.797979,41.2944365 360.118406,41.6381831 360.759271,41.7348633 L360.759271,42.75 C359.16254,42.6855466 358.10893,42.6533203 357.598411,42.6533203 C356.62082,42.6533203 355.697554,42.6855466 354.828584,42.75 Z M376.336123,33.675 C376.336123,33.4762685 376.345628,33.3473636 376.364636,33.2882813 C376.383645,33.2291989 376.436597,33.1540044 376.523494,33.0626953 L379.725088,29.5338867 C380.892765,28.2340755 381.476595,27.017535 381.476595,25.8842285 C381.476595,25.148385 381.282438,24.5172878 380.894117,23.990918 C380.505797,23.4645481 379.95591,23.2013672 379.244441,23.2013672 C378.755646,23.2013672 378.304875,23.3490708 377.892114,23.6444824 C377.479354,23.9398941 377.177934,24.3507786 376.987847,24.8771484 C377.020434,24.8664062 377.093752,24.8610352 377.207804,24.8610352 C377.484788,24.8610352 377.70067,24.9469718 377.855455,25.1188477 C378.01024,25.2907235 378.087631,25.4921375 378.087631,25.7230957 C378.087631,26.0185073 377.991231,26.2373772 377.798429,26.3797119 C377.605626,26.5220466 377.414184,26.5932129 377.224097,26.5932129 C377.148062,26.5932129 377.059809,26.5851563 376.959334,26.569043 C376.85886,26.5529296 376.729874,26.4683357 376.572373,26.3152588 C376.414873,26.1621819 376.336123,25.948683 376.336123,25.6747559 C376.336123,24.9066856 376.630754,24.216507 377.220024,23.6041992 C377.809294,22.9918915 378.554696,22.6857422 379.456251,22.6857422 C380.477291,22.6857422 381.323165,22.9851777 381.993901,23.5840576 C382.664637,24.1829376 383,24.9496535 383,25.8842285 C383,26.2118669 382.949763,26.52473 382.849289,26.8228271 C382.748814,27.1209243 382.632048,27.3854481 382.498987,27.6164063 C382.365926,27.8473644 382.120175,28.1481427 381.761725,28.51875 C381.403275,28.8893573 381.080132,29.2062487 380.792285,29.4694336 C380.504439,29.7326185 380.037375,30.1435031 379.391079,30.7020996 L377.623278,32.4020508 L380.629354,32.4020508 C381.606945,32.4020508 382.13375,32.3590825 382.209785,32.2731445 C382.318406,32.117382 382.440603,31.6286174 382.576379,30.8068359 L383,30.8068359 L382.5275,33.675 L376.336123,33.675 Z" id="(x5--2x3-2)=5x4-6x2" fill="#000000"></path>
            </g>
        </g>
    </g>
</svg>