<?xml version="1.0" encoding="UTF-8" standalone="no"?>
<svg width="1159px" height="528px" viewBox="0 0 1159 528" version="1.1" xmlns="http://www.w3.org/2000/svg" xmlns:xlink="http://www.w3.org/1999/xlink">
    <!-- Generator: Sketch 41.2 (35397) - http://www.bohemiancoding.com/sketch -->
    <title>Desktop HD Copy 7</title>
    <desc>Created with Sketch.</desc>
    <defs>
        <rect id="path-1" x="1" y="2" width="1157" height="522" rx="10"></rect>
        <mask id="mask-2" maskContentUnits="userSpaceOnUse" maskUnits="objectBoundingBox" x="0" y="0" width="1157" height="522" fill="white">
            <use xlink:href="#path-1"></use>
        </mask>
    </defs>
    <g id="Page-1" stroke="none" stroke-width="1" fill="none" fill-rule="evenodd">
        <g id="Desktop-HD-Copy-7">
            <use id="Rectangle-3" stroke="#000000" mask="url(#mask-2)" stroke-width="6" xlink:href="#path-1"></use>
            <text id="learning-&amp;-regulariz" font-family="Futura-Medium, Futura" font-size="20" font-weight="400" fill="#4A4A4A">
                <tspan x="885" y="49">learning &amp; regularization </tspan>
            </text>
            <g id="Group-3" transform="translate(94.000000, 144.000000)">
                <path d="M1.23995272,0 L1.23995272,227.510163" id="Line" stroke="#000000" stroke-width="4" stroke-linecap="square"></path>
                <path d="M230.011229,228.130081 L2.47990544,228.130081" id="Line" stroke="#000000" stroke-width="4" stroke-linecap="square"></path>
                <ellipse id="Oval-6" fill="#FF0113" cx="42.7783688" cy="120.884146" rx="5.57978723" ry="5.57926829"></ellipse>
                <ellipse id="Oval-6" fill="#FF0113" cx="77.4970449" cy="149.400407" rx="5.57978723" ry="5.57926829"></ellipse>
                <ellipse id="Oval-6" fill="#FF0113" cx="124.615248" cy="138.24187" rx="5.57978723" ry="5.57926829"></ellipse>
                <ellipse id="Oval-6" fill="#FF0113" cx="110.975768" cy="160.558943" rx="5.57978723" ry="5.57926829"></ellipse>
                <ellipse id="Oval-6" fill="#FF0113" cx="20.4592199" cy="109.72561" rx="5.57978723" ry="5.57926829"></ellipse>
                <ellipse id="Oval-6" fill="#FF0113" cx="72.537234" cy="120.884146" rx="5.57978723" ry="5.57926829"></ellipse>
                <ellipse id="Oval-6" fill="#FF0113" cx="143.214539" cy="150.640244" rx="5.57978723" ry="5.57926829"></ellipse>
                <ellipse id="Oval-6" fill="#FF0113" cx="168.013593" cy="133.28252" rx="5.57978723" ry="5.57926829"></ellipse>
                <ellipse id="Oval-6" fill="#FF0113" cx="195.292553" cy="120.884146" rx="5.57978723" ry="5.57926829"></ellipse>
                <ellipse id="Oval-6" fill="#FF0113" cx="212.651891" cy="120.884146" rx="5.57978723" ry="5.57926829"></ellipse>
                <ellipse id="Oval-6" fill="#FF0113" cx="223.811466" cy="98.5670732" rx="5.57978723" ry="5.57926829"></ellipse>
                <ellipse id="Oval-6" fill="#FF0113" cx="48.9781324" cy="149.400407" rx="5.57978723" ry="5.57926829"></ellipse>
                <ellipse id="Oval-6" fill="#01FF5C" cx="66.3374704" cy="197.754065" rx="5.57978723" ry="5.57926829"></ellipse>
                <ellipse id="Oval-6" fill="#01FF5C" cx="172.973404" cy="172.957317" rx="5.57978723" ry="5.57926829"></ellipse>
                <ellipse id="Oval-6" fill="#01FF5C" cx="60.1377069" cy="172.957317" rx="5.57978723" ry="5.57926829"></ellipse>
                <ellipse id="Oval-6" fill="#01FF5C" cx="207.69208" cy="208.912602" rx="5.57978723" ry="5.57926829"></ellipse>
                <ellipse id="Oval-6" fill="#01FF5C" cx="207.69208" cy="172.957317" rx="5.57978723" ry="5.57926829"></ellipse>
                <ellipse id="Oval-6" fill="#01FF5C" cx="160.573877" cy="200.23374" rx="5.57978723" ry="5.57926829"></ellipse>
                <ellipse id="Oval-6" fill="#01FF5C" cx="99.8161939" cy="206.432927" rx="5.57978723" ry="5.57926829"></ellipse>
                <ellipse id="Oval-6" fill="#01FF5C" cx="31.6187943" cy="212.632114" rx="5.57978723" ry="5.57926829"></ellipse>
                <ellipse id="Oval-6" fill="#01FF5C" cx="218.851655" cy="156.839431" rx="5.57978723" ry="5.57926829"></ellipse>
                <ellipse id="Oval-6" fill="#01FF5C" cx="190.332742" cy="155.599593" rx="5.57978723" ry="5.57926829"></ellipse>
                <ellipse id="Oval-6" fill="#01FF5C" cx="88.6566194" cy="177.916667" rx="5.57978723" ry="5.57926829"></ellipse>
                <ellipse id="Oval-6" fill="#01FF5C" cx="122.135343" cy="189.075203" rx="5.57978723" ry="5.57926829"></ellipse>
                <ellipse id="Oval-6" fill="#01FF5C" cx="143.214539" cy="177.916667" rx="5.57978723" ry="5.57926829"></ellipse>
                <ellipse id="Oval-6" fill="#01FF5C" cx="31.6187943" cy="166.75813" rx="5.57978723" ry="5.57926829"></ellipse>
                <path d="M230.631206,125.223577 L6.19976359,172.337398" id="Line" stroke="#9B9B9B" stroke-width="4" stroke-linecap="square"></path>
            </g>
            <g id="Group" transform="translate(835.000000, 144.000000)">
                <path d="M228.349886,127.398136 C228.349886,127.398136 177.986494,155.938612 119.035461,168.022183 C60.0844276,180.105755 2.07788952,139.675432 2.07788952,139.675432" id="Line" stroke="#9B9B9B" stroke-width="4" stroke-linecap="square"></path>
                <path d="M1.23995272,0 L1.23995272,227.510163" id="Line" stroke="#000000" stroke-width="4" stroke-linecap="square"></path>
                <path d="M230.011229,228.130081 L2.47990544,228.130081" id="Line" stroke="#000000" stroke-width="4" stroke-linecap="square"></path>
                <ellipse id="Oval-6" fill="#FF0113" cx="42.7783688" cy="120.884146" rx="5.57978723" ry="5.57926829"></ellipse>
                <ellipse id="Oval-6" fill="#FF0113" cx="77.4970449" cy="149.400407" rx="5.57978723" ry="5.57926829"></ellipse>
                <ellipse id="Oval-6" fill="#FF0113" cx="124.615248" cy="138.24187" rx="5.57978723" ry="5.57926829"></ellipse>
                <ellipse id="Oval-6" fill="#FF0113" cx="110.975768" cy="160.558943" rx="5.57978723" ry="5.57926829"></ellipse>
                <ellipse id="Oval-6" fill="#FF0113" cx="20.4592199" cy="109.72561" rx="5.57978723" ry="5.57926829"></ellipse>
                <ellipse id="Oval-6" fill="#FF0113" cx="72.537234" cy="120.884146" rx="5.57978723" ry="5.57926829"></ellipse>
                <ellipse id="Oval-6" fill="#FF0113" cx="143.214539" cy="150.640244" rx="5.57978723" ry="5.57926829"></ellipse>
                <ellipse id="Oval-6" fill="#FF0113" cx="168.013593" cy="133.28252" rx="5.57978723" ry="5.57926829"></ellipse>
                <ellipse id="Oval-6" fill="#FF0113" cx="195.292553" cy="120.884146" rx="5.57978723" ry="5.57926829"></ellipse>
                <ellipse id="Oval-6" fill="#FF0113" cx="212.651891" cy="120.884146" rx="5.57978723" ry="5.57926829"></ellipse>
                <ellipse id="Oval-6" fill="#FF0113" cx="223.811466" cy="98.5670732" rx="5.57978723" ry="5.57926829"></ellipse>
                <ellipse id="Oval-6" fill="#FF0113" cx="48.9781324" cy="149.400407" rx="5.57978723" ry="5.57926829"></ellipse>
                <ellipse id="Oval-6" fill="#01FF5C" cx="66.3374704" cy="197.754065" rx="5.57978723" ry="5.57926829"></ellipse>
                <ellipse id="Oval-6" fill="#01FF5C" cx="172.973404" cy="172.957317" rx="5.57978723" ry="5.57926829"></ellipse>
                <ellipse id="Oval-6" fill="#01FF5C" cx="60.1377069" cy="172.957317" rx="5.57978723" ry="5.57926829"></ellipse>
                <ellipse id="Oval-6" fill="#01FF5C" cx="207.69208" cy="208.912602" rx="5.57978723" ry="5.57926829"></ellipse>
                <ellipse id="Oval-6" fill="#01FF5C" cx="207.69208" cy="172.957317" rx="5.57978723" ry="5.57926829"></ellipse>
                <ellipse id="Oval-6" fill="#01FF5C" cx="160.573877" cy="200.23374" rx="5.57978723" ry="5.57926829"></ellipse>
                <ellipse id="Oval-6" fill="#01FF5C" cx="99.8161939" cy="206.432927" rx="5.57978723" ry="5.57926829"></ellipse>
                <ellipse id="Oval-6" fill="#01FF5C" cx="31.6187943" cy="212.632114" rx="5.57978723" ry="5.57926829"></ellipse>
                <ellipse id="Oval-6" fill="#01FF5C" cx="218.851655" cy="156.839431" rx="5.57978723" ry="5.57926829"></ellipse>
                <ellipse id="Oval-6" fill="#01FF5C" cx="190.332742" cy="155.599593" rx="5.57978723" ry="5.57926829"></ellipse>
                <ellipse id="Oval-6" fill="#01FF5C" cx="88.6566194" cy="177.916667" rx="5.57978723" ry="5.57926829"></ellipse>
                <ellipse id="Oval-6" fill="#01FF5C" cx="122.135343" cy="189.075203" rx="5.57978723" ry="5.57926829"></ellipse>
                <ellipse id="Oval-6" fill="#01FF5C" cx="143.214539" cy="177.916667" rx="5.57978723" ry="5.57926829"></ellipse>
                <ellipse id="Oval-6" fill="#01FF5C" cx="31.6187943" cy="166.75813" rx="5.57978723" ry="5.57926829"></ellipse>
            </g>
            <text id="Underfitting" font-family="Futura-Medium, Futura" font-size="30" font-weight="400" fill="#000000">
                <tspan x="127" y="435">Underfitting</tspan>
            </text>
            <g id="Group-2" transform="translate(464.184397, 144.000000)">
                <path d="M1.23995272,0 L1.23995272,227.510163" id="Line" stroke="#000000" stroke-width="4" stroke-linecap="square"></path>
                <path d="M230.011229,228.130081 L2.47990544,228.130081" id="Line" stroke="#000000" stroke-width="4" stroke-linecap="square"></path>
                <ellipse id="Oval-6" fill="#FF0113" cx="42.7783688" cy="120.884146" rx="5.57978723" ry="5.57926829"></ellipse>
                <ellipse id="Oval-6" fill="#FF0113" cx="77.4970449" cy="149.400407" rx="5.57978723" ry="5.57926829"></ellipse>
                <ellipse id="Oval-6" fill="#FF0113" cx="124.615248" cy="138.24187" rx="5.57978723" ry="5.57926829"></ellipse>
                <ellipse id="Oval-6" fill="#FF0113" cx="110.975768" cy="160.558943" rx="5.57978723" ry="5.57926829"></ellipse>
                <ellipse id="Oval-6" fill="#FF0113" cx="20.4592199" cy="109.72561" rx="5.57978723" ry="5.57926829"></ellipse>
                <ellipse id="Oval-6" fill="#FF0113" cx="72.537234" cy="120.884146" rx="5.57978723" ry="5.57926829"></ellipse>
                <ellipse id="Oval-6" fill="#FF0113" cx="143.214539" cy="150.640244" rx="5.57978723" ry="5.57926829"></ellipse>
                <ellipse id="Oval-6" fill="#FF0113" cx="168.013593" cy="133.28252" rx="5.57978723" ry="5.57926829"></ellipse>
                <ellipse id="Oval-6" fill="#FF0113" cx="195.292553" cy="120.884146" rx="5.57978723" ry="5.57926829"></ellipse>
                <ellipse id="Oval-6" fill="#FF0113" cx="212.651891" cy="120.884146" rx="5.57978723" ry="5.57926829"></ellipse>
                <ellipse id="Oval-6" fill="#FF0113" cx="223.811466" cy="98.5670732" rx="5.57978723" ry="5.57926829"></ellipse>
                <ellipse id="Oval-6" fill="#FF0113" cx="48.9781324" cy="149.400407" rx="5.57978723" ry="5.57926829"></ellipse>
                <ellipse id="Oval-6" fill="#01FF5C" cx="66.3374704" cy="197.754065" rx="5.57978723" ry="5.57926829"></ellipse>
                <ellipse id="Oval-6" fill="#01FF5C" cx="172.973404" cy="172.957317" rx="5.57978723" ry="5.57926829"></ellipse>
                <ellipse id="Oval-6" fill="#01FF5C" cx="60.1377069" cy="172.957317" rx="5.57978723" ry="5.57926829"></ellipse>
                <ellipse id="Oval-6" fill="#01FF5C" cx="207.69208" cy="208.912602" rx="5.57978723" ry="5.57926829"></ellipse>
                <ellipse id="Oval-6" fill="#01FF5C" cx="207.69208" cy="172.957317" rx="5.57978723" ry="5.57926829"></ellipse>
                <ellipse id="Oval-6" fill="#01FF5C" cx="160.573877" cy="200.23374" rx="5.57978723" ry="5.57926829"></ellipse>
                <ellipse id="Oval-6" fill="#01FF5C" cx="99.8161939" cy="206.432927" rx="5.57978723" ry="5.57926829"></ellipse>
                <ellipse id="Oval-6" fill="#01FF5C" cx="31.6187943" cy="212.632114" rx="5.57978723" ry="5.57926829"></ellipse>
                <ellipse id="Oval-6" fill="#01FF5C" cx="218.851655" cy="156.839431" rx="5.57978723" ry="5.57926829"></ellipse>
                <ellipse id="Oval-6" fill="#01FF5C" cx="190.332742" cy="155.599593" rx="5.57978723" ry="5.57926829"></ellipse>
                <ellipse id="Oval-6" fill="#01FF5C" cx="88.6566194" cy="177.916667" rx="5.57978723" ry="5.57926829"></ellipse>
                <ellipse id="Oval-6" fill="#01FF5C" cx="122.135343" cy="189.075203" rx="5.57978723" ry="5.57926829"></ellipse>
                <ellipse id="Oval-6" fill="#01FF5C" cx="143.214539" cy="177.916667" rx="5.57978723" ry="5.57926829"></ellipse>
                <ellipse id="Oval-6" fill="#01FF5C" cx="31.6187943" cy="166.75813" rx="5.57978723" ry="5.57926829"></ellipse>
                <path d="M224.431442,127.703252 C224.431442,127.703252 215.829569,131.125064 205.008745,131.679449 C194.187921,132.233834 190.841149,124.896662 180.295664,129.807585 C172.168162,133.59248 181.964272,142.379101 161.81383,145.131201 C153.189632,146.309073 147.492072,167.48251 140.543313,168.519813 C133.302882,169.600657 133.412481,161.860155 128.547012,162.21771 C119.742425,162.864744 121.694578,173.716475 111.203416,173.716475 C100.712253,173.716475 100.964814,161.745736 93.7617372,160.835001 C83.8498138,159.581767 83.9234821,175.474193 73.7360165,170.570872 C66.9515946,167.305467 72.2018171,159.07695 67.2747003,154.83196 C64.5615405,152.494419 48.04664,161.420918 44.6092365,159.07695 C37.6196955,154.310777 34.2694354,147.955948 28.4898511,142.379101 C21.8646356,135.986286 7.43971631,135.142276 7.43971631,135.142276" id="Line" stroke="#9B9B9B" stroke-width="4" stroke-linecap="square"></path>
            </g>
            <text id="Overfitting" font-family="Futura-Medium, Futura" font-size="30" font-weight="400" fill="#000000">
                <tspan x="505" y="435">Overfitting</tspan>
            </text>
            <text id="Balanced" font-family="Futura-Medium, Futura" font-size="30" font-weight="400" fill="#000000">
                <tspan x="885" y="435">Balanced</tspan>
            </text>
        </g>
    </g>
</svg>