<?xml version="1.0" encoding="UTF-8" standalone="no"?>
<svg width="1159px" height="528px" viewBox="0 0 1159 528" version="1.1" xmlns="http://www.w3.org/2000/svg" xmlns:xlink="http://www.w3.org/1999/xlink">
    <!-- Generator: Sketch 41.2 (35397) - http://www.bohemiancoding.com/sketch -->
    <title>Desktop HD Copy 10</title>
    <desc>Created with Sketch.</desc>
    <defs>
        <rect id="path-1" x="1" y="2" width="1157" height="522" rx="10"></rect>
        <mask id="mask-2" maskContentUnits="userSpaceOnUse" maskUnits="objectBoundingBox" x="0" y="0" width="1157" height="522" fill="white">
            <use xlink:href="#path-1"></use>
        </mask>
    </defs>
    <g id="Page-1" stroke="none" stroke-width="1" fill="none" fill-rule="evenodd">
        <g id="Desktop-HD-Copy-10">
            <text id="Neural-Network-Map" font-family="Futura-Medium, Futura" font-size="20" font-weight="400" fill="#4A4A4A">
                <tspan x="923" y="494">Neural Network Map</tspan>
            </text>
            <use id="Rectangle-3" stroke="#000000" mask="url(#mask-2)" stroke-width="6" xlink:href="#path-1"></use>
            <path d="M678.772006,165.5 L864.053565,285.5" id="Line" stroke="#0076FF" stroke-width="7" stroke-linecap="square"></path>
            <path d="M514.5,167.5 L650.5,167.5" id="Line" stroke="#0076FF" stroke-width="7" stroke-linecap="square"></path>
            <path d="M514.5,245.5 L650.5,245.5" id="Line" stroke="#0076FF" stroke-width="7" stroke-linecap="square"></path>
            <path d="M514.5,324.5 L650.5,324.5" id="Line" stroke="#0076FF" stroke-width="7" stroke-linecap="square"></path>
            <path d="M514.5,402.5 L650.5,402.5" id="Line" stroke="#0076FF" stroke-width="7" stroke-linecap="square"></path>
            <path d="M680.316019,247.5 L864.053565,285.5" id="Line" stroke="#9012FE" stroke-width="7" stroke-linecap="square"></path>
            <path d="M681.035072,324.5 L864.053565,285.5" id="Line" stroke="#0BEBB9" stroke-width="7" stroke-linecap="square"></path>
            <path d="M680.643758,399.5 L864.053565,285.5" id="Line" stroke="#004BA2" stroke-width="7" stroke-linecap="square"></path>
            <text id="X_XOR" font-family="Futura-Medium, Futura" font-size="30" font-weight="400" fill="#000000">
                <tspan x="140" y="141">X_XOR</tspan>
            </text>
            <text id="layer_1" font-family="Futura-Medium, Futura" font-size="30" font-weight="400" fill="#000000">
                <tspan x="602" y="116">layer_1</tspan>
            </text>
            <text id="layer_2" font-family="Futura-Medium, Futura" font-size="30" font-weight="400" fill="#000000">
                <tspan x="925" y="227">layer_2</tspan>
            </text>
            <path d="M216.329768,201.5 L513.03373,167.5" id="Line" stroke="#0076FF" stroke-width="6" stroke-linecap="square"></path>
            <path d="M213.122157,283.5 L513.03373,166.5" id="Line" stroke="#9012FE" stroke-width="6" stroke-linecap="square"></path>
            <path d="M213.122157,283.5 L513.03373,243.5" id="Line" stroke="#9012FE" stroke-width="6" stroke-linecap="square"></path>
            <path d="M213.122157,283.5 L513.03373,320.5" id="Line" stroke="#9012FE" stroke-width="6" stroke-linecap="square"></path>
            <path d="M213.122157,283.5 L513.03373,395.5" id="Line" stroke="#9012FE" stroke-width="6" stroke-linecap="square"></path>
            <path d="M216.593892,366.5 L516.24134,396.5" id="Line" stroke="#0BEBB9" stroke-width="6" stroke-linecap="square"></path>
            <path d="M216.329768,364.5 L513.03373,322.5" id="Line" stroke="#0BEBB9" stroke-width="6" stroke-linecap="square"></path>
            <path d="M216.329768,364.5 L513.03373,243.5" id="Line" stroke="#0BEBB9" stroke-width="6" stroke-linecap="square"></path>
            <path d="M216.329768,364.5 L512.974214,166.53418" id="Line" stroke="#0BEBB9" stroke-width="6" stroke-linecap="square"></path>
            <path d="M214.978913,202.5 L511.429925,243.5" id="Line" stroke="#0076FF" stroke-width="6" stroke-linecap="square"></path>
            <path d="M213.993549,201.5 L513.03373,320.5" id="Line" stroke="#0076FF" stroke-width="6" stroke-linecap="square"></path>
            <path d="M213.225658,201.582031 L513.03373,397.5" id="Line" stroke="#0076FF" stroke-width="6" stroke-linecap="square"></path>
            <g id="Group-2" transform="translate(626.000000, 139.000000)" stroke="#000000" stroke-width="5" fill="#000000">
                <ellipse id="Oval-2" cx="26" cy="106" rx="26" ry="26"></ellipse>
                <ellipse id="Oval-2" cx="26" cy="106" rx="26" ry="26"></ellipse>
                <ellipse id="Oval-2" cx="26" cy="26" rx="26" ry="26"></ellipse>
                <circle id="Oval-2" cx="27" cy="186" r="26"></circle>
                <ellipse id="Oval-2" cx="26" cy="266" rx="26" ry="26"></ellipse>
            </g>
            <ellipse id="Oval-2" stroke="#000000" stroke-width="5" fill="#000000" cx="191" cy="204" rx="26" ry="26"></ellipse>
            <circle id="Oval-2" fill="#000000" cx="192" cy="284" r="26"></circle>
            <ellipse id="Oval-2" stroke="#000000" stroke-width="5" fill="#000000" cx="191" cy="364" rx="26" ry="26"></ellipse>
            <text id="1" font-family="Futura-Medium, Futura" font-size="30" font-weight="400" fill="#FFFFFF">
                <tspan x="183" y="215">1</tspan>
            </text>
            <text id="2" font-family="Futura-Medium, Futura" font-size="30" font-weight="400" fill="#FFFFFF">
                <tspan x="183" y="295">2</tspan>
            </text>
            <text id="3" font-family="Futura-Medium, Futura" font-size="30" font-weight="400" fill="#FFFFFF">
                <tspan x="183" y="374">3</tspan>
            </text>
            <text id="4" font-family="Futura-Medium, Futura" font-size="30" font-weight="400" fill="#FFFFFF">
                <tspan x="643" y="177">4</tspan>
            </text>
            <text id="5" font-family="Futura-Medium, Futura" font-size="30" font-weight="400" fill="#FFFFFF">
                <tspan x="644" y="256">5</tspan>
            </text>
            <text id="6" font-family="Futura-Medium, Futura" font-size="30" font-weight="400" fill="#FFFFFF">
                <tspan x="644" y="336">6</tspan>
            </text>
            <text id="7" font-family="Futura-Medium, Futura" font-size="30" font-weight="400" fill="#FFFFFF">
                <tspan x="644" y="416">7</tspan>
            </text>
            <g id="Group-2" transform="translate(559.000000, 382.000000)">
                <g id="noun_766126_cc" fill="#000000">
                    <g id="Group">
                        <rect id="Rectangle" x="5.52238806" y="2.76119403" width="26.5074627" height="30.9253731"></rect>
                        <path d="M35.15,0 L1.85,0 C0.830314961,0 0,0.828149863 0,1.84517601 L0,35.0583442 C0,36.0753703 0.830314961,36.9035202 1.85,36.9035202 L35.15,36.9035202 C36.169685,36.9035202 37,36.0753703 37,35.0583442 L37,1.84517601 C37,0.828149863 36.169685,0 35.15,0 Z M21.792126,17.296709 C22.3383858,17.9723049 22.3383858,18.9312153 21.7994094,19.6068112 L16.8029528,25.8324641 L24.0572835,25.8324641 C25.0769685,25.8324641 25.9072835,26.660614 25.9072835,27.6776402 C25.9072835,28.6946663 25.0769685,29.5228162 24.0572835,29.5228162 L12.95,29.5228162 C12.2362205,29.5228162 11.5879921,29.1160057 11.2820866,28.4767321 C10.9761811,27.8374586 11.0635827,27.0819534 11.507874,26.522589 L18.0338583,18.3863799 C16.7738189,16.9407498 14.8,14.4780937 11.507874,10.3736667 C11.0635827,9.8215668 10.9761811,9.05879719 11.2820866,8.41952361 C11.5879921,7.78025003 12.2362205,7.37343957 12.95,7.37343957 L24.05,7.37343957 C25.069685,7.37343957 25.9,8.20158943 25.9,9.21861558 C25.9,10.2356417 25.069685,11.0637916 24.05,11.0637916 L16.7956693,11.0637916 C18.9297244,13.729853 21.7120079,17.1950064 21.792126,17.296709 Z" id="Shape"></path>
                    </g>
                </g>
                <polyline id="Path-4" stroke="#FFFFFF" stroke-width="3" points="26.1938751 13.0091557 18.9271036 13.0091557 18.9271036 25.812552 11.0957396 25.812552"></polyline>
            </g>
            <g id="Group-2" transform="translate(559.000000, 305.000000)">
                <g id="noun_766126_cc" fill="#000000">
                    <g id="Group">
                        <rect id="Rectangle" x="5.52238806" y="2.76119403" width="26.5074627" height="30.9253731"></rect>
                        <path d="M35.15,0 L1.85,0 C0.830314961,0 0,0.828149863 0,1.84517601 L0,35.0583442 C0,36.0753703 0.830314961,36.9035202 1.85,36.9035202 L35.15,36.9035202 C36.169685,36.9035202 37,36.0753703 37,35.0583442 L37,1.84517601 C37,0.828149863 36.169685,0 35.15,0 Z M21.792126,17.296709 C22.3383858,17.9723049 22.3383858,18.9312153 21.7994094,19.6068112 L16.8029528,25.8324641 L24.0572835,25.8324641 C25.0769685,25.8324641 25.9072835,26.660614 25.9072835,27.6776402 C25.9072835,28.6946663 25.0769685,29.5228162 24.0572835,29.5228162 L12.95,29.5228162 C12.2362205,29.5228162 11.5879921,29.1160057 11.2820866,28.4767321 C10.9761811,27.8374586 11.0635827,27.0819534 11.507874,26.522589 L18.0338583,18.3863799 C16.7738189,16.9407498 14.8,14.4780937 11.507874,10.3736667 C11.0635827,9.8215668 10.9761811,9.05879719 11.2820866,8.41952361 C11.5879921,7.78025003 12.2362205,7.37343957 12.95,7.37343957 L24.05,7.37343957 C25.069685,7.37343957 25.9,8.20158943 25.9,9.21861558 C25.9,10.2356417 25.069685,11.0637916 24.05,11.0637916 L16.7956693,11.0637916 C18.9297244,13.729853 21.7120079,17.1950064 21.792126,17.296709 Z" id="Shape"></path>
                    </g>
                </g>
                <polyline id="Path-4" stroke="#FFFFFF" stroke-width="3" points="26.1938751 13.0091557 18.9271036 13.0091557 18.9271036 25.812552 11.0957396 25.812552"></polyline>
            </g>
            <g id="Group-2" transform="translate(559.000000, 227.000000)">
                <g id="noun_766126_cc" fill="#000000">
                    <g id="Group">
                        <rect id="Rectangle" x="5.52238806" y="2.76119403" width="26.5074627" height="30.9253731"></rect>
                        <path d="M35.15,0 L1.85,0 C0.830314961,0 0,0.828149863 0,1.84517601 L0,35.0583442 C0,36.0753703 0.830314961,36.9035202 1.85,36.9035202 L35.15,36.9035202 C36.169685,36.9035202 37,36.0753703 37,35.0583442 L37,1.84517601 C37,0.828149863 36.169685,0 35.15,0 Z M21.792126,17.296709 C22.3383858,17.9723049 22.3383858,18.9312153 21.7994094,19.6068112 L16.8029528,25.8324641 L24.0572835,25.8324641 C25.0769685,25.8324641 25.9072835,26.660614 25.9072835,27.6776402 C25.9072835,28.6946663 25.0769685,29.5228162 24.0572835,29.5228162 L12.95,29.5228162 C12.2362205,29.5228162 11.5879921,29.1160057 11.2820866,28.4767321 C10.9761811,27.8374586 11.0635827,27.0819534 11.507874,26.522589 L18.0338583,18.3863799 C16.7738189,16.9407498 14.8,14.4780937 11.507874,10.3736667 C11.0635827,9.8215668 10.9761811,9.05879719 11.2820866,8.41952361 C11.5879921,7.78025003 12.2362205,7.37343957 12.95,7.37343957 L24.05,7.37343957 C25.069685,7.37343957 25.9,8.20158943 25.9,9.21861558 C25.9,10.2356417 25.069685,11.0637916 24.05,11.0637916 L16.7956693,11.0637916 C18.9297244,13.729853 21.7120079,17.1950064 21.792126,17.296709 Z" id="Shape"></path>
                    </g>
                </g>
                <polyline id="Path-4" stroke="#FFFFFF" stroke-width="3" points="26.1938751 13.0091557 18.9271036 13.0091557 18.9271036 25.812552 11.0957396 25.812552"></polyline>
            </g>
            <g id="Group-2" transform="translate(559.000000, 146.000000)">
                <g id="noun_766126_cc" fill="#000000">
                    <g id="Group">
                        <rect id="Rectangle" x="5.52238806" y="2.76119403" width="26.5074627" height="30.9253731"></rect>
                        <path d="M35.15,0 L1.85,0 C0.830314961,0 0,0.828149863 0,1.84517601 L0,35.0583442 C0,36.0753703 0.830314961,36.9035202 1.85,36.9035202 L35.15,36.9035202 C36.169685,36.9035202 37,36.0753703 37,35.0583442 L37,1.84517601 C37,0.828149863 36.169685,0 35.15,0 Z M21.792126,17.296709 C22.3383858,17.9723049 22.3383858,18.9312153 21.7994094,19.6068112 L16.8029528,25.8324641 L24.0572835,25.8324641 C25.0769685,25.8324641 25.9072835,26.660614 25.9072835,27.6776402 C25.9072835,28.6946663 25.0769685,29.5228162 24.0572835,29.5228162 L12.95,29.5228162 C12.2362205,29.5228162 11.5879921,29.1160057 11.2820866,28.4767321 C10.9761811,27.8374586 11.0635827,27.0819534 11.507874,26.522589 L18.0338583,18.3863799 C16.7738189,16.9407498 14.8,14.4780937 11.507874,10.3736667 C11.0635827,9.8215668 10.9761811,9.05879719 11.2820866,8.41952361 C11.5879921,7.78025003 12.2362205,7.37343957 12.95,7.37343957 L24.05,7.37343957 C25.069685,7.37343957 25.9,8.20158943 25.9,9.21861558 C25.9,10.2356417 25.069685,11.0637916 24.05,11.0637916 L16.7956693,11.0637916 C18.9297244,13.729853 21.7120079,17.1950064 21.792126,17.296709 Z" id="Shape"></path>
                    </g>
                </g>
                <polyline id="Path-4" stroke="#FFFFFF" stroke-width="3" points="26.1938751 13.0091557 18.9271036 13.0091557 18.9271036 25.812552 11.0957396 25.812552"></polyline>
            </g>
            <g id="Group-4" transform="translate(512.000000, 382.000000)">
                <g id="Group-2" fill="#000000">
                    <g id="noun_766126_cc">
                        <g id="Group">
                            <rect id="Rectangle" x="5.52238806" y="2.76119403" width="26.5074627" height="30.9253731"></rect>
                            <path d="M35.15,0 L1.85,0 C0.830314961,0 0,0.828149863 0,1.84517601 L0,35.0583442 C0,36.0753703 0.830314961,36.9035202 1.85,36.9035202 L35.15,36.9035202 C36.169685,36.9035202 37,36.0753703 37,35.0583442 L37,1.84517601 C37,0.828149863 36.169685,0 35.15,0 Z M21.792126,17.296709 C22.3383858,17.9723049 22.3383858,18.9312153 21.7994094,19.6068112 L16.8029528,25.8324641 L24.0572835,25.8324641 C25.0769685,25.8324641 25.9072835,26.660614 25.9072835,27.6776402 C25.9072835,28.6946663 25.0769685,29.5228162 24.0572835,29.5228162 L12.95,29.5228162 C12.2362205,29.5228162 11.5879921,29.1160057 11.2820866,28.4767321 C10.9761811,27.8374586 11.0635827,27.0819534 11.507874,26.522589 L18.0338583,18.3863799 C16.7738189,16.9407498 14.8,14.4780937 11.507874,10.3736667 C11.0635827,9.8215668 10.9761811,9.05879719 11.2820866,8.41952361 C11.5879921,7.78025003 12.2362205,7.37343957 12.95,7.37343957 L24.05,7.37343957 C25.069685,7.37343957 25.9,8.20158943 25.9,9.21861558 C25.9,10.2356417 25.069685,11.0637916 24.05,11.0637916 L16.7956693,11.0637916 C18.9297244,13.729853 21.7120079,17.1950064 21.792126,17.296709 Z" id="Shape"></path>
                        </g>
                    </g>
                </g>
                <polygon id="+" fill="#FFFFFF" points="11.8215654 20.3380012 11.8215654 17.8018868 17.8209758 17.8018868 17.8209758 11.9115566 20.3434552 11.9115566 20.3434552 17.8018868 26.3428656 17.8018868 26.3428656 20.3380012 20.3434552 20.3380012 20.3434552 26.2283314 17.8209758 26.2283314 17.8209758 20.3380012"></polygon>
            </g>
            <path d="M862.5,284.5 L957.5,284.5" id="Line" stroke="#BD0FE1" stroke-width="7" stroke-linecap="square"></path>
            <g id="Group-2" transform="translate(907.000000, 264.000000)">
                <g id="noun_766126_cc" fill="#000000">
                    <g id="Group">
                        <rect id="Rectangle" x="5.52238806" y="2.76119403" width="26.5074627" height="30.9253731"></rect>
                        <path d="M35.15,0 L1.85,0 C0.830314961,0 0,0.828149863 0,1.84517601 L0,35.0583442 C0,36.0753703 0.830314961,36.9035202 1.85,36.9035202 L35.15,36.9035202 C36.169685,36.9035202 37,36.0753703 37,35.0583442 L37,1.84517601 C37,0.828149863 36.169685,0 35.15,0 Z M21.792126,17.296709 C22.3383858,17.9723049 22.3383858,18.9312153 21.7994094,19.6068112 L16.8029528,25.8324641 L24.0572835,25.8324641 C25.0769685,25.8324641 25.9072835,26.660614 25.9072835,27.6776402 C25.9072835,28.6946663 25.0769685,29.5228162 24.0572835,29.5228162 L12.95,29.5228162 C12.2362205,29.5228162 11.5879921,29.1160057 11.2820866,28.4767321 C10.9761811,27.8374586 11.0635827,27.0819534 11.507874,26.522589 L18.0338583,18.3863799 C16.7738189,16.9407498 14.8,14.4780937 11.507874,10.3736667 C11.0635827,9.8215668 10.9761811,9.05879719 11.2820866,8.41952361 C11.5879921,7.78025003 12.2362205,7.37343957 12.95,7.37343957 L24.05,7.37343957 C25.069685,7.37343957 25.9,8.20158943 25.9,9.21861558 C25.9,10.2356417 25.069685,11.0637916 24.05,11.0637916 L16.7956693,11.0637916 C18.9297244,13.729853 21.7120079,17.1950064 21.792126,17.296709 Z" id="Shape"></path>
                    </g>
                </g>
                <polyline id="Path-4" stroke="#FFFFFF" stroke-width="3" points="26.1938751 13.0091557 18.9271036 13.0091557 18.9271036 25.812552 11.0957396 25.812552"></polyline>
            </g>
            <g id="Group-4" transform="translate(850.000000, 264.000000)">
                <g id="Group-2" fill="#000000">
                    <g id="noun_766126_cc">
                        <g id="Group">
                            <rect id="Rectangle" x="5.52238806" y="2.76119403" width="26.5074627" height="30.9253731"></rect>
                            <path d="M35.15,0 L1.85,0 C0.830314961,0 0,0.828149863 0,1.84517601 L0,35.0583442 C0,36.0753703 0.830314961,36.9035202 1.85,36.9035202 L35.15,36.9035202 C36.169685,36.9035202 37,36.0753703 37,35.0583442 L37,1.84517601 C37,0.828149863 36.169685,0 35.15,0 Z M21.792126,17.296709 C22.3383858,17.9723049 22.3383858,18.9312153 21.7994094,19.6068112 L16.8029528,25.8324641 L24.0572835,25.8324641 C25.0769685,25.8324641 25.9072835,26.660614 25.9072835,27.6776402 C25.9072835,28.6946663 25.0769685,29.5228162 24.0572835,29.5228162 L12.95,29.5228162 C12.2362205,29.5228162 11.5879921,29.1160057 11.2820866,28.4767321 C10.9761811,27.8374586 11.0635827,27.0819534 11.507874,26.522589 L18.0338583,18.3863799 C16.7738189,16.9407498 14.8,14.4780937 11.507874,10.3736667 C11.0635827,9.8215668 10.9761811,9.05879719 11.2820866,8.41952361 C11.5879921,7.78025003 12.2362205,7.37343957 12.95,7.37343957 L24.05,7.37343957 C25.069685,7.37343957 25.9,8.20158943 25.9,9.21861558 C25.9,10.2356417 25.069685,11.0637916 24.05,11.0637916 L16.7956693,11.0637916 C18.9297244,13.729853 21.7120079,17.1950064 21.792126,17.296709 Z" id="Shape"></path>
                        </g>
                    </g>
                </g>
                <polygon id="+" fill="#FFFFFF" points="11.8215654 20.3380012 11.8215654 17.8018868 17.8209758 17.8018868 17.8209758 11.9115566 20.3434552 11.9115566 20.3434552 17.8018868 26.3428656 17.8018868 26.3428656 20.3380012 20.3434552 20.3380012 20.3434552 26.2283314 17.8209758 26.2283314 17.8209758 20.3380012"></polygon>
            </g>
            <g id="Group-4" transform="translate(510.000000, 305.000000)">
                <g id="Group-2" fill="#000000">
                    <g id="noun_766126_cc">
                        <g id="Group">
                            <rect id="Rectangle" x="5.52238806" y="2.76119403" width="26.5074627" height="30.9253731"></rect>
                            <path d="M35.15,0 L1.85,0 C0.830314961,0 0,0.828149863 0,1.84517601 L0,35.0583442 C0,36.0753703 0.830314961,36.9035202 1.85,36.9035202 L35.15,36.9035202 C36.169685,36.9035202 37,36.0753703 37,35.0583442 L37,1.84517601 C37,0.828149863 36.169685,0 35.15,0 Z M21.792126,17.296709 C22.3383858,17.9723049 22.3383858,18.9312153 21.7994094,19.6068112 L16.8029528,25.8324641 L24.0572835,25.8324641 C25.0769685,25.8324641 25.9072835,26.660614 25.9072835,27.6776402 C25.9072835,28.6946663 25.0769685,29.5228162 24.0572835,29.5228162 L12.95,29.5228162 C12.2362205,29.5228162 11.5879921,29.1160057 11.2820866,28.4767321 C10.9761811,27.8374586 11.0635827,27.0819534 11.507874,26.522589 L18.0338583,18.3863799 C16.7738189,16.9407498 14.8,14.4780937 11.507874,10.3736667 C11.0635827,9.8215668 10.9761811,9.05879719 11.2820866,8.41952361 C11.5879921,7.78025003 12.2362205,7.37343957 12.95,7.37343957 L24.05,7.37343957 C25.069685,7.37343957 25.9,8.20158943 25.9,9.21861558 C25.9,10.2356417 25.069685,11.0637916 24.05,11.0637916 L16.7956693,11.0637916 C18.9297244,13.729853 21.7120079,17.1950064 21.792126,17.296709 Z" id="Shape"></path>
                        </g>
                    </g>
                </g>
                <polygon id="+" fill="#FFFFFF" points="11.8215654 20.3380012 11.8215654 17.8018868 17.8209758 17.8018868 17.8209758 11.9115566 20.3434552 11.9115566 20.3434552 17.8018868 26.3428656 17.8018868 26.3428656 20.3380012 20.3434552 20.3380012 20.3434552 26.2283314 17.8209758 26.2283314 17.8209758 20.3380012"></polygon>
            </g>
            <g id="Group-4" transform="translate(510.000000, 227.000000)">
                <g id="Group-2" fill="#000000">
                    <g id="noun_766126_cc">
                        <g id="Group">
                            <rect id="Rectangle" x="5.52238806" y="2.76119403" width="26.5074627" height="30.9253731"></rect>
                            <path d="M35.15,0 L1.85,0 C0.830314961,0 0,0.828149863 0,1.84517601 L0,35.0583442 C0,36.0753703 0.830314961,36.9035202 1.85,36.9035202 L35.15,36.9035202 C36.169685,36.9035202 37,36.0753703 37,35.0583442 L37,1.84517601 C37,0.828149863 36.169685,0 35.15,0 Z M21.792126,17.296709 C22.3383858,17.9723049 22.3383858,18.9312153 21.7994094,19.6068112 L16.8029528,25.8324641 L24.0572835,25.8324641 C25.0769685,25.8324641 25.9072835,26.660614 25.9072835,27.6776402 C25.9072835,28.6946663 25.0769685,29.5228162 24.0572835,29.5228162 L12.95,29.5228162 C12.2362205,29.5228162 11.5879921,29.1160057 11.2820866,28.4767321 C10.9761811,27.8374586 11.0635827,27.0819534 11.507874,26.522589 L18.0338583,18.3863799 C16.7738189,16.9407498 14.8,14.4780937 11.507874,10.3736667 C11.0635827,9.8215668 10.9761811,9.05879719 11.2820866,8.41952361 C11.5879921,7.78025003 12.2362205,7.37343957 12.95,7.37343957 L24.05,7.37343957 C25.069685,7.37343957 25.9,8.20158943 25.9,9.21861558 C25.9,10.2356417 25.069685,11.0637916 24.05,11.0637916 L16.7956693,11.0637916 C18.9297244,13.729853 21.7120079,17.1950064 21.792126,17.296709 Z" id="Shape"></path>
                        </g>
                    </g>
                </g>
                <polygon id="+" fill="#FFFFFF" points="11.8215654 20.3380012 11.8215654 17.8018868 17.8209758 17.8018868 17.8209758 11.9115566 20.3434552 11.9115566 20.3434552 17.8018868 26.3428656 17.8018868 26.3428656 20.3380012 20.3434552 20.3380012 20.3434552 26.2283314 17.8209758 26.2283314 17.8209758 20.3380012"></polygon>
            </g>
            <g id="Group-4" transform="translate(510.000000, 147.000000)">
                <g id="Group-2" fill="#000000">
                    <g id="noun_766126_cc">
                        <g id="Group">
                            <rect id="Rectangle" x="5.52238806" y="2.76119403" width="26.5074627" height="30.9253731"></rect>
                            <path d="M35.15,0 L1.85,0 C0.830314961,0 0,0.828149863 0,1.84517601 L0,35.0583442 C0,36.0753703 0.830314961,36.9035202 1.85,36.9035202 L35.15,36.9035202 C36.169685,36.9035202 37,36.0753703 37,35.0583442 L37,1.84517601 C37,0.828149863 36.169685,0 35.15,0 Z M21.792126,17.296709 C22.3383858,17.9723049 22.3383858,18.9312153 21.7994094,19.6068112 L16.8029528,25.8324641 L24.0572835,25.8324641 C25.0769685,25.8324641 25.9072835,26.660614 25.9072835,27.6776402 C25.9072835,28.6946663 25.0769685,29.5228162 24.0572835,29.5228162 L12.95,29.5228162 C12.2362205,29.5228162 11.5879921,29.1160057 11.2820866,28.4767321 C10.9761811,27.8374586 11.0635827,27.0819534 11.507874,26.522589 L18.0338583,18.3863799 C16.7738189,16.9407498 14.8,14.4780937 11.507874,10.3736667 C11.0635827,9.8215668 10.9761811,9.05879719 11.2820866,8.41952361 C11.5879921,7.78025003 12.2362205,7.37343957 12.95,7.37343957 L24.05,7.37343957 C25.069685,7.37343957 25.9,8.20158943 25.9,9.21861558 C25.9,10.2356417 25.069685,11.0637916 24.05,11.0637916 L16.7956693,11.0637916 C18.9297244,13.729853 21.7120079,17.1950064 21.792126,17.296709 Z" id="Shape"></path>
                        </g>
                    </g>
                </g>
                <polygon id="+" fill="#FFFFFF" points="11.8215654 20.3380012 11.8215654 17.8018868 17.8209758 17.8018868 17.8209758 11.9115566 20.3434552 11.9115566 20.3434552 17.8018868 26.3428656 17.8018868 26.3428656 20.3380012 20.3434552 20.3380012 20.3434552 26.2283314 17.8209758 26.2283314 17.8209758 20.3380012"></polygon>
            </g>
            <g id="Group-3" transform="translate(956.000000, 257.000000)">
                <ellipse id="Oval-2" stroke="#000000" stroke-width="5" fill="#000000" cx="26" cy="26" rx="26" ry="26"></ellipse>
                <text id="8" font-family="Futura-Medium, Futura" font-size="30" font-weight="400" fill="#FFFFFF">
                    <tspan x="17" y="37">8</tspan>
                </text>
            </g>
            <text id="1.1" font-family="Futura-Medium, Futura" font-size="20" font-weight="400" fill="#000000">
                <tspan x="254" y="199">1.1</tspan>
            </text>
            <text id="4.1" font-family="Futura-Medium, Futura" font-size="20" font-weight="400" fill="#000000">
                <tspan x="692" y="169">4.1</tspan>
            </text>
            <text id="5.1" font-family="Futura-Medium, Futura" font-size="20" font-weight="400" fill="#000000">
                <tspan x="692" y="244">5.1</tspan>
            </text>
            <text id="6.1" font-family="Futura-Medium, Futura" font-size="20" font-weight="400" fill="#000000">
                <tspan x="692" y="312">6.1</tspan>
            </text>
            <text id="7.1" font-family="Futura-Medium, Futura" font-size="20" font-weight="400" fill="#000000">
                <tspan x="692" y="374">7.1</tspan>
            </text>
            <text id="2.1" font-family="Futura-Medium, Futura" font-size="20" font-weight="400" fill="#000000">
                <tspan x="250" y="268">2.1</tspan>
            </text>
            <text id="3.1" font-family="Futura-Medium, Futura" font-size="20" font-weight="400" fill="#000000">
                <tspan x="250" y="335">3.1</tspan>
            </text>
            <text id="3.2" font-family="Futura-Medium, Futura" font-size="20" font-weight="400" fill="#000000">
                <tspan x="280" y="341">3.2</tspan>
            </text>
            <text id="3.3" font-family="Futura-Medium, Futura" font-size="20" font-weight="400" fill="#000000">
                <tspan x="269" y="362">3.3</tspan>
            </text>
            <text id="3.4" font-family="Futura-Medium, Futura" font-size="20" font-weight="400" fill="#000000">
                <tspan x="249" y="381">3.4</tspan>
            </text>
            <text id="2.2" font-family="Futura-Medium, Futura" font-size="20" font-weight="400" fill="#000000">
                <tspan x="275" y="281">2.2</tspan>
            </text>
            <text id="2.3" font-family="Futura-Medium, Futura" font-size="20" font-weight="400" fill="#000000">
                <tspan x="268" y="299">2.3</tspan>
            </text>
            <text id="2.4" font-family="Futura-Medium, Futura" font-size="20" font-weight="400" fill="#000000">
                <tspan x="238" y="309">2.4</tspan>
            </text>
            <text id="1.2" font-family="Futura-Medium, Futura" font-size="20" font-weight="400" fill="#000000">
                <tspan x="267" y="216">1.2</tspan>
            </text>
            <text id="1.3" font-family="Futura-Medium, Futura" font-size="20" font-weight="400" fill="#000000">
                <tspan x="272" y="238">1.3</tspan>
            </text>
            <text id="1.4" font-family="Futura-Medium, Futura" font-size="20" font-weight="400" fill="#000000">
                <tspan x="243" y="244">1.4</tspan>
            </text>
        </g>
    </g>
</svg>