<?xml version="1.0" encoding="UTF-8" standalone="no"?>
<svg width="1159px" height="528px" viewBox="0 0 1159 528" version="1.1" xmlns="http://www.w3.org/2000/svg" xmlns:xlink="http://www.w3.org/1999/xlink">
    <!-- Generator: Sketch 41.2 (35397) - http://www.bohemiancoding.com/sketch -->
    <title>Desktop HD Copy 9</title>
    <desc>Created with Sketch.</desc>
    <defs>
        <rect id="path-1" x="1" y="2" width="1157" height="522" rx="10"></rect>
        <mask id="mask-2" maskContentUnits="userSpaceOnUse" maskUnits="objectBoundingBox" x="0" y="0" width="1157" height="522" fill="white">
            <use xlink:href="#path-1"></use>
        </mask>
    </defs>
    <g id="Page-1" stroke="none" stroke-width="1" fill="none" fill-rule="evenodd">
        <g id="Desktop-HD-Copy-9">
            <text id="Artificial-Neural-Ne" font-family="Futura-Medium, Futura" font-size="25" font-weight="400" fill="#4A4A4A">
                <tspan x="841" y="494">Artificial Neural Network</tspan>
            </text>
            <use id="Rectangle-3" stroke="#000000" mask="url(#mask-2)" stroke-width="6" xlink:href="#path-1"></use>
            <ellipse id="Oval-2" stroke="#000000" stroke-width="5" cx="302" cy="164" rx="26" ry="26"></ellipse>
            <circle id="Oval-2" stroke="#000000" stroke-width="5" cx="303" cy="274" r="26"></circle>
            <ellipse id="Oval-2" stroke="#000000" stroke-width="5" fill="#FFFFFF" cx="303" cy="380" rx="26" ry="26"></ellipse>
            <path d="M329.5,174.5 L565.5,272.5" id="Line" stroke="#000000" stroke-width="5" stroke-linecap="square"></path>
            <path d="M331.5,274.5 L829.5,274.5" id="Line" stroke="#000000" stroke-width="5" stroke-linecap="square"></path>
            <path d="M330.5,372.5 L569.5,274.5" id="Line" stroke="#000000" stroke-width="5" stroke-linecap="square"></path>
            <polyline id="Path-3" stroke="#000000" stroke-width="5" points="716.5 275.606445 715.705739 131 524.330839 131.339918 468.195312 174.539062"></polyline>
            <polygon id="Triangle-2" fill="#000000" transform="translate(460.577582, 180.408151) rotate(-128.000000) translate(-460.577582, -180.408151) " points="460.577582 166.408151 471.577582 194.408151 449.577582 194.408151"></polygon>
            <polygon id="Triangle-2" fill="#000000" points="855 274 827 290 827 258"></polygon>
            <text id="Input" font-family="Futura-Medium, Futura" font-size="40" font-weight="400" fill="#000000">
                <tspan x="123" y="284">Input</tspan>
            </text>
            <text id="Weights" font-family="Futura-Medium, Futura" font-size="25" font-weight="400" fill="#000000">
                <tspan x="369" y="404">Weights</tspan>
            </text>
            <text id="Sum" font-family="Futura-Medium, Futura" font-size="25" font-weight="400" fill="#000000">
                <tspan x="540" y="341">Sum</tspan>
            </text>
            <text id="0-to-1" font-family="Futura-Medium, Futura" font-size="25" font-weight="400" fill="#000000">
                <tspan x="683" y="341">0 to 1</tspan>
            </text>
            <text id="Output" font-family="Futura-Medium, Futura" font-size="40" font-weight="400" fill="#000000">
                <tspan x="903" y="287">Output</tspan>
            </text>
            <text id="(Prediction---Truth)" font-family="Futura-Medium, Futura" font-size="20" font-weight="400" fill="#000000">
                <tspan x="452" y="111">(Prediction - Truth) * Learning rate</tspan>
            </text>
            <g id="Group-2" transform="translate(688.000000, 246.000000)">
                <g id="noun_766126_cc" fill="#000000">
                    <g id="Group">
                        <rect id="Rectangle" x="7.91044776" y="3.95522388" width="37.9701493" height="44.2985075"></rect>
                        <path d="M50.35,0 L2.65,0 C1.18937008,0 0,1.18626872 0,2.64308996 L0,50.2187093 C0,51.6755305 1.18937008,52.8617992 2.65,52.8617992 L50.35,52.8617992 C51.8106299,52.8617992 53,51.6755305 53,50.2187093 L53,2.64308996 C53,1.18626872 51.8106299,0 50.35,0 Z M31.215748,24.7763669 C31.9982283,25.7441125 31.9982283,27.1176868 31.2261811,28.0854323 L24.0690945,37.0032595 L34.4604331,37.0032595 C35.921063,37.0032595 37.1104331,38.1895282 37.1104331,39.6463494 C37.1104331,41.1031707 35.921063,42.2894394 34.4604331,42.2894394 L18.55,42.2894394 C17.5275591,42.2894394 16.5990157,41.7067109 16.1608268,40.7909947 C15.7226378,39.8752785 15.8478346,38.7930684 16.484252,37.9918167 L25.8322835,26.3372468 C24.0273622,24.2664795 21.2,20.7388909 16.484252,14.8595766 C15.8478346,14.0687308 15.7226378,12.9761149 16.1608268,12.0603987 C16.5990157,11.1446825 17.5275591,10.561954 18.55,10.561954 L34.45,10.561954 C35.9106299,10.561954 37.1,11.7482227 37.1,13.2050439 C37.1,14.6618652 35.9106299,15.8481339 34.45,15.8481339 L24.0586614,15.8481339 C27.1155512,19.6670867 31.1009843,24.6306848 31.215748,24.7763669 Z" id="Shape"></path>
                    </g>
                </g>
                <polyline id="Path-4" stroke="#FFFFFF" stroke-width="3" points="37.5209563 18.6347365 27.1117971 18.6347365 27.1117971 36.9747366 15.8938972 36.9747366"></polyline>
            </g>
            <g id="Group-2" transform="translate(540.000000, 246.000000)" fill="#000000">
                <g id="noun_766126_cc">
                    <g id="Group">
                        <rect id="Rectangle" x="7.91044776" y="3.95522388" width="37.9701493" height="44.2985075"></rect>
                        <path d="M50.35,0 L2.65,0 C1.18937008,0 0,1.18626872 0,2.64308996 L0,50.2187093 C0,51.6755305 1.18937008,52.8617992 2.65,52.8617992 L50.35,52.8617992 C51.8106299,52.8617992 53,51.6755305 53,50.2187093 L53,2.64308996 C53,1.18626872 51.8106299,0 50.35,0 Z M31.215748,24.7763669 C31.9982283,25.7441125 31.9982283,27.1176868 31.2261811,28.0854323 L24.0690945,37.0032595 L34.4604331,37.0032595 C35.921063,37.0032595 37.1104331,38.1895282 37.1104331,39.6463494 C37.1104331,41.1031707 35.921063,42.2894394 34.4604331,42.2894394 L18.55,42.2894394 C17.5275591,42.2894394 16.5990157,41.7067109 16.1608268,40.7909947 C15.7226378,39.8752785 15.8478346,38.7930684 16.484252,37.9918167 L25.8322835,26.3372468 C24.0273622,24.2664795 21.2,20.7388909 16.484252,14.8595766 C15.8478346,14.0687308 15.7226378,12.9761149 16.1608268,12.0603987 C16.5990157,11.1446825 17.5275591,10.561954 18.55,10.561954 L34.45,10.561954 C35.9106299,10.561954 37.1,11.7482227 37.1,13.2050439 C37.1,14.6618652 35.9106299,15.8481339 34.45,15.8481339 L24.0586614,15.8481339 C27.1155512,19.6670867 31.1009843,24.6306848 31.215748,24.7763669 Z" id="Shape"></path>
                    </g>
                </g>
            </g>
            <g id="noun_1129474_cc" transform="translate(406.000000, 194.000000)">
                <g id="Group">
                    <circle id="Oval-3" stroke="#000000" fill="#000000" cx="17.5" cy="17.5" r="17.5"></circle>
                    <path d="M6.16304348,22.2173913 L6.01086957,22.2934783 C6.16304348,22.673913 6.35326087,23.0163043 6.54347826,23.3586957 C6.96195652,24.1195652 7.45652174,24.8043478 8.02717391,25.451087 L8.06521739,25.4130435 C7.5326087,24.7663043 7.07608696,24.0434783 6.6576087,23.3206522 C6.4673913,22.9402174 6.31521739,22.5978261 6.16304348,22.2173913 Z" id="Shape" fill="#FFFFFF" opacity="0"></path>
                    <path d="M14.0380435,6.04891304 C15.1413043,5.74456522 16.3206522,5.5923913 17.4619565,5.5923913 L17.4619565,4.67934783 C16.2065217,4.7173913 14.9891304,4.9076087 13.8097826,5.28804348 C13.7717391,5.28804348 13.7336957,5.32608696 13.6956522,5.32608696 L13.923913,6.08695652 C13.9619565,6.08695652 14,6.04891304 14.0380435,6.04891304 Z" id="Shape" fill="#FFFFFF" opacity="0"></path>
                    <path d="M10.8043478,7.49456522 C11.451087,7.07608696 12.1358696,6.73369565 12.8586957,6.42934783 L12.5543478,5.74456522 C11.7934783,6.08695652 11.0706522,6.4673913 10.3858696,6.92391304 C10.0054348,7.19021739 9.66304348,7.49456522 9.32065217,7.79891304 L9.73913043,8.29347826 C10.1195652,7.98913043 10.4619565,7.76086957 10.8043478,7.49456522 Z" id="Shape" fill="#FFFFFF" opacity="0"></path>
                    <path d="M5.36413043,16.3206522 C5.51630435,15.1413043 5.82065217,14 6.27717391,12.8967391 L5.85869565,12.7065217 C5.44021739,13.8478261 5.13586957,15.0652174 5.02173913,16.2826087 L5.02173913,16.3967391 L5.36413043,16.4347826 C5.36413043,16.3967391 5.36413043,16.3586957 5.36413043,16.3206522 Z" id="Shape" fill="#FFFFFF" opacity="0"></path>
                    <path d="M5.47826087,19.8967391 C5.36413043,19.0978261 5.28804348,18.298913 5.28804348,17.5380435 L4.98369565,17.5380435 C4.98369565,18.3369565 5.09782609,19.173913 5.25,19.9728261 C5.36413043,20.4293478 5.47826087,20.8478261 5.63043478,21.2663043 L5.82065217,21.2282609 C5.66847826,20.7336957 5.55434783,20.3152174 5.47826087,19.8967391 Z" id="Shape" fill="#FFFFFF" opacity="0"></path>
                    <path d="M21.9891304,6.54347826 L22.4076087,5.55434783 C22.0271739,5.40217391 21.6467391,5.25 21.2663043,5.13586957 C20.3913043,4.9076087 19.5163043,4.75543478 18.6413043,4.67934783 L18.5652174,5.63043478 C19.3641304,5.70652174 20.201087,5.89673913 20.9619565,6.125 C21.3043478,6.27717391 21.6467391,6.42934783 21.9891304,6.54347826 Z" id="Shape" fill="#FFFFFF" opacity="0"></path>
                    <path d="M29.0652174,16.3586957 C29.1032609,16.7391304 29.1032609,17.0815217 29.1032609,17.4619565 L30.625,17.4619565 C30.625,17.0434783 30.5869565,16.625 30.548913,16.2065217 C30.4347826,15.2934783 30.2445652,14.4184783 29.9402174,13.5434783 L28.6086957,13.9619565 C28.8369565,14.7608696 28.9891304,15.5597826 29.0652174,16.3586957 Z" id="Shape" fill="#FFFFFF" opacity="0"></path>
                    <path d="M26.5923913,10.0434783 C27.2771739,10.9565217 27.8858696,11.9076087 28.3043478,12.9728261 L29.5597826,12.4402174 C29.0652174,11.298913 28.3804348,10.2336957 27.5815217,9.24456522 C27.5434783,9.20652174 27.5054348,9.16847826 27.4673913,9.13043478 L26.5163043,9.92934783 C26.5163043,10.0054348 26.5543478,10.0054348 26.5923913,10.0434783 Z" id="Shape" fill="#FFFFFF" opacity="0"></path>
                    <path d="M27.6576087,22.9402174 C27.0869565,23.9293478 26.4021739,24.8043478 25.6032609,25.6032609 L25.6032609,25.6032609 L26.8967391,26.8967391 L26.8967391,26.8967391 C27.7717391,25.9456522 28.5706522,24.8804348 29.1793478,23.7391304 C29.1793478,23.701087 29.2173913,23.6630435 29.2173913,23.6630435 L27.6956522,22.826087 C27.6956522,22.8641304 27.6576087,22.9021739 27.6576087,22.9402174 Z" id="Shape" fill="#FFFFFF" opacity="0"></path>
                    <path d="M28.8369565,19.7445652 C28.6847826,20.4673913 28.4184783,21.1902174 28.1141304,21.875 L29.6358696,22.5217391 C29.9402174,21.7228261 30.2065217,20.8858696 30.3586957,20.048913 C30.4347826,19.5923913 30.4728261,19.1358696 30.5108696,18.6793478 L28.9891304,18.5271739 C28.9891304,18.9456522 28.9130435,19.3641304 28.8369565,19.7445652 Z" id="Shape" fill="#FFFFFF" opacity="0"></path>
                    <path d="M25.7554348,9.16847826 L26.5923913,8.29347826 C25.9836957,7.72282609 25.3369565,7.19021739 24.6521739,6.73369565 C24.2336957,6.4673913 23.8532609,6.27717391 23.4347826,6.04891304 L22.9402174,7 C23.3206522,7.19021739 23.701087,7.41847826 24.0434783,7.64673913 C24.6902174,8.14130435 25.2228261,8.63586957 25.7554348,9.16847826 Z" id="Shape" fill="#FFFFFF" opacity="0"></path>
                    <path d="M15.4836957,16.4347826 C15.3315217,16.7391304 15.2173913,17.1195652 15.2173913,17.5 C15.2173913,18.7554348 16.2445652,19.7826087 17.5,19.7826087 C18.7554348,19.7826087 19.7826087,18.7554348 19.7826087,17.5 C19.7826087,16.2445652 18.7554348,15.2173913 17.5,15.2173913 C17.1195652,15.2173913 16.7391304,15.3315217 16.4347826,15.4836957 L10.9184783,10.3858696 L9.20652174,8.78804348 L8.75,8.36956522 L7,6.73369565 L6.84782609,6.58152174 C6.77173913,6.50543478 6.6576087,6.50543478 6.58152174,6.58152174 C6.50543478,6.6576087 6.50543478,6.77173913 6.58152174,6.84782609 L15.4836957,16.4347826 Z M17.5,15.9782609 C18.3369565,15.9782609 19.0217391,16.6630435 19.0217391,17.5 C19.0217391,18.3369565 18.3369565,19.0217391 17.5,19.0217391 C16.6630435,19.0217391 15.9782609,18.3369565 15.9782609,17.5 C15.9782609,16.6630435 16.6630435,15.9782609 17.5,15.9782609 Z" id="Shape" fill="#FFFFFF"></path>
                </g>
            </g>
            <g id="Group" transform="translate(406.000000, 256.000000)">
                <circle id="Oval-3" stroke="#000000" fill="#000000" cx="17.5" cy="17.5" r="17.5"></circle>
                <path d="M8.17934783,9.85326087 C8.44565217,9.54891304 8.71195652,9.2826087 8.97826087,9.01630435 L8.55978261,8.59782609 C8.29347826,8.90217391 7.98913043,9.16847826 7.76086957,9.51086957 C7.22826087,10.1956522 6.77173913,10.9184783 6.35326087,11.7173913 L6.77173913,11.9456522 C7.15217391,11.1847826 7.64673913,10.5 8.17934783,9.85326087 Z" id="Shape" fill="#FFFFFF" opacity="0"></path>
                <path d="M5.47826087,19.8967391 C5.36413043,19.0978261 5.28804348,18.298913 5.28804348,17.5380435 L4.98369565,17.5380435 C4.98369565,18.3369565 5.09782609,19.173913 5.25,19.9728261 C5.36413043,20.4293478 5.47826087,20.8478261 5.63043478,21.2663043 L5.82065217,21.2282609 C5.66847826,20.7336957 5.55434783,20.3152174 5.47826087,19.8967391 Z" id="Shape" fill="#FFFFFF" opacity="0"></path>
                <path d="M5.36413043,16.3206522 C5.51630435,15.1413043 5.82065217,14 6.27717391,12.8967391 L5.85869565,12.7065217 C5.44021739,13.8478261 5.13586957,15.0652174 5.02173913,16.2826087 L5.02173913,16.3967391 L5.36413043,16.4347826 C5.36413043,16.3967391 5.36413043,16.3586957 5.36413043,16.3206522 Z" id="Shape" fill="#FFFFFF" opacity="0"></path>
                <path d="M6.16304348,22.2173913 L6.01086957,22.2934783 C6.16304348,22.673913 6.35326087,23.0163043 6.54347826,23.3586957 C6.96195652,24.1195652 7.45652174,24.8043478 8.02717391,25.451087 L8.06521739,25.4130435 C7.5326087,24.7663043 7.07608696,24.0434783 6.6576087,23.3206522 C6.4673913,22.9402174 6.31521739,22.5978261 6.16304348,22.2173913 Z" id="Shape" fill="#FFFFFF" opacity="0"></path>
                <path d="M14.0380435,6.04891304 C15.1413043,5.74456522 16.3206522,5.5923913 17.4619565,5.5923913 L17.4619565,4.67934783 C16.2065217,4.7173913 14.9891304,4.9076087 13.8097826,5.28804348 C13.7717391,5.28804348 13.7336957,5.32608696 13.6956522,5.32608696 L13.923913,6.08695652 C13.9619565,6.08695652 14,6.04891304 14.0380435,6.04891304 Z" id="Shape" fill="#FFFFFF" opacity="0"></path>
                <path d="M10.8043478,7.49456522 C11.451087,7.07608696 12.1358696,6.73369565 12.8586957,6.42934783 L12.5543478,5.74456522 C11.7934783,6.08695652 11.0706522,6.4673913 10.3858696,6.92391304 C10.0054348,7.19021739 9.66304348,7.49456522 9.32065217,7.79891304 L9.73913043,8.29347826 C10.1195652,7.98913043 10.4619565,7.76086957 10.8043478,7.49456522 Z" id="Shape" fill="#FFFFFF" opacity="0"></path>
                <path d="M25.7554348,9.16847826 L26.5923913,8.29347826 C25.9836957,7.72282609 25.3369565,7.19021739 24.6521739,6.73369565 C24.2336957,6.4673913 23.8532609,6.27717391 23.4347826,6.04891304 L22.9402174,7 C23.3206522,7.19021739 23.701087,7.41847826 24.0434783,7.64673913 C24.6902174,8.14130435 25.2228261,8.63586957 25.7554348,9.16847826 Z" id="Shape" fill="#FFFFFF" opacity="0"></path>
                <path d="M29.0652174,16.3586957 C29.1032609,16.7391304 29.1032609,17.0815217 29.1032609,17.4619565 L30.625,17.4619565 C30.625,17.0434783 30.5869565,16.625 30.548913,16.2065217 C30.4347826,15.2934783 30.2445652,14.4184783 29.9402174,13.5434783 L28.6086957,13.9619565 C28.8369565,14.7608696 28.9891304,15.5597826 29.0652174,16.3586957 Z" id="Shape" fill="#FFFFFF" opacity="0"></path>
                <path d="M15.2173913,17.5 C15.2173913,18.7554348 16.2445652,19.7826087 17.5,19.7826087 C17.8804348,19.7826087 18.2608696,19.6684783 18.5652174,19.5163043 L24.0815217,24.6141304 L28,28.2663043 L28.1521739,28.4184783 C28.1902174,28.4565217 28.2282609,28.4565217 28.2663043,28.4565217 C28.3043478,28.4565217 28.3804348,28.4565217 28.4184783,28.4184783 C28.4945652,28.3423913 28.4945652,28.2282609 28.4184783,28.1521739 L19.5163043,18.5652174 C19.6684783,18.2608696 19.7826087,17.8804348 19.7826087,17.5 C19.7826087,16.2445652 18.7554348,15.2173913 17.5,15.2173913 C16.2445652,15.2173913 15.2173913,16.2445652 15.2173913,17.5 Z M17.5,15.9782609 C18.3369565,15.9782609 19.0217391,16.6630435 19.0217391,17.5 C19.0217391,18.3369565 18.3369565,19.0217391 17.5,19.0217391 C16.6630435,19.0217391 15.9782609,18.3369565 15.9782609,17.5 C15.9782609,16.6630435 16.6630435,15.9782609 17.5,15.9782609 Z" id="Shape" fill="#FFFFFF"></path>
                <path d="M28.8369565,19.7445652 C28.6847826,20.4673913 28.4184783,21.1902174 28.1141304,21.875 L29.6358696,22.5217391 C29.9402174,21.7228261 30.2065217,20.8858696 30.3586957,20.048913 C30.4347826,19.5923913 30.4728261,19.1358696 30.5108696,18.6793478 L28.9891304,18.5271739 C28.9891304,18.9456522 28.9130435,19.3641304 28.8369565,19.7445652 Z" id="Shape" fill="#FFFFFF" opacity="0"></path>
                <path d="M21.9891304,6.54347826 L22.4076087,5.55434783 C22.0271739,5.40217391 21.6467391,5.25 21.2663043,5.13586957 C20.3913043,4.9076087 19.5163043,4.75543478 18.6413043,4.67934783 L18.5652174,5.63043478 C19.3641304,5.70652174 20.201087,5.89673913 20.9619565,6.125 C21.3043478,6.27717391 21.6467391,6.42934783 21.9891304,6.54347826 Z" id="Shape" fill="#FFFFFF" opacity="0"></path>
                <path d="M26.5923913,10.0434783 C27.2771739,10.9565217 27.8858696,11.9076087 28.3043478,12.9728261 L29.5597826,12.4402174 C29.0652174,11.298913 28.3804348,10.2336957 27.5815217,9.24456522 C27.5434783,9.20652174 27.5054348,9.16847826 27.4673913,9.13043478 L26.5163043,9.92934783 C26.5163043,10.0054348 26.5543478,10.0054348 26.5923913,10.0434783 Z" id="Shape" fill="#FFFFFF" opacity="0"></path>
            </g>
            <g id="noun_1129481_cc" transform="translate(405.000000, 317.000000)">
                <g id="Group">
                    <circle id="Oval-3" stroke="#000000" fill="#000000" cx="17.5" cy="17.5" r="17.5"></circle>
                    <path d="M14.0380435,6.04891304 C15.1413043,5.74456522 16.3206522,5.5923913 17.4619565,5.5923913 L17.4619565,4.67934783 C16.2065217,4.7173913 14.9891304,4.9076087 13.8097826,5.28804348 C13.7717391,5.28804348 13.7336957,5.32608696 13.6956522,5.32608696 L13.923913,6.08695652 C13.9619565,6.08695652 14,6.04891304 14.0380435,6.04891304 Z" id="Shape" fill="#FFFFFF" opacity="0"></path>
                    <path d="M8.17934783,9.85326087 C8.44565217,9.54891304 8.71195652,9.2826087 8.97826087,9.01630435 L8.55978261,8.59782609 C8.29347826,8.90217391 7.98913043,9.16847826 7.76086957,9.51086957 C7.22826087,10.1956522 6.77173913,10.9184783 6.35326087,11.7173913 L6.77173913,11.9456522 C7.15217391,11.1847826 7.64673913,10.5 8.17934783,9.85326087 Z" id="Shape" fill="#FFFFFF" opacity="0"></path>
                    <path d="M27.4293478,9.16847826 L26.4782609,9.9673913 C26.5163043,10.0054348 26.5543478,10.0434783 26.5543478,10.0815217 C27.2391304,10.9945652 27.8478261,11.9456522 28.2663043,13.0108696 L29.5217391,12.4782609 C29.0271739,11.3369565 28.3423913,10.2717391 27.5434783,9.2826087 C27.5054348,9.20652174 27.4673913,9.20652174 27.4293478,9.16847826 Z" id="Shape" fill="#FFFFFF" opacity="0"></path>
                    <path d="M6.16304348,22.2173913 L6.01086957,22.2934783 C6.16304348,22.673913 6.35326087,23.0163043 6.54347826,23.3586957 C6.96195652,24.1195652 7.45652174,24.8043478 8.02717391,25.451087 L8.06521739,25.4130435 C7.5326087,24.7663043 7.07608696,24.0434783 6.6576087,23.3206522 C6.4673913,22.9402174 6.31521739,22.5978261 6.16304348,22.2173913 Z" id="Shape" fill="#FFFFFF" opacity="0"></path>
                    <path d="M10.8043478,7.49456522 C11.451087,7.07608696 12.1358696,6.73369565 12.8586957,6.42934783 L12.5543478,5.74456522 C11.7934783,6.08695652 11.0706522,6.4673913 10.3858696,6.92391304 C10.0054348,7.19021739 9.66304348,7.49456522 9.32065217,7.79891304 L9.73913043,8.29347826 C10.1195652,7.98913043 10.4619565,7.76086957 10.8043478,7.49456522 Z" id="Shape" fill="#FFFFFF" opacity="0"></path>
                    <path d="M29.0652174,16.3586957 C29.1032609,16.7391304 29.1032609,17.0815217 29.1032609,17.4619565 L30.625,17.4619565 C30.625,17.0434783 30.5869565,16.625 30.548913,16.2065217 C30.4347826,15.2934783 30.2445652,14.4184783 29.9402174,13.5434783 L28.6086957,13.9619565 C28.8369565,14.7608696 28.9891304,15.5597826 29.0652174,16.3586957 Z" id="Shape" fill="#FFFFFF" opacity="0"></path>
                    <path d="M5.47826087,19.8967391 C5.36413043,19.0978261 5.28804348,18.298913 5.28804348,17.5380435 L4.98369565,17.5380435 C4.98369565,18.3369565 5.09782609,19.173913 5.25,19.9728261 C5.36413043,20.4293478 5.47826087,20.8478261 5.63043478,21.2663043 L5.82065217,21.2282609 C5.66847826,20.7336957 5.55434783,20.3152174 5.47826087,19.8967391 Z" id="Shape" fill="#FFFFFF" opacity="0"></path>
                    <path d="M28.8369565,19.7445652 C28.6847826,20.4673913 28.4184783,21.1902174 28.1141304,21.875 L29.6358696,22.5217391 C29.9402174,21.7228261 30.2065217,20.8858696 30.3586957,20.048913 C30.4347826,19.5923913 30.4728261,19.1358696 30.5108696,18.6793478 L28.9891304,18.5271739 C28.9891304,18.9456522 28.9130435,19.3641304 28.8369565,19.7445652 Z" id="Shape" fill="#FFFFFF" opacity="0"></path>
                    <path d="M21.9891304,6.54347826 L22.4076087,5.55434783 C22.0271739,5.40217391 21.6467391,5.25 21.2663043,5.13586957 C20.3913043,4.9076087 19.5163043,4.75543478 18.6413043,4.67934783 L18.5652174,5.63043478 C19.3641304,5.70652174 20.201087,5.89673913 20.9619565,6.125 C21.3043478,6.27717391 21.6467391,6.42934783 21.9891304,6.54347826 Z" id="Shape" fill="#FFFFFF" opacity="0"></path>
                    <path d="M27.6576087,22.9402174 C27.0869565,23.9293478 26.4021739,24.8043478 25.6032609,25.6032609 L25.6032609,25.6032609 L26.8967391,26.8967391 L26.8967391,26.8967391 C27.7717391,25.9456522 28.5706522,24.8804348 29.1793478,23.7391304 C29.1793478,23.701087 29.2173913,23.6630435 29.2173913,23.6630435 L27.6956522,22.826087 C27.6956522,22.8641304 27.6576087,22.9021739 27.6576087,22.9402174 Z" id="Shape" fill="#FFFFFF" opacity="0"></path>
                    <path d="M5.36413043,16.3206522 C5.51630435,15.1413043 5.82065217,14 6.27717391,12.8967391 L5.85869565,12.7065217 C5.44021739,13.8478261 5.13586957,15.0652174 5.02173913,16.2826087 L5.02173913,16.3967391 L5.36413043,16.4347826 C5.36413043,16.3967391 5.36413043,16.3586957 5.36413043,16.3206522 Z" id="Shape" fill="#FFFFFF" opacity="0"></path>
                    <path d="M15.2173913,17.5 C15.2173913,18.7554348 16.2445652,19.7826087 17.5,19.7826087 C18.7554348,19.7826087 19.7826087,18.7554348 19.7826087,17.5 C19.7826087,17.1195652 19.6684783,16.7391304 19.5163043,16.4347826 L24.6141304,10.9184783 L26.0217391,9.39673913 L26.8586957,8.48369565 L28.2663043,6.96195652 L28.4184783,6.80978261 C28.4945652,6.73369565 28.4945652,6.61956522 28.4184783,6.54347826 C28.3423913,6.4673913 28.2282609,6.4673913 28.1521739,6.54347826 L18.5652174,15.4836957 C18.2608696,15.3315217 17.8804348,15.2173913 17.5,15.2173913 C16.2445652,15.2173913 15.2173913,16.2445652 15.2173913,17.5 Z M17.5,15.9782609 C18.3369565,15.9782609 19.0217391,16.6630435 19.0217391,17.5 C19.0217391,18.3369565 18.3369565,19.0217391 17.5,19.0217391 C16.6630435,19.0217391 15.9782609,18.3369565 15.9782609,17.5 C15.9782609,16.6630435 16.6630435,15.9782609 17.5,15.9782609 Z" id="Shape" fill="#FFFFFF"></path>
                </g>
            </g>
            <text id="+" font-family="Futura-Medium, Futura" font-size="40" font-weight="400" fill="#FFFFFF">
                <tspan x="555" y="289">+</tspan>
            </text>
        </g>
    </g>
</svg>