<?xml version="1.0" encoding="utf-8"?>
<!-- Generator: Adobe Illustrator 14.0.0, SVG Export Plug-In . SVG Version: 6.00 Build 43363)  -->
<!DOCTYPE svg PUBLIC "-//W3C//DTD SVG 1.1//EN" "http://www.w3.org/Graphics/SVG/1.1/DTD/svg11.dtd">
<svg version="1.1" id="レイヤー_1" xmlns="http://www.w3.org/2000/svg" xmlns:xlink="http://www.w3.org/1999/xlink" x="0px"
	 y="0px" width="632px" height="414px" viewBox="0 0 632 414" enable-background="new 0 0 632 414" xml:space="preserve">
<rect x="-111.5" y="-121.5" fill="#FFFFFF" width="1024" height="768"/>
<g>
	<defs>
		<rect id="SVGID_1_" x="-111.5" y="-121.5" width="1024" height="768"/>
	</defs>
	<clipPath id="SVGID_2_">
		<use xlink:href="#SVGID_1_"  overflow="visible"/>
	</clipPath>
	<rect x="-111.5" y="-121.5" clip-path="url(#SVGID_2_)" fill="#FFFFFF" width="1024" height="768"/>
	<polyline clip-path="url(#SVGID_2_)" fill="none" stroke="#000000" stroke-width="2" points="284.5,9.5 284.5,322.5 592.5,322.5 	
		"/>
	<path clip-path="url(#SVGID_2_)" fill="none" stroke="#000000" stroke-width="3" d="M592.084,10.437
		C376.708,9.831,283.855,98.896,286.109,321.626"/>
	<circle clip-path="url(#SVGID_2_)" fill="#FFFFFF" cx="373.661" cy="69.661" r="10.161"/>
	<circle clip-path="url(#SVGID_2_)" fill="none" stroke="#000000" stroke-width="2" cx="373.661" cy="69.661" r="10.161"/>
	<circle clip-path="url(#SVGID_2_)" fill="#FFFFFF" cx="438.053" cy="32.661" r="10.161"/>
	<circle clip-path="url(#SVGID_2_)" fill="none" stroke="#000000" stroke-width="2" cx="438.053" cy="32.661" r="10.161"/>
	<circle clip-path="url(#SVGID_2_)" fill="#FFFFFF" cx="322.566" cy="128.374" r="10.161"/>
	<circle clip-path="url(#SVGID_2_)" fill="none" stroke="#000000" stroke-width="2" cx="322.566" cy="128.374" r="10.161"/>
	<g clip-path="url(#SVGID_2_)">
		<path d="M302.735,115.584l6.509-16.56h1.771l6.348,16.56h-1.61l-1.909-5.198H306.3l-1.955,5.198H302.735z M306.829,109.052h6.486
			l-3.243-8.693L306.829,109.052z"/>
	</g>
	<g clip-path="url(#SVGID_2_)">
		<path d="M355.347,59.71V43.15h5.98c0.966,0,1.794,0.1,2.484,0.299s1.253,0.482,1.69,0.851s0.755,0.81,0.955,1.322
			c0.199,0.515,0.299,1.078,0.299,1.69c0,0.583-0.077,1.085-0.23,1.507s-0.353,0.774-0.598,1.059
			c-0.245,0.283-0.525,0.506-0.839,0.667c-0.314,0.16-0.641,0.271-0.978,0.333v0.046c1.15,0.169,2.004,0.621,2.564,1.357
			c0.56,0.735,0.839,1.655,0.839,2.76c0,0.858-0.134,1.587-0.402,2.185c-0.269,0.599-0.64,1.081-1.115,1.449
			c-0.476,0.368-1.047,0.633-1.714,0.794s-1.391,0.241-2.173,0.241H355.347z M356.911,50.464h3.956c0.812,0,1.495-0.069,2.047-0.207
			c0.552-0.138,0.997-0.341,1.334-0.609c0.337-0.269,0.579-0.598,0.724-0.989c0.146-0.391,0.219-0.839,0.219-1.346
			c0-0.521-0.084-0.962-0.253-1.322c-0.169-0.36-0.437-0.651-0.805-0.874c-0.368-0.222-0.847-0.383-1.438-0.482
			s-1.315-0.149-2.173-0.149h-3.611V50.464z M356.911,58.376h3.979c0.859,0,1.606-0.038,2.243-0.115
			c0.636-0.076,1.162-0.233,1.576-0.472c0.414-0.237,0.725-0.574,0.931-1.012c0.207-0.437,0.311-1.016,0.311-1.736
			c0-0.69-0.115-1.246-0.345-1.668c-0.23-0.421-0.56-0.747-0.989-0.978c-0.429-0.229-0.943-0.387-1.541-0.471
			c-0.598-0.084-1.265-0.127-2.001-0.127h-4.163V58.376z"/>
	</g>
	<g clip-path="url(#SVGID_2_)">
		<path d="M427.086,9.723c-0.322-1.41-0.92-2.415-1.795-3.013c-0.873-0.599-2.016-0.897-3.426-0.897
			c-0.998,0-1.855,0.199-2.576,0.598c-0.721,0.399-1.315,0.936-1.783,1.61s-0.812,1.453-1.035,2.335s-0.333,1.813-0.333,2.794
			c0,0.92,0.096,1.825,0.288,2.714c0.191,0.89,0.51,1.684,0.954,2.381c0.444,0.698,1.042,1.262,1.794,1.69
			c0.751,0.43,1.693,0.644,2.829,0.644c0.705,0,1.349-0.114,1.932-0.345c0.583-0.229,1.093-0.548,1.53-0.954
			c0.437-0.406,0.805-0.886,1.104-1.438s0.525-1.158,0.678-1.817h1.634c-0.185,0.798-0.452,1.553-0.806,2.266
			c-0.353,0.713-0.816,1.338-1.391,1.875c-0.575,0.536-1.273,0.962-2.094,1.276c-0.82,0.313-1.782,0.471-2.887,0.471
			c-1.272,0-2.361-0.233-3.266-0.701s-1.645-1.1-2.219-1.897c-0.576-0.797-0.994-1.721-1.254-2.771
			c-0.262-1.05-0.391-2.165-0.391-3.347c0-1.579,0.195-2.921,0.586-4.024c0.391-1.104,0.932-2.005,1.621-2.703
			c0.69-0.697,1.503-1.203,2.438-1.518c0.935-0.314,1.955-0.472,3.06-0.472c0.842,0,1.629,0.111,2.357,0.334
			c0.728,0.222,1.371,0.556,1.932,1c0.56,0.445,1.02,0.993,1.38,1.645c0.36,0.652,0.609,1.407,0.747,2.266H427.086z"/>
	</g>
	<g clip-path="url(#SVGID_2_)">
		<path d="M298.305,354.511h-1.38v-16.606h1.38v2.093h0.046c0.199-0.383,0.456-0.728,0.771-1.035
			c0.314-0.306,0.659-0.56,1.035-0.759c0.375-0.199,0.763-0.353,1.162-0.46c0.398-0.106,0.79-0.161,1.173-0.161
			c0.966,0,1.786,0.161,2.461,0.483c0.674,0.322,1.23,0.763,1.667,1.322c0.437,0.561,0.755,1.223,0.954,1.989
			c0.199,0.768,0.299,1.588,0.299,2.461c0,0.828-0.107,1.626-0.322,2.393s-0.541,1.438-0.978,2.013
			c-0.437,0.574-0.989,1.035-1.656,1.38s-1.453,0.518-2.357,0.518c-0.844,0-1.652-0.188-2.427-0.563
			c-0.774-0.376-1.384-0.932-1.829-1.668V354.511z M298.305,343.907c0,0.675,0.092,1.315,0.276,1.921s0.448,1.135,0.793,1.587
			c0.345,0.452,0.767,0.812,1.265,1.081c0.498,0.269,1.062,0.402,1.69,0.402c0.705,0,1.322-0.142,1.852-0.426
			c0.529-0.283,0.962-0.67,1.299-1.161c0.337-0.49,0.583-1.062,0.736-1.714c0.153-0.651,0.215-1.353,0.184-2.104
			c0-0.751-0.104-1.414-0.311-1.989s-0.495-1.062-0.862-1.461c-0.368-0.398-0.797-0.701-1.288-0.908s-1.027-0.311-1.61-0.311
			c-0.644,0-1.219,0.131-1.725,0.392s-0.928,0.617-1.265,1.069s-0.594,0.988-0.771,1.609S298.305,343.187,298.305,343.907z"/>
		<path d="M315.532,332.821c-1.104,1.595-1.967,3.301-2.587,5.117c-0.621,1.817-0.932,3.7-0.932,5.646
			c0,1.917,0.322,3.772,0.966,5.566s1.495,3.48,2.553,5.06h-1.173c-0.629-0.874-1.188-1.721-1.679-2.541s-0.905-1.656-1.242-2.507
			c-0.337-0.852-0.59-1.74-0.759-2.668c-0.169-0.928-0.253-1.936-0.253-3.024c0-1.059,0.088-2.051,0.264-2.979
			s0.433-1.821,0.771-2.68s0.748-1.698,1.23-2.519c0.483-0.82,1.039-1.645,1.668-2.473H315.532z"/>
		<path d="M318.522,349.818v-16.56h10.672v1.334h-9.108v5.979h8.28v1.334h-8.28v7.912H318.522z"/>
		<path d="M336.738,342.872c0.261-0.03,0.571-0.076,0.932-0.138c0.36-0.062,0.655-0.146,0.885-0.253s0.372-0.287,0.426-0.541
			c0.054-0.253,0.081-0.486,0.081-0.701c0-0.705-0.227-1.284-0.679-1.736s-1.215-0.679-2.289-0.679
			c-0.475,0-0.912,0.043-1.311,0.127s-0.747,0.229-1.046,0.437c-0.299,0.207-0.544,0.483-0.736,0.828
			c-0.192,0.345-0.318,0.778-0.379,1.3h-1.403c0.046-0.705,0.207-1.308,0.483-1.806c0.276-0.498,0.633-0.904,1.07-1.219
			s0.943-0.545,1.518-0.69c0.575-0.146,1.185-0.219,1.828-0.219c0.598,0,1.162,0.065,1.691,0.196c0.529,0.13,0.989,0.337,1.38,0.62
			c0.391,0.284,0.697,0.664,0.92,1.139c0.222,0.476,0.333,1.059,0.333,1.748v6.486c0,0.537,0.096,0.878,0.288,1.023
			c0.191,0.146,0.579,0.111,1.162-0.104v1.081c-0.108,0.031-0.265,0.076-0.472,0.138s-0.411,0.092-0.609,0.092
			c-0.215,0-0.422-0.022-0.621-0.068c-0.23-0.031-0.414-0.104-0.552-0.219c-0.138-0.115-0.249-0.253-0.333-0.414
			s-0.142-0.337-0.172-0.529c-0.031-0.191-0.046-0.395-0.046-0.609c-0.583,0.645-1.25,1.135-2.001,1.473
			c-0.751,0.337-1.564,0.506-2.438,0.506c-0.521,0-1.023-0.069-1.507-0.207c-0.483-0.139-0.908-0.353-1.276-0.645
			c-0.368-0.291-0.659-0.647-0.874-1.069s-0.322-0.924-0.322-1.507c0-2.023,1.387-3.22,4.163-3.588L336.738,342.872z
			 M339.061,343.562c-0.583,0.245-1.173,0.406-1.771,0.482c-0.598,0.077-1.196,0.139-1.794,0.185
			c-1.058,0.077-1.883,0.314-2.473,0.713c-0.59,0.398-0.886,1.005-0.886,1.817c0,0.367,0.073,0.686,0.219,0.954
			c0.146,0.269,0.337,0.491,0.575,0.667c0.237,0.177,0.513,0.307,0.828,0.391c0.314,0.085,0.633,0.127,0.955,0.127
			c0.552,0,1.088-0.069,1.61-0.207s0.985-0.349,1.392-0.633c0.406-0.283,0.732-0.644,0.978-1.081
			c0.245-0.437,0.368-0.954,0.368-1.552V343.562z"/>
		<path d="M344.259,349.818v-16.56h1.38v16.56H344.259z"/>
		<path d="M349.962,346.093c0.215,1.027,0.602,1.752,1.162,2.173c0.56,0.422,1.36,0.633,2.403,0.633
			c0.506,0,0.943-0.062,1.311-0.184c0.368-0.123,0.671-0.288,0.909-0.495c0.237-0.207,0.417-0.44,0.541-0.701
			c0.123-0.261,0.184-0.537,0.184-0.828c0-0.583-0.188-1.016-0.563-1.3c-0.376-0.283-0.848-0.506-1.415-0.667
			c-0.568-0.161-1.181-0.299-1.84-0.414c-0.659-0.114-1.273-0.287-1.84-0.518c-0.567-0.229-1.039-0.56-1.415-0.988
			c-0.376-0.43-0.563-1.035-0.563-1.817c0-0.996,0.364-1.813,1.092-2.449c0.729-0.637,1.76-0.955,3.094-0.955
			c1.288,0,2.334,0.288,3.14,0.863c0.805,0.574,1.292,1.537,1.46,2.886h-1.403c-0.123-0.92-0.471-1.567-1.046-1.943
			c-0.575-0.375-1.299-0.563-2.173-0.563s-1.541,0.188-2.001,0.563c-0.46,0.376-0.69,0.87-0.69,1.483
			c0,0.537,0.188,0.947,0.563,1.23c0.375,0.284,0.847,0.515,1.415,0.69c0.567,0.177,1.18,0.333,1.84,0.472
			c0.659,0.138,1.272,0.333,1.84,0.586s1.039,0.595,1.415,1.023c0.375,0.43,0.563,1.027,0.563,1.794c0,0.567-0.123,1.07-0.368,1.507
			c-0.246,0.438-0.583,0.802-1.012,1.093c-0.43,0.291-0.939,0.51-1.529,0.655c-0.591,0.146-1.239,0.219-1.944,0.219
			s-1.33-0.104-1.875-0.311s-1.008-0.495-1.391-0.862c-0.384-0.368-0.683-0.798-0.897-1.288c-0.215-0.491-0.337-1.02-0.368-1.587
			H349.962z"/>
		<path d="M361.508,344.184c0,0.644,0.084,1.253,0.253,1.828c0.169,0.575,0.418,1.073,0.748,1.495s0.748,0.759,1.254,1.012
			c0.506,0.253,1.088,0.38,1.748,0.38c0.905,0,1.679-0.237,2.323-0.713s1.073-1.15,1.288-2.024h1.541
			c-0.169,0.567-0.391,1.093-0.667,1.576c-0.276,0.482-0.621,0.904-1.035,1.265s-0.905,0.641-1.472,0.84
			c-0.567,0.198-1.227,0.299-1.978,0.299c-0.951,0-1.771-0.161-2.461-0.483s-1.257-0.763-1.702-1.322
			c-0.445-0.56-0.774-1.219-0.989-1.979c-0.215-0.759-0.322-1.575-0.322-2.449s0.126-1.694,0.379-2.461s0.613-1.438,1.081-2.013
			c0.467-0.575,1.039-1.026,1.713-1.356s1.441-0.495,2.3-0.495c1.641,0,2.929,0.563,3.864,1.69c0.935,1.127,1.395,2.765,1.38,4.911
			H361.508z M369.282,343.033c0-0.582-0.08-1.131-0.241-1.645s-0.399-0.958-0.713-1.334c-0.314-0.375-0.709-0.675-1.185-0.896
			c-0.476-0.223-1.02-0.334-1.633-0.334s-1.154,0.115-1.621,0.345c-0.468,0.23-0.867,0.537-1.196,0.921
			c-0.33,0.383-0.594,0.827-0.793,1.334c-0.199,0.506-0.33,1.042-0.391,1.609H369.282z"/>
		<path d="M379.978,349.818v-16.56h6.049c1.073,0,1.959,0.122,2.657,0.367c0.698,0.246,1.25,0.583,1.656,1.013
			c0.406,0.429,0.69,0.924,0.851,1.483c0.161,0.56,0.242,1.146,0.242,1.76c0,0.92-0.188,1.679-0.563,2.276
			c-0.376,0.599-0.863,1.069-1.46,1.415c-0.598,0.345-1.277,0.586-2.036,0.724c-0.759,0.139-1.522,0.207-2.289,0.207h-3.542v7.314
			H379.978z M385.129,341.17c0.736,0,1.396-0.046,1.978-0.138s1.077-0.265,1.484-0.518c0.406-0.253,0.72-0.598,0.943-1.035
			c0.222-0.437,0.333-1.008,0.333-1.713c0-1.043-0.341-1.832-1.023-2.369c-0.683-0.537-1.768-0.805-3.255-0.805h-4.048v6.577
			H385.129z"/>
		<path d="M398.63,350.141c-0.767-0.016-1.483-0.153-2.15-0.414s-1.25-0.651-1.748-1.173c-0.499-0.521-0.894-1.174-1.185-1.955
			c-0.292-0.782-0.437-1.694-0.437-2.737c0-0.874,0.115-1.69,0.345-2.449c0.23-0.759,0.575-1.422,1.035-1.99
			c0.46-0.566,1.035-1.015,1.725-1.345s1.495-0.495,2.415-0.495c0.935,0,1.748,0.165,2.438,0.495
			c0.689,0.33,1.266,0.774,1.725,1.334c0.461,0.56,0.801,1.223,1.023,1.989s0.334,1.587,0.334,2.461c0,0.951-0.131,1.81-0.391,2.576
			c-0.262,0.767-0.633,1.426-1.115,1.978c-0.484,0.553-1.066,0.978-1.749,1.276C400.213,349.991,399.458,350.141,398.63,350.141z
			 M402.678,343.861c0-0.705-0.076-1.364-0.229-1.978s-0.392-1.146-0.713-1.599c-0.322-0.452-0.736-0.809-1.242-1.069
			c-0.506-0.261-1.127-0.392-1.863-0.392c-0.721,0-1.338,0.143-1.852,0.426c-0.514,0.284-0.932,0.659-1.253,1.127
			c-0.322,0.468-0.56,1.004-0.713,1.61c-0.154,0.605-0.23,1.23-0.23,1.874c0,0.736,0.088,1.414,0.264,2.035s0.433,1.154,0.771,1.599
			c0.337,0.445,0.759,0.79,1.265,1.035s1.088,0.368,1.748,0.368c0.721,0,1.337-0.142,1.852-0.426
			c0.514-0.283,0.931-0.663,1.253-1.139c0.321-0.475,0.56-1.012,0.713-1.609C402.602,345.126,402.678,344.505,402.678,343.861z"/>
		<path d="M407.485,346.093c0.215,1.027,0.602,1.752,1.161,2.173c0.561,0.422,1.361,0.633,2.404,0.633
			c0.506,0,0.943-0.062,1.311-0.184c0.368-0.123,0.671-0.288,0.908-0.495c0.238-0.207,0.418-0.44,0.541-0.701
			s0.184-0.537,0.184-0.828c0-0.583-0.188-1.016-0.562-1.3c-0.377-0.283-0.848-0.506-1.415-0.667s-1.181-0.299-1.841-0.414
			c-0.658-0.114-1.272-0.287-1.84-0.518c-0.566-0.229-1.039-0.56-1.414-0.988c-0.376-0.43-0.563-1.035-0.563-1.817
			c0-0.996,0.364-1.813,1.093-2.449c0.729-0.637,1.76-0.955,3.094-0.955c1.287,0,2.334,0.288,3.139,0.863
			c0.805,0.574,1.292,1.537,1.461,2.886h-1.403c-0.122-0.92-0.472-1.567-1.046-1.943c-0.575-0.375-1.3-0.563-2.174-0.563
			s-1.541,0.188-2.001,0.563c-0.46,0.376-0.69,0.87-0.69,1.483c0,0.537,0.188,0.947,0.564,1.23c0.375,0.284,0.846,0.515,1.414,0.69
			c0.566,0.177,1.18,0.333,1.84,0.472c0.659,0.138,1.272,0.333,1.84,0.586s1.039,0.595,1.414,1.023
			c0.376,0.43,0.564,1.027,0.564,1.794c0,0.567-0.123,1.07-0.368,1.507c-0.245,0.438-0.583,0.802-1.013,1.093
			s-0.939,0.51-1.529,0.655s-1.238,0.219-1.943,0.219s-1.33-0.104-1.875-0.311c-0.544-0.207-1.008-0.495-1.391-0.862
			c-0.384-0.368-0.683-0.798-0.897-1.288c-0.215-0.491-0.337-1.02-0.368-1.587H407.485z"/>
		<path d="M418.318,335.306v-2.047h1.518v2.047H418.318z M418.387,349.818v-11.914h1.381v11.914H418.387z"/>
		<path d="M427.473,349.864c-0.17,0.03-0.391,0.084-0.668,0.161c-0.275,0.076-0.582,0.115-0.92,0.115
			c-0.689,0-1.215-0.173-1.574-0.518c-0.361-0.345-0.541-0.962-0.541-1.852v-8.717h-1.68v-1.15h1.68v-3.312h1.38v3.312h2.231v1.15
			h-2.231v8.165c0,0.291,0.007,0.544,0.022,0.759s0.062,0.391,0.139,0.529c0.076,0.138,0.195,0.237,0.356,0.299
			s0.387,0.092,0.679,0.092c0.184,0,0.371-0.016,0.562-0.046c0.192-0.03,0.381-0.069,0.564-0.115V349.864z"/>
		<path d="M429.818,335.306v-2.047h1.518v2.047H429.818z M429.887,349.818v-11.914h1.381v11.914H429.887z"/>
		<path d="M433.521,337.904h1.494l3.864,10.212l3.864-10.212h1.494l-4.623,11.914h-1.541L433.521,337.904z"/>
		<path d="M447.137,344.184c0,0.644,0.084,1.253,0.253,1.828s0.418,1.073,0.747,1.495c0.33,0.422,0.748,0.759,1.254,1.012
			s1.089,0.38,1.748,0.38c0.904,0,1.68-0.237,2.323-0.713s1.073-1.15,1.288-2.024h1.541c-0.169,0.567-0.391,1.093-0.667,1.576
			c-0.276,0.482-0.621,0.904-1.035,1.265s-0.905,0.641-1.472,0.84c-0.568,0.198-1.227,0.299-1.979,0.299
			c-0.951,0-1.771-0.161-2.461-0.483s-1.258-0.763-1.701-1.322c-0.445-0.56-0.775-1.219-0.99-1.979
			c-0.215-0.759-0.321-1.575-0.321-2.449s0.126-1.694,0.38-2.461c0.252-0.767,0.613-1.438,1.08-2.013
			c0.468-0.575,1.039-1.026,1.714-1.356s1.44-0.495,2.3-0.495c1.641,0,2.929,0.563,3.864,1.69c0.935,1.127,1.396,2.765,1.38,4.911
			H447.137z M454.91,343.033c0-0.582-0.08-1.131-0.24-1.645c-0.162-0.514-0.399-0.958-0.713-1.334
			c-0.314-0.375-0.71-0.675-1.186-0.896c-0.475-0.223-1.02-0.334-1.633-0.334s-1.154,0.115-1.621,0.345
			c-0.469,0.23-0.867,0.537-1.196,0.921c-0.329,0.383-0.595,0.827-0.794,1.334c-0.199,0.506-0.33,1.042-0.391,1.609H454.91z"/>
		<path d="M459.879,346.093c0.215,1.027,0.602,1.752,1.162,2.173c0.559,0.422,1.359,0.633,2.402,0.633
			c0.507,0,0.943-0.062,1.312-0.184c0.368-0.123,0.671-0.288,0.909-0.495c0.236-0.207,0.417-0.44,0.54-0.701
			c0.122-0.261,0.185-0.537,0.185-0.828c0-0.583-0.188-1.016-0.564-1.3c-0.375-0.283-0.848-0.506-1.414-0.667
			c-0.568-0.161-1.182-0.299-1.84-0.414c-0.66-0.114-1.273-0.287-1.84-0.518c-0.568-0.229-1.039-0.56-1.415-0.988
			c-0.376-0.43-0.563-1.035-0.563-1.817c0-0.996,0.364-1.813,1.092-2.449c0.729-0.637,1.76-0.955,3.094-0.955
			c1.289,0,2.335,0.288,3.141,0.863c0.805,0.574,1.291,1.537,1.46,2.886h-1.403c-0.123-0.92-0.471-1.567-1.047-1.943
			c-0.574-0.375-1.299-0.563-2.173-0.563s-1.541,0.188-2.001,0.563c-0.46,0.376-0.689,0.87-0.689,1.483
			c0,0.537,0.188,0.947,0.562,1.23c0.376,0.284,0.848,0.515,1.415,0.69c0.567,0.177,1.181,0.333,1.84,0.472
			c0.659,0.138,1.272,0.333,1.84,0.586s1.038,0.595,1.415,1.023c0.375,0.43,0.562,1.027,0.562,1.794c0,0.567-0.122,1.07-0.367,1.507
			c-0.246,0.438-0.583,0.802-1.012,1.093c-0.43,0.291-0.939,0.51-1.529,0.655c-0.592,0.146-1.239,0.219-1.944,0.219
			s-1.33-0.104-1.874-0.311c-0.545-0.207-1.009-0.495-1.392-0.862c-0.384-0.368-0.683-0.798-0.897-1.288
			c-0.215-0.491-0.338-1.02-0.367-1.587H459.879z"/>
		<path d="M482.441,342.872c0.262-0.03,0.572-0.076,0.932-0.138c0.36-0.062,0.656-0.146,0.886-0.253s0.372-0.287,0.426-0.541
			c0.054-0.253,0.081-0.486,0.081-0.701c0-0.705-0.227-1.284-0.68-1.736c-0.451-0.452-1.215-0.679-2.288-0.679
			c-0.476,0-0.912,0.043-1.312,0.127c-0.398,0.084-0.746,0.229-1.046,0.437c-0.299,0.207-0.544,0.483-0.735,0.828
			c-0.192,0.345-0.318,0.778-0.38,1.3h-1.403c0.046-0.705,0.207-1.308,0.482-1.806c0.277-0.498,0.633-0.904,1.07-1.219
			s0.943-0.545,1.518-0.69c0.575-0.146,1.186-0.219,1.828-0.219c0.599,0,1.162,0.065,1.691,0.196c0.529,0.13,0.988,0.337,1.38,0.62
			c0.392,0.284,0.697,0.664,0.92,1.139c0.222,0.476,0.333,1.059,0.333,1.748v6.486c0,0.537,0.096,0.878,0.288,1.023
			c0.191,0.146,0.579,0.111,1.161-0.104v1.081c-0.107,0.031-0.264,0.076-0.471,0.138s-0.411,0.092-0.609,0.092
			c-0.215,0-0.422-0.022-0.621-0.068c-0.23-0.031-0.414-0.104-0.553-0.219c-0.138-0.115-0.249-0.253-0.334-0.414
			c-0.084-0.161-0.141-0.337-0.172-0.529c-0.031-0.191-0.046-0.395-0.046-0.609c-0.583,0.645-1.25,1.135-2.001,1.473
			c-0.752,0.337-1.564,0.506-2.438,0.506c-0.521,0-1.023-0.069-1.508-0.207c-0.482-0.139-0.908-0.353-1.275-0.645
			c-0.368-0.291-0.66-0.647-0.875-1.069s-0.321-0.924-0.321-1.507c0-2.023,1.388-3.22,4.163-3.588L482.441,342.872z
			 M484.766,343.562c-0.584,0.245-1.174,0.406-1.771,0.482c-0.598,0.077-1.196,0.139-1.794,0.185
			c-1.058,0.077-1.883,0.314-2.473,0.713c-0.591,0.398-0.886,1.005-0.886,1.817c0,0.367,0.072,0.686,0.219,0.954
			c0.146,0.269,0.337,0.491,0.575,0.667c0.237,0.177,0.513,0.307,0.827,0.391c0.314,0.085,0.633,0.127,0.955,0.127
			c0.553,0,1.088-0.069,1.609-0.207s0.986-0.349,1.393-0.633c0.406-0.283,0.731-0.644,0.977-1.081
			c0.246-0.437,0.369-0.954,0.369-1.552V343.562z"/>
		<path d="M491.205,349.818h-1.381v-11.914h1.381v2.231h0.045c0.384-0.951,0.879-1.614,1.484-1.99
			c0.605-0.375,1.406-0.563,2.403-0.563v1.495c-0.782-0.015-1.427,0.107-1.933,0.368s-0.908,0.613-1.207,1.058
			c-0.299,0.445-0.506,0.971-0.621,1.576s-0.172,1.238-0.172,1.897V349.818z"/>
		<path d="M497.875,344.184c0,0.644,0.084,1.253,0.252,1.828c0.17,0.575,0.418,1.073,0.748,1.495s0.748,0.759,1.254,1.012
			s1.088,0.38,1.748,0.38c0.904,0,1.679-0.237,2.322-0.713c0.645-0.476,1.074-1.15,1.289-2.024h1.541
			c-0.17,0.567-0.392,1.093-0.668,1.576c-0.275,0.482-0.621,0.904-1.035,1.265s-0.904,0.641-1.472,0.84
			c-0.567,0.198-1.227,0.299-1.978,0.299c-0.951,0-1.771-0.161-2.461-0.483c-0.69-0.322-1.258-0.763-1.702-1.322
			c-0.445-0.56-0.774-1.219-0.989-1.979c-0.215-0.759-0.322-1.575-0.322-2.449s0.127-1.694,0.38-2.461s0.613-1.438,1.081-2.013
			c0.467-0.575,1.039-1.026,1.713-1.356c0.676-0.33,1.441-0.495,2.301-0.495c1.641,0,2.928,0.563,3.863,1.69
			s1.396,2.765,1.381,4.911H497.875z M505.648,343.033c0-0.582-0.08-1.131-0.241-1.645s-0.399-0.958-0.713-1.334
			c-0.314-0.375-0.71-0.675-1.185-0.896c-0.476-0.223-1.02-0.334-1.633-0.334s-1.154,0.115-1.621,0.345
			c-0.469,0.23-0.867,0.537-1.197,0.921c-0.329,0.383-0.594,0.827-0.793,1.334c-0.199,0.506-0.33,1.042-0.391,1.609H505.648z"/>
		<path d="M515.01,339.055v-1.15h1.771v-1.886c0-0.951,0.191-1.702,0.574-2.254c0.383-0.553,1.035-0.828,1.955-0.828
			c0.215,0,0.414,0.008,0.598,0.022c0.185,0.016,0.369,0.039,0.553,0.069v1.265c-0.307-0.076-0.583-0.114-0.828-0.114
			c-0.354,0-0.629,0.065-0.828,0.195s-0.345,0.303-0.438,0.518c-0.092,0.215-0.148,0.456-0.172,0.725s-0.035,0.54-0.035,0.816v1.472
			h2.301v1.15h-2.301v10.764h-1.379v-10.764H515.01z"/>
		<path d="M527.338,350.141c-0.768-0.016-1.484-0.153-2.15-0.414c-0.668-0.261-1.25-0.651-1.748-1.173
			c-0.499-0.521-0.895-1.174-1.186-1.955c-0.291-0.782-0.437-1.694-0.437-2.737c0-0.874,0.114-1.69,0.345-2.449
			s0.575-1.422,1.035-1.99c0.46-0.566,1.035-1.015,1.725-1.345c0.69-0.33,1.496-0.495,2.416-0.495c0.935,0,1.748,0.165,2.438,0.495
			s1.266,0.774,1.725,1.334c0.461,0.56,0.801,1.223,1.023,1.989s0.334,1.587,0.334,2.461c0,0.951-0.131,1.81-0.391,2.576
			c-0.262,0.767-0.633,1.426-1.115,1.978c-0.484,0.553-1.066,0.978-1.748,1.276C528.92,349.991,528.166,350.141,527.338,350.141z
			 M531.385,343.861c0-0.705-0.076-1.364-0.229-1.978s-0.392-1.146-0.713-1.599c-0.322-0.452-0.735-0.809-1.242-1.069
			c-0.506-0.261-1.127-0.392-1.862-0.392c-0.722,0-1.338,0.143-1.852,0.426c-0.514,0.284-0.932,0.659-1.254,1.127
			s-0.561,1.004-0.713,1.61c-0.154,0.605-0.23,1.23-0.23,1.874c0,0.736,0.088,1.414,0.265,2.035s0.433,1.154,0.771,1.599
			c0.338,0.445,0.76,0.79,1.266,1.035s1.088,0.368,1.748,0.368c0.721,0,1.337-0.142,1.852-0.426
			c0.514-0.283,0.931-0.663,1.253-1.139c0.321-0.475,0.56-1.012,0.713-1.609C531.309,345.126,531.385,344.505,531.385,343.861z"/>
		<path d="M543.461,337.904h1.379v11.914h-1.379v-1.656c-0.185,0.215-0.392,0.438-0.621,0.667c-0.23,0.23-0.495,0.441-0.794,0.633
			s-0.647,0.353-1.046,0.483c-0.399,0.13-0.859,0.195-1.381,0.195c-0.797,0-1.465-0.111-2-0.334
			c-0.537-0.222-0.971-0.532-1.301-0.932c-0.329-0.398-0.566-0.862-0.713-1.392c-0.146-0.528-0.219-1.107-0.219-1.736v-7.843h1.381
			v7.82c0,1.027,0.237,1.813,0.713,2.357c0.475,0.544,1.257,0.816,2.346,0.816c0.567,0,1.077-0.111,1.529-0.334
			c0.453-0.222,0.832-0.532,1.139-0.931c0.307-0.399,0.545-0.874,0.713-1.427c0.169-0.552,0.254-1.157,0.254-1.816V337.904z"/>
		<path d="M549.556,349.818h-1.38v-11.914h1.38v1.656c0.552-0.583,1.123-1.059,1.714-1.426c0.59-0.368,1.299-0.553,2.127-0.553
			c0.736,0,1.418,0.127,2.047,0.38s1.158,0.694,1.588,1.322c0.291,0.43,0.463,0.87,0.517,1.322c0.054,0.453,0.081,0.925,0.081,1.415
			v7.797h-1.381v-7.774c0-1.072-0.237-1.878-0.713-2.415c-0.475-0.536-1.265-0.805-2.369-0.805c-0.429,0-0.82,0.065-1.172,0.195
			c-0.354,0.131-0.672,0.304-0.955,0.518c-0.284,0.215-0.525,0.46-0.725,0.736s-0.354,0.567-0.46,0.874
			c-0.138,0.384-0.223,0.751-0.253,1.104c-0.031,0.354-0.046,0.736-0.046,1.15V349.818z"/>
		<path d="M570.164,333.259h1.379v16.56h-1.379v-2.093h-0.047c-0.199,0.398-0.456,0.747-0.77,1.046
			c-0.314,0.3-0.66,0.549-1.035,0.748c-0.377,0.199-0.764,0.353-1.162,0.46s-0.789,0.161-1.173,0.161
			c-0.966,0-1.786-0.161-2.461-0.483s-1.23-0.763-1.667-1.322c-0.438-0.56-0.756-1.223-0.955-1.989s-0.299-1.587-0.299-2.461
			c0-0.828,0.107-1.626,0.322-2.393s0.54-1.438,0.977-2.013c0.438-0.574,0.99-1.034,1.656-1.38c0.668-0.345,1.453-0.518,2.357-0.518
			c0.844,0,1.652,0.188,2.427,0.563c0.774,0.376,1.384,0.932,1.829,1.668V333.259z M570.164,343.815
			c0-0.675-0.092-1.314-0.276-1.921c-0.185-0.605-0.448-1.134-0.794-1.587c-0.345-0.452-0.767-0.812-1.265-1.081
			c-0.499-0.268-1.062-0.402-1.69-0.402c-0.721,0-1.342,0.143-1.863,0.426c-0.521,0.284-0.951,0.671-1.287,1.161
			c-0.338,0.491-0.584,1.062-0.736,1.714c-0.154,0.651-0.215,1.354-0.185,2.104c0,0.751,0.104,1.414,0.311,1.989
			s0.495,1.062,0.862,1.461c0.368,0.398,0.797,0.701,1.289,0.908c0.49,0.207,1.026,0.311,1.609,0.311
			c0.645,0,1.219-0.13,1.725-0.391s0.928-0.617,1.266-1.07c0.337-0.452,0.594-0.988,0.77-1.609
			C570.075,345.207,570.164,344.536,570.164,343.815z"/>
		<path d="M574.648,354.211c1.104-1.595,1.967-3.3,2.588-5.117c0.621-1.816,0.932-3.699,0.932-5.646
			c0-1.916-0.322-3.771-0.967-5.565c-0.645-1.795-1.494-3.481-2.553-5.061h1.173c0.628,0.874,1.188,1.722,1.679,2.542
			s0.9,1.655,1.23,2.507c0.33,0.851,0.583,1.74,0.76,2.668c0.176,0.928,0.264,1.936,0.264,3.024c0,1.058-0.088,2.051-0.264,2.979
			c-0.177,0.928-0.434,1.82-0.771,2.68c-0.337,0.858-0.751,1.697-1.241,2.519c-0.491,0.819-1.043,1.645-1.656,2.472H574.648z"/>
	</g>
	<g clip-path="url(#SVGID_2_)">
		<path d="M434.225,378.141c-0.768-0.016-1.484-0.153-2.15-0.414c-0.668-0.261-1.25-0.651-1.748-1.173
			c-0.499-0.521-0.895-1.174-1.186-1.955c-0.291-0.782-0.437-1.694-0.437-2.737c0-0.874,0.114-1.69,0.345-2.449
			s0.575-1.422,1.035-1.99c0.46-0.566,1.035-1.015,1.725-1.345c0.69-0.33,1.496-0.495,2.416-0.495c0.935,0,1.748,0.165,2.438,0.495
			s1.266,0.774,1.725,1.334c0.461,0.56,0.801,1.223,1.023,1.989s0.334,1.587,0.334,2.461c0,0.951-0.131,1.81-0.391,2.576
			c-0.262,0.767-0.633,1.426-1.115,1.978c-0.484,0.553-1.066,0.978-1.748,1.276C435.807,377.991,435.053,378.141,434.225,378.141z
			 M438.271,371.861c0-0.705-0.076-1.364-0.229-1.978s-0.392-1.146-0.713-1.599c-0.322-0.452-0.735-0.809-1.242-1.069
			c-0.506-0.261-1.127-0.392-1.862-0.392c-0.722,0-1.338,0.143-1.852,0.426c-0.514,0.284-0.932,0.659-1.254,1.127
			s-0.561,1.004-0.713,1.61c-0.154,0.605-0.23,1.23-0.23,1.874c0,0.736,0.088,1.414,0.265,2.035s0.433,1.154,0.771,1.599
			c0.338,0.445,0.76,0.79,1.266,1.035s1.088,0.368,1.748,0.368c0.721,0,1.337-0.142,1.852-0.426
			c0.514-0.283,0.931-0.663,1.253-1.139c0.321-0.475,0.56-1.012,0.713-1.609C438.195,373.126,438.271,372.505,438.271,371.861z"/>
		<path d="M443.723,377.818h-1.379v-11.914h1.379v2.231h0.047c0.383-0.951,0.877-1.614,1.482-1.99
			c0.606-0.375,1.407-0.563,2.404-0.563v1.495c-0.782-0.015-1.426,0.107-1.932,0.368s-0.909,0.613-1.208,1.058
			c-0.299,0.445-0.506,0.971-0.621,1.576c-0.114,0.605-0.173,1.238-0.173,1.897V377.818z"/>
	</g>
	<g clip-path="url(#SVGID_2_)">
		<path d="M371.9,394.589v-2.179c1.008-0.045,1.714-0.112,2.117-0.202c0.642-0.143,1.165-0.427,1.568-0.854
			c0.276-0.292,0.485-0.682,0.627-1.168c0.082-0.292,0.123-0.509,0.123-0.651h2.673v16.284h-3.279v-11.23H371.9z"/>
		<path d="M383.625,397.891h6.267v3.032h-6.267V397.891z"/>
	</g>
	<g clip-path="url(#SVGID_2_)">
		<path d="M396.091,400.71c-0.052,0.756,0.034,1.321,0.258,1.695c0.419,0.682,1.31,1.021,2.673,1.021c0.816,0,1.498-0.09,2.044-0.27
			c1.04-0.344,1.658-0.984,1.853-1.92c0.12-0.547-0.03-0.97-0.449-1.27c-0.411-0.291-1.108-0.55-2.089-0.774l-1.673-0.394
			c-1.64-0.389-2.74-0.812-3.302-1.269c-0.951-0.764-1.254-1.958-0.91-3.583c0.314-1.482,1.116-2.714,2.403-3.694
			s2.976-1.472,5.065-1.472c1.744,0,3.133,0.463,4.166,1.388s1.393,2.267,1.078,4.026h-3.324c0.157-0.996-0.123-1.704-0.842-2.123
			c-0.479-0.277-1.119-0.416-1.921-0.416c-0.891,0-1.642,0.18-2.251,0.539c-0.61,0.359-0.983,0.861-1.118,1.506
			c-0.127,0.591,0.041,1.033,0.505,1.324c0.292,0.195,0.962,0.424,2.01,0.686l2.706,0.686c1.184,0.299,2.041,0.699,2.572,1.201
			c0.824,0.778,1.078,1.905,0.764,3.381c-0.322,1.512-1.168,2.768-2.538,3.768c-1.37,0.999-3.111,1.499-5.222,1.499
			c-2.156,0-3.747-0.492-4.773-1.477s-1.355-2.338-0.988-4.06H396.091z"/>
		<path d="M420.652,399.542c-0.457,2.156-1.29,3.799-2.5,4.93c-1.209,1.131-2.576,1.695-4.104,1.695c-0.974,0-1.73-0.243-2.27-0.729
			c-0.299-0.27-0.561-0.663-0.785-1.179l-1.359,6.379h-3.167l3.628-17.06h3.065l-0.382,1.808c0.457-0.531,0.914-0.95,1.37-1.258
			c0.823-0.546,1.726-0.819,2.706-0.819c1.431,0,2.529,0.528,3.297,1.583C420.92,395.948,421.086,397.497,420.652,399.542z
			 M415.34,396.104c-1.16,0-2.074,0.551-2.74,1.651c-0.344,0.584-0.613,1.325-0.809,2.224c-0.299,1.423-0.135,2.422,0.494,2.998
			c0.382,0.338,0.88,0.506,1.494,0.506c0.891,0,1.643-0.345,2.257-1.033s1.04-1.605,1.28-2.752c0.202-0.943,0.164-1.777-0.112-2.504
			S416.306,396.104,415.34,396.104z"/>
		<path d="M433.398,395.634c0.33,0.726,0.461,1.568,0.393,2.526c-0.029,0.562-0.164,1.37-0.404,2.426h-8.377
			c-0.218,1.228-0.016,2.089,0.605,2.583c0.375,0.307,0.873,0.461,1.494,0.461c0.658,0,1.235-0.188,1.729-0.562
			c0.263-0.201,0.521-0.482,0.774-0.842h3.269c-0.239,0.727-0.774,1.464-1.606,2.213c-1.303,1.189-2.896,1.785-4.783,1.785
			c-1.558,0-2.825-0.502-3.802-1.505c-0.978-1.003-1.226-2.636-0.747-4.896c0.449-2.119,1.331-3.743,2.645-4.874
			c1.314-1.131,2.828-1.695,4.543-1.695c1.018,0,1.896,0.19,2.634,0.572S433.047,394.81,433.398,395.634z M425.537,398.475h4.975
			c0.128-0.846,0.006-1.488-0.364-1.926c-0.371-0.438-0.897-0.657-1.578-0.657c-0.741,0-1.364,0.232-1.87,0.696
			C426.194,397.052,425.807,397.681,425.537,398.475z"/>
		<path d="M443.404,397.97c0.038-0.457-0.029-0.869-0.201-1.236c-0.255-0.494-0.76-0.74-1.517-0.74c-1.078,0-1.928,0.535-2.55,1.605
			c-0.329,0.569-0.595,1.325-0.797,2.269c-0.188,0.898-0.236,1.621-0.146,2.167c0.165,1.019,0.775,1.527,1.831,1.527
			c0.749,0,1.323-0.201,1.724-0.605s0.702-0.929,0.904-1.572h3.268c-0.276,0.973-0.823,1.894-1.639,2.762
			c-1.303,1.4-2.939,2.101-4.908,2.101s-3.293-0.584-3.971-1.752c-0.677-1.168-0.817-2.685-0.42-4.548
			c0.441-2.104,1.301-3.74,2.576-4.908c1.277-1.168,2.818-1.752,4.622-1.752c1.534,0,2.718,0.345,3.549,1.033
			s1.149,1.905,0.954,3.65H443.404z"/>
		<path d="M449.862,393.578h3.245l-2.594,12.241h-3.246L449.862,393.578z M453.422,392.118h-3.245l0.629-2.953h3.245
			L453.422,392.118z"/>
		<path d="M462.969,389.165l-0.562,2.605c-0.142-0.008-0.284-0.014-0.426-0.018c-0.143-0.004-0.314-0.006-0.518-0.006
			c-0.501,0-0.838,0.139-1.01,0.416c-0.173,0.277-0.314,0.711-0.428,1.303l-0.045,0.225h2.101l-0.483,2.258h-2.1l-2.089,9.871
			h-3.189l2.089-9.871h-1.785l0.482-2.258h1.752l0.168-0.786c0.277-1.303,0.771-2.272,1.482-2.909
			c0.645-0.599,1.76-0.898,3.348-0.898c0.194,0,0.391,0.008,0.59,0.023C462.543,389.135,462.751,389.149,462.969,389.165z
			 M463.99,393.634h3.189l-2.583,12.186h-3.189L463.99,393.634z M464.945,389.165h3.133l-0.629,2.92h-3.133L464.945,389.165z"/>
		<path d="M476.636,397.97c0.038-0.457-0.03-0.869-0.202-1.236c-0.254-0.494-0.76-0.74-1.516-0.74c-1.078,0-1.928,0.535-2.55,1.605
			c-0.329,0.569-0.595,1.325-0.798,2.269c-0.187,0.898-0.235,1.621-0.146,2.167c0.165,1.019,0.774,1.527,1.831,1.527
			c0.748,0,1.322-0.201,1.724-0.605c0.4-0.404,0.702-0.929,0.903-1.572h3.269c-0.276,0.973-0.823,1.894-1.64,2.762
			c-1.303,1.4-2.938,2.101-4.908,2.101c-1.969,0-3.292-0.584-3.97-1.752c-0.677-1.168-0.817-2.685-0.421-4.548
			c0.441-2.104,1.301-3.74,2.577-4.908s2.817-1.752,4.622-1.752c1.534,0,2.717,0.345,3.549,1.033c0.83,0.688,1.148,1.905,0.954,3.65
			H476.636z"/>
		<path d="M483.094,393.578h3.245l-2.595,12.241h-3.245L483.094,393.578z M486.653,392.118h-3.245l0.629-2.953h3.245
			L486.653,392.118z"/>
		<path d="M487.676,395.97l0.482-2.279h1.707l0.73-3.414h3.166l-0.729,3.414h1.987l-0.482,2.279h-1.988l-1.381,6.469
			c-0.105,0.502-0.106,0.814-0.006,0.938c0.102,0.123,0.478,0.185,1.129,0.185c0.098,0,0.2-0.001,0.309-0.005
			c0.109-0.004,0.219-0.01,0.332-0.017l-0.518,2.392l-1.527,0.056c-1.52,0.053-2.496-0.209-2.931-0.785
			c-0.276-0.367-0.337-0.933-0.18-1.696l1.606-7.536H487.676z"/>
		<path d="M494.492,408.167l0.404,0.021c0.307,0.016,0.606,0.004,0.898-0.033s0.551-0.123,0.775-0.258
			c0.217-0.128,0.449-0.394,0.695-0.798c0.248-0.404,0.363-0.651,0.349-0.741l-1.774-12.78h3.561l0.752,9.029l4.447-9.029h3.402
			l-6.76,12.039c-1.303,2.321-2.248,3.761-2.836,4.318s-1.59,0.837-3.004,0.837c-0.285,0-0.514-0.002-0.686-0.006
			s-0.427-0.018-0.764-0.039L494.492,408.167z"/>
	</g>
	<g clip-path="url(#SVGID_2_)">
		<path d="M577.525,300.295h-4.187v-0.966c0.613-0.047,1.169-0.107,1.668-0.185c0.498-0.076,0.935-0.222,1.311-0.437
			s0.69-0.525,0.943-0.932s0.44-0.955,0.563-1.645h1.173v16.215h-1.472V300.295z"/>
		<path d="M589.762,296.132c0.797,0,1.486,0.119,2.069,0.356c0.583,0.238,1.077,0.563,1.483,0.978s0.736,0.896,0.989,1.449
			c0.253,0.552,0.448,1.138,0.587,1.759c0.138,0.621,0.229,1.262,0.275,1.921c0.047,0.659,0.069,1.304,0.069,1.932
			c0,1.074-0.077,2.102-0.229,3.082c-0.154,0.981-0.434,1.849-0.84,2.6s-0.963,1.35-1.668,1.794s-1.617,0.667-2.736,0.667
			c-1.12,0-2.036-0.223-2.749-0.667s-1.272-1.047-1.679-1.806s-0.687-1.641-0.84-2.646c-0.153-1.004-0.23-2.065-0.23-3.186
			c0-1.026,0.069-2.031,0.207-3.013c0.139-0.98,0.402-1.859,0.794-2.634c0.392-0.773,0.946-1.398,1.667-1.874
			S588.596,296.132,589.762,296.132z M593.764,304.365c0-0.874-0.051-1.729-0.15-2.564c-0.1-0.835-0.295-1.583-0.586-2.242
			s-0.701-1.188-1.23-1.587s-1.223-0.598-2.082-0.598c-0.812,0-1.476,0.203-1.989,0.609s-0.917,0.946-1.208,1.621
			s-0.494,1.441-0.609,2.3c-0.115,0.859-0.172,1.733-0.172,2.622c0,1.043,0.064,1.99,0.195,2.841s0.349,1.575,0.656,2.174
			c0.306,0.598,0.716,1.062,1.23,1.392c0.513,0.329,1.16,0.494,1.943,0.494c0.873,0,1.575-0.215,2.104-0.645
			c0.529-0.429,0.932-0.98,1.208-1.655s0.46-1.434,0.552-2.277C593.717,306.007,593.764,305.179,593.764,304.365z"/>
		<path d="M602.549,296.132c0.797,0,1.487,0.119,2.07,0.356c0.582,0.238,1.077,0.563,1.483,0.978s0.736,0.896,0.989,1.449
			c0.253,0.552,0.448,1.138,0.586,1.759c0.139,0.621,0.23,1.262,0.276,1.921s0.069,1.304,0.069,1.932
			c0,1.074-0.077,2.102-0.23,3.082c-0.153,0.981-0.434,1.849-0.84,2.6s-0.962,1.35-1.667,1.794s-1.618,0.667-2.737,0.667
			s-2.035-0.223-2.748-0.667s-1.273-1.047-1.68-1.806s-0.686-1.641-0.839-2.646c-0.153-1.004-0.229-2.065-0.229-3.186
			c0-1.026,0.068-2.031,0.207-3.013c0.138-0.98,0.402-1.859,0.793-2.634c0.391-0.773,0.947-1.398,1.668-1.874
			S601.384,296.132,602.549,296.132z M606.551,304.365c0-0.874-0.049-1.729-0.148-2.564c-0.101-0.835-0.296-1.583-0.587-2.242
			c-0.292-0.659-0.702-1.188-1.23-1.587c-0.529-0.398-1.224-0.598-2.081-0.598c-0.813,0-1.477,0.203-1.99,0.609
			s-0.916,0.946-1.207,1.621c-0.292,0.675-0.494,1.441-0.609,2.3c-0.115,0.859-0.173,1.733-0.173,2.622
			c0,1.043,0.065,1.99,0.195,2.841s0.349,1.575,0.655,2.174c0.307,0.598,0.717,1.062,1.23,1.392
			c0.514,0.329,1.162,0.494,1.943,0.494c0.875,0,1.576-0.215,2.105-0.645c0.528-0.429,0.932-0.98,1.207-1.655
			s0.46-1.434,0.552-2.277C606.506,306.007,606.551,305.179,606.551,304.365z"/>
		<path d="M618.097,300.11c0,0.521-0.1,1.013-0.299,1.473s-0.472,0.862-0.816,1.207s-0.751,0.617-1.22,0.816
			c-0.467,0.199-0.962,0.299-1.482,0.299c-0.521,0-1.012-0.1-1.473-0.299c-0.46-0.199-0.862-0.472-1.207-0.816
			c-0.346-0.345-0.617-0.747-0.816-1.207s-0.299-0.951-0.299-1.473c0-0.521,0.1-1.012,0.299-1.472s0.471-0.862,0.816-1.207
			c0.345-0.346,0.747-0.621,1.207-0.828c0.461-0.207,0.951-0.311,1.473-0.311c0.521,0,1.016,0.1,1.482,0.299
			c0.469,0.199,0.875,0.472,1.22,0.816s0.617,0.751,0.816,1.219S618.097,299.59,618.097,300.11z M614.279,302.595
			c0.336,0,0.655-0.065,0.954-0.195s0.563-0.311,0.794-0.541c0.229-0.229,0.414-0.494,0.552-0.793s0.206-0.617,0.206-0.955
			c0-0.337-0.064-0.655-0.195-0.954c-0.13-0.299-0.311-0.563-0.54-0.794c-0.229-0.229-0.499-0.414-0.806-0.552
			s-0.629-0.207-0.965-0.207c-0.338,0-0.656,0.065-0.955,0.195c-0.299,0.131-0.563,0.311-0.793,0.541
			c-0.23,0.229-0.41,0.498-0.541,0.805s-0.195,0.629-0.195,0.966c0,0.338,0.064,0.656,0.195,0.955s0.311,0.563,0.541,0.793
			c0.229,0.23,0.494,0.411,0.793,0.541S613.941,302.595,614.279,302.595z M615.176,312.669h-1.195l9.131-16.537h1.195
			L615.176,312.669z M624.076,304.733c0.521,0,1.013,0.101,1.473,0.299c0.46,0.2,0.858,0.472,1.195,0.817
			c0.338,0.345,0.603,0.747,0.795,1.207c0.191,0.46,0.287,0.951,0.287,1.472c0,0.521-0.096,1.017-0.287,1.483
			c-0.192,0.469-0.457,0.874-0.795,1.22c-0.337,0.345-0.735,0.617-1.195,0.816s-0.951,0.299-1.473,0.299s-1.016-0.1-1.482-0.299
			c-0.469-0.199-0.875-0.472-1.219-0.816c-0.346-0.346-0.618-0.751-0.816-1.22c-0.2-0.467-0.3-0.962-0.3-1.483
			c0-0.521,0.104-1.012,0.311-1.472s0.483-0.862,0.828-1.207c0.345-0.346,0.747-0.617,1.208-0.817
			C623.064,304.834,623.555,304.733,624.076,304.733z M624.054,306.045c-0.353,0-0.679,0.068-0.978,0.207
			c-0.299,0.138-0.56,0.321-0.781,0.552c-0.223,0.229-0.399,0.498-0.529,0.805c-0.131,0.308-0.195,0.629-0.195,0.966
			c0,0.322,0.068,0.633,0.207,0.932c0.138,0.3,0.321,0.563,0.552,0.794c0.229,0.229,0.494,0.41,0.794,0.54
			c0.299,0.131,0.609,0.196,0.931,0.196c0.337,0,0.655-0.069,0.954-0.207c0.299-0.139,0.561-0.322,0.783-0.553
			c0.222-0.229,0.398-0.494,0.528-0.793s0.195-0.617,0.195-0.955c0-0.337-0.065-0.655-0.195-0.954s-0.307-0.563-0.528-0.794
			c-0.223-0.229-0.484-0.409-0.783-0.54C624.709,306.11,624.391,306.045,624.054,306.045z"/>
	</g>
	<g clip-path="url(#SVGID_2_)">
		<path d="M227.561,24.299h-4.186v-0.966c0.613-0.047,1.169-0.107,1.668-0.185c0.498-0.076,0.935-0.222,1.311-0.437
			c0.376-0.215,0.69-0.525,0.943-0.932s0.44-0.955,0.563-1.645h1.173v16.215h-1.472V24.299z"/>
		<path d="M239.797,20.136c0.797,0,1.487,0.119,2.07,0.356c0.583,0.238,1.077,0.563,1.483,0.978s0.736,0.896,0.989,1.449
			c0.253,0.552,0.448,1.138,0.586,1.759s0.23,1.262,0.276,1.921c0.046,0.659,0.069,1.304,0.069,1.932
			c0,1.074-0.077,2.102-0.23,3.082c-0.154,0.981-0.434,1.849-0.84,2.6s-0.962,1.35-1.667,1.794s-1.618,0.667-2.737,0.667
			c-1.12,0-2.036-0.223-2.749-0.667s-1.273-1.047-1.679-1.806s-0.686-1.641-0.839-2.646c-0.153-1.004-0.23-2.065-0.23-3.186
			c0-1.026,0.069-2.031,0.207-3.013c0.138-0.98,0.402-1.859,0.793-2.634c0.391-0.773,0.947-1.398,1.667-1.874
			S238.631,20.136,239.797,20.136z M243.799,28.369c0-0.874-0.05-1.729-0.149-2.564c-0.1-0.835-0.295-1.583-0.586-2.242
			c-0.292-0.659-0.702-1.188-1.23-1.587c-0.529-0.398-1.223-0.598-2.082-0.598c-0.813,0-1.476,0.203-1.99,0.609
			s-0.917,0.946-1.208,1.621c-0.292,0.675-0.494,1.441-0.609,2.3c-0.115,0.859-0.172,1.733-0.172,2.622
			c0,1.043,0.065,1.99,0.195,2.841s0.349,1.575,0.656,2.174c0.306,0.598,0.716,1.062,1.23,1.392
			c0.513,0.329,1.161,0.494,1.943,0.494c0.874,0,1.576-0.215,2.104-0.645c0.529-0.429,0.932-0.98,1.208-1.655
			s0.46-1.434,0.552-2.277C243.753,30.011,243.799,29.183,243.799,28.369z"/>
		<path d="M252.585,20.136c0.797,0,1.487,0.119,2.07,0.356c0.583,0.238,1.077,0.563,1.483,0.978s0.736,0.896,0.989,1.449
			c0.253,0.552,0.448,1.138,0.586,1.759s0.23,1.262,0.276,1.921c0.046,0.659,0.069,1.304,0.069,1.932
			c0,1.074-0.077,2.102-0.23,3.082c-0.154,0.981-0.434,1.849-0.84,2.6s-0.962,1.35-1.667,1.794s-1.618,0.667-2.737,0.667
			c-1.12,0-2.036-0.223-2.749-0.667s-1.273-1.047-1.679-1.806s-0.686-1.641-0.839-2.646c-0.153-1.004-0.23-2.065-0.23-3.186
			c0-1.026,0.069-2.031,0.207-3.013c0.138-0.98,0.402-1.859,0.793-2.634c0.391-0.773,0.947-1.398,1.667-1.874
			S251.419,20.136,252.585,20.136z M256.587,28.369c0-0.874-0.05-1.729-0.149-2.564c-0.1-0.835-0.295-1.583-0.586-2.242
			c-0.292-0.659-0.702-1.188-1.23-1.587c-0.529-0.398-1.223-0.598-2.082-0.598c-0.813,0-1.476,0.203-1.99,0.609
			s-0.917,0.946-1.208,1.621c-0.292,0.675-0.494,1.441-0.609,2.3c-0.115,0.859-0.172,1.733-0.172,2.622
			c0,1.043,0.065,1.99,0.195,2.841s0.349,1.575,0.656,2.174c0.306,0.598,0.716,1.062,1.23,1.392
			c0.513,0.329,1.161,0.494,1.943,0.494c0.874,0,1.576-0.215,2.104-0.645c0.529-0.429,0.932-0.98,1.208-1.655
			s0.46-1.434,0.552-2.277C256.541,30.011,256.587,29.183,256.587,28.369z"/>
		<path d="M268.132,24.114c0,0.521-0.1,1.013-0.299,1.473s-0.472,0.862-0.816,1.207c-0.345,0.345-0.751,0.617-1.219,0.816
			s-0.962,0.299-1.483,0.299c-0.521,0-1.012-0.1-1.472-0.299c-0.46-0.199-0.862-0.472-1.207-0.816
			c-0.345-0.345-0.618-0.747-0.817-1.207s-0.299-0.951-0.299-1.473c0-0.521,0.1-1.012,0.299-1.472s0.472-0.862,0.817-1.207
			c0.345-0.346,0.747-0.621,1.207-0.828c0.46-0.207,0.951-0.311,1.472-0.311c0.521,0,1.016,0.1,1.483,0.299s0.874,0.472,1.219,0.816
			c0.345,0.345,0.617,0.751,0.816,1.219S268.132,23.594,268.132,24.114z M264.314,26.599c0.337,0,0.656-0.065,0.955-0.195
			s0.563-0.311,0.793-0.541c0.23-0.229,0.414-0.494,0.552-0.793c0.138-0.299,0.207-0.617,0.207-0.955
			c0-0.337-0.065-0.655-0.195-0.954s-0.311-0.563-0.541-0.794c-0.23-0.229-0.499-0.414-0.805-0.552s-0.629-0.207-0.966-0.207
			c-0.337,0-0.655,0.065-0.955,0.195c-0.299,0.131-0.563,0.311-0.793,0.541c-0.23,0.229-0.41,0.498-0.541,0.805
			s-0.195,0.629-0.195,0.966c0,0.338,0.065,0.656,0.195,0.955s0.311,0.563,0.541,0.793c0.23,0.23,0.495,0.411,0.793,0.541
			C263.659,26.533,263.977,26.599,264.314,26.599z M265.211,36.673h-1.196l9.131-16.537h1.196L265.211,36.673z M274.112,28.737
			c0.521,0,1.012,0.101,1.472,0.299c0.46,0.2,0.858,0.472,1.196,0.817c0.337,0.345,0.602,0.747,0.794,1.207
			c0.191,0.46,0.287,0.951,0.287,1.472c0,0.521-0.096,1.017-0.287,1.483c-0.192,0.469-0.457,0.874-0.794,1.22
			c-0.337,0.345-0.736,0.617-1.196,0.816s-0.951,0.299-1.472,0.299s-1.016-0.1-1.483-0.299s-0.874-0.472-1.219-0.816
			c-0.345-0.346-0.618-0.751-0.816-1.22c-0.2-0.467-0.299-0.962-0.299-1.483c0-0.521,0.104-1.012,0.311-1.472
			s0.483-0.862,0.828-1.207c0.345-0.346,0.748-0.617,1.208-0.817C273.101,28.838,273.591,28.737,274.112,28.737z M274.089,30.049
			c-0.353,0-0.678,0.068-0.978,0.207c-0.299,0.138-0.56,0.321-0.782,0.552c-0.223,0.229-0.399,0.498-0.529,0.805
			c-0.13,0.308-0.195,0.629-0.195,0.966c0,0.322,0.069,0.633,0.207,0.932c0.138,0.3,0.322,0.563,0.552,0.794
			c0.23,0.229,0.494,0.41,0.793,0.54c0.299,0.131,0.609,0.196,0.931,0.196c0.337,0,0.656-0.069,0.955-0.207
			c0.299-0.139,0.56-0.322,0.782-0.553c0.222-0.229,0.398-0.494,0.529-0.793s0.195-0.617,0.195-0.955
			c0-0.337-0.065-0.655-0.195-0.954s-0.307-0.563-0.529-0.794c-0.223-0.229-0.483-0.409-0.782-0.54
			C274.745,30.114,274.427,30.049,274.089,30.049z"/>
	</g>
	<g clip-path="url(#SVGID_2_)">
		<path d="M274.175,315.604c0.797,0,1.487,0.119,2.07,0.356c0.583,0.238,1.077,0.563,1.483,0.978s0.736,0.896,0.989,1.449
			c0.253,0.552,0.448,1.138,0.586,1.759s0.23,1.262,0.276,1.921c0.046,0.659,0.069,1.304,0.069,1.932
			c0,1.074-0.077,2.102-0.23,3.082c-0.154,0.981-0.434,1.849-0.84,2.6s-0.962,1.35-1.667,1.794s-1.618,0.667-2.737,0.667
			c-1.12,0-2.036-0.223-2.749-0.667s-1.273-1.047-1.679-1.806s-0.686-1.641-0.839-2.646c-0.153-1.004-0.23-2.065-0.23-3.186
			c0-1.026,0.069-2.031,0.207-3.013c0.138-0.98,0.402-1.859,0.793-2.634c0.391-0.773,0.947-1.398,1.667-1.874
			S273.01,315.604,274.175,315.604z M278.177,323.837c0-0.874-0.05-1.729-0.149-2.564c-0.1-0.835-0.295-1.583-0.586-2.242
			c-0.292-0.659-0.702-1.188-1.23-1.587c-0.529-0.398-1.223-0.598-2.082-0.598c-0.813,0-1.476,0.203-1.99,0.609
			s-0.917,0.946-1.208,1.621c-0.292,0.675-0.494,1.441-0.609,2.3c-0.115,0.859-0.172,1.733-0.172,2.622
			c0,1.043,0.065,1.99,0.195,2.841s0.349,1.575,0.656,2.174c0.306,0.598,0.716,1.062,1.23,1.392
			c0.513,0.329,1.161,0.494,1.943,0.494c0.874,0,1.576-0.215,2.104-0.645c0.529-0.429,0.932-0.98,1.208-1.655
			s0.46-1.434,0.552-2.277C278.131,325.479,278.177,324.65,278.177,323.837z"/>
	</g>
	<g clip-path="url(#SVGID_2_)">
		<path d="M5.742,138.276h-1.38V121.67h1.38v2.093h0.046c0.199-0.383,0.456-0.728,0.771-1.035c0.314-0.306,0.659-0.56,1.035-0.759
			c0.375-0.199,0.763-0.353,1.162-0.46c0.398-0.106,0.79-0.161,1.173-0.161c0.966,0,1.786,0.161,2.461,0.483
			c0.674,0.322,1.23,0.763,1.667,1.322c0.437,0.561,0.755,1.223,0.954,1.989c0.199,0.768,0.299,1.588,0.299,2.461
			c0,0.828-0.107,1.626-0.322,2.393s-0.541,1.438-0.978,2.013c-0.437,0.574-0.989,1.035-1.656,1.38s-1.453,0.518-2.357,0.518
			c-0.844,0-1.652-0.188-2.427-0.563c-0.774-0.376-1.384-0.932-1.829-1.668V138.276z M5.742,127.673
			c0,0.675,0.092,1.315,0.276,1.921s0.448,1.135,0.793,1.587c0.345,0.452,0.767,0.812,1.265,1.081
			c0.498,0.269,1.062,0.402,1.69,0.402c0.705,0,1.322-0.142,1.852-0.426c0.529-0.283,0.962-0.67,1.299-1.161
			c0.337-0.49,0.583-1.062,0.736-1.714c0.153-0.651,0.215-1.353,0.184-2.104c0-0.751-0.104-1.414-0.311-1.989
			s-0.495-1.062-0.862-1.461c-0.368-0.398-0.797-0.701-1.288-0.908s-1.027-0.311-1.61-0.311c-0.644,0-1.219,0.131-1.725,0.392
			s-0.928,0.617-1.265,1.069s-0.594,0.988-0.771,1.609S5.742,126.952,5.742,127.673z"/>
		<path d="M22.969,116.587c-1.104,1.595-1.967,3.301-2.587,5.117c-0.621,1.817-0.932,3.7-0.932,5.646
			c0,1.917,0.322,3.772,0.966,5.566s1.495,3.48,2.553,5.06h-1.173c-0.629-0.874-1.188-1.721-1.679-2.541s-0.905-1.656-1.242-2.507
			c-0.337-0.852-0.59-1.74-0.759-2.668c-0.169-0.928-0.253-1.936-0.253-3.024c0-1.059,0.088-2.051,0.264-2.979
			s0.433-1.821,0.771-2.68s0.748-1.698,1.23-2.519c0.483-0.82,1.039-1.645,1.668-2.473H22.969z"/>
		<path d="M24.625,117.024h12.052v1.334h-5.244v15.226h-1.564v-15.226h-5.244V117.024z"/>
		<path d="M38.034,133.584h-1.38V121.67h1.38v2.231h0.046c0.383-0.951,0.878-1.614,1.483-1.99c0.606-0.375,1.407-0.563,2.404-0.563
			v1.495c-0.782-0.015-1.426,0.107-1.932,0.368s-0.909,0.613-1.208,1.058c-0.299,0.445-0.506,0.971-0.621,1.576
			c-0.115,0.605-0.172,1.238-0.172,1.897V133.584z"/>
		<path d="M52.317,121.67h1.38v11.914h-1.38v-1.656c-0.184,0.215-0.391,0.438-0.621,0.667c-0.23,0.23-0.495,0.441-0.793,0.633
			s-0.648,0.353-1.046,0.483c-0.399,0.13-0.859,0.195-1.38,0.195c-0.798,0-1.465-0.111-2.001-0.334
			c-0.537-0.222-0.97-0.532-1.3-0.932c-0.33-0.398-0.567-0.862-0.713-1.392c-0.146-0.528-0.219-1.107-0.219-1.736v-7.843h1.38v7.82
			c0,1.027,0.237,1.813,0.713,2.357c0.475,0.544,1.257,0.816,2.346,0.816c0.567,0,1.077-0.111,1.529-0.334
			c0.452-0.222,0.832-0.532,1.139-0.931c0.306-0.399,0.544-0.874,0.713-1.427c0.168-0.552,0.253-1.157,0.253-1.816V121.67z"/>
		<path d="M57.883,127.949c0,0.644,0.084,1.253,0.253,1.828c0.169,0.575,0.418,1.073,0.748,1.495s0.748,0.759,1.254,1.012
			c0.506,0.253,1.088,0.38,1.748,0.38c0.905,0,1.679-0.237,2.323-0.713s1.073-1.15,1.288-2.024h1.541
			c-0.169,0.567-0.391,1.093-0.667,1.576c-0.276,0.482-0.621,0.904-1.035,1.265s-0.905,0.641-1.472,0.84
			c-0.567,0.198-1.227,0.299-1.978,0.299c-0.951,0-1.771-0.161-2.461-0.483s-1.257-0.763-1.702-1.322
			c-0.445-0.56-0.774-1.219-0.989-1.979c-0.215-0.759-0.322-1.575-0.322-2.449s0.126-1.694,0.379-2.461s0.613-1.438,1.081-2.013
			c0.467-0.575,1.039-1.026,1.713-1.356s1.441-0.495,2.3-0.495c1.641,0,2.929,0.563,3.864,1.69c0.935,1.127,1.395,2.765,1.38,4.911
			H57.883z M65.657,126.799c0-0.582-0.08-1.131-0.241-1.645s-0.399-0.958-0.713-1.334c-0.314-0.375-0.709-0.675-1.185-0.896
			c-0.476-0.223-1.02-0.334-1.633-0.334s-1.154,0.115-1.621,0.345c-0.468,0.23-0.867,0.537-1.196,0.921
			c-0.33,0.383-0.594,0.827-0.793,1.334c-0.199,0.506-0.33,1.042-0.391,1.609H65.657z"/>
		<path d="M76.352,133.584v-16.56h6.049c1.073,0,1.959,0.122,2.657,0.367c0.698,0.246,1.25,0.583,1.656,1.013
			c0.406,0.429,0.69,0.924,0.851,1.483c0.161,0.56,0.242,1.146,0.242,1.76c0,0.92-0.188,1.679-0.563,2.276
			c-0.376,0.599-0.863,1.069-1.46,1.415c-0.598,0.345-1.277,0.586-2.036,0.724c-0.759,0.139-1.522,0.207-2.289,0.207h-3.542v7.314
			H76.352z M81.504,124.936c0.736,0,1.396-0.046,1.978-0.138s1.077-0.265,1.484-0.518c0.406-0.253,0.72-0.598,0.943-1.035
			c0.222-0.437,0.333-1.008,0.333-1.713c0-1.043-0.341-1.832-1.023-2.369c-0.683-0.537-1.768-0.805-3.255-0.805h-4.048v6.577H81.504
			z"/>
		<path d="M95.005,133.906c-0.767-0.016-1.483-0.153-2.15-0.414s-1.25-0.651-1.748-1.173c-0.499-0.521-0.894-1.174-1.185-1.955
			c-0.292-0.782-0.437-1.694-0.437-2.737c0-0.874,0.115-1.69,0.345-2.449c0.23-0.759,0.575-1.422,1.035-1.99
			c0.46-0.566,1.035-1.015,1.725-1.345s1.495-0.495,2.415-0.495c0.935,0,1.748,0.165,2.438,0.495s1.265,0.774,1.725,1.334
			s0.801,1.223,1.023,1.989c0.222,0.767,0.333,1.587,0.333,2.461c0,0.951-0.13,1.81-0.391,2.576s-0.632,1.426-1.115,1.978
			c-0.483,0.553-1.066,0.978-1.748,1.276C96.588,133.757,95.833,133.906,95.005,133.906z M99.053,127.627
			c0-0.705-0.077-1.364-0.23-1.978s-0.391-1.146-0.713-1.599c-0.322-0.452-0.736-0.809-1.242-1.069
			c-0.506-0.261-1.127-0.392-1.863-0.392c-0.721,0-1.338,0.143-1.852,0.426c-0.514,0.284-0.932,0.659-1.253,1.127
			c-0.322,0.468-0.56,1.004-0.713,1.61c-0.154,0.605-0.23,1.23-0.23,1.874c0,0.736,0.088,1.414,0.264,2.035s0.433,1.154,0.771,1.599
			c0.337,0.445,0.759,0.79,1.265,1.035s1.088,0.368,1.748,0.368c0.721,0,1.337-0.142,1.852-0.426
			c0.514-0.283,0.931-0.663,1.253-1.139c0.322-0.475,0.56-1.012,0.713-1.609C98.976,128.892,99.053,128.271,99.053,127.627z"/>
		<path d="M103.86,129.858c0.215,1.027,0.602,1.752,1.162,2.173c0.56,0.422,1.36,0.633,2.403,0.633c0.506,0,0.943-0.062,1.311-0.184
			c0.368-0.123,0.671-0.288,0.909-0.495c0.237-0.207,0.417-0.44,0.541-0.701c0.123-0.261,0.184-0.537,0.184-0.828
			c0-0.583-0.188-1.016-0.563-1.3c-0.376-0.283-0.848-0.506-1.415-0.667c-0.568-0.161-1.181-0.299-1.84-0.414
			c-0.659-0.114-1.273-0.287-1.84-0.518c-0.567-0.229-1.039-0.56-1.415-0.988c-0.376-0.43-0.563-1.035-0.563-1.817
			c0-0.996,0.364-1.813,1.092-2.449c0.729-0.637,1.76-0.955,3.094-0.955c1.288,0,2.334,0.288,3.14,0.863
			c0.805,0.574,1.292,1.537,1.46,2.886h-1.403c-0.123-0.92-0.471-1.567-1.046-1.943c-0.575-0.375-1.299-0.563-2.173-0.563
			s-1.541,0.188-2.001,0.563c-0.46,0.376-0.69,0.87-0.69,1.483c0,0.537,0.188,0.947,0.563,1.23c0.375,0.284,0.847,0.515,1.415,0.69
			c0.567,0.177,1.18,0.333,1.84,0.472c0.659,0.138,1.272,0.333,1.84,0.586s1.039,0.595,1.415,1.023
			c0.375,0.43,0.563,1.027,0.563,1.794c0,0.567-0.123,1.07-0.368,1.507c-0.246,0.438-0.583,0.802-1.012,1.093
			c-0.43,0.291-0.939,0.51-1.529,0.655c-0.591,0.146-1.239,0.219-1.944,0.219s-1.33-0.104-1.875-0.311s-1.008-0.495-1.391-0.862
			c-0.384-0.368-0.683-0.798-0.897-1.288c-0.215-0.491-0.337-1.02-0.368-1.587H103.86z"/>
		<path d="M114.693,119.071v-2.047h1.518v2.047H114.693z M114.762,133.584V121.67h1.38v11.914H114.762z"/>
		<path d="M123.846,133.63c-0.169,0.03-0.391,0.084-0.667,0.161c-0.276,0.076-0.583,0.115-0.92,0.115
			c-0.69,0-1.215-0.173-1.575-0.518c-0.361-0.345-0.541-0.962-0.541-1.852v-8.717h-1.679v-1.15h1.679v-3.312h1.38v3.312h2.231v1.15
			h-2.231v8.165c0,0.291,0.007,0.544,0.023,0.759c0.015,0.215,0.061,0.391,0.138,0.529c0.076,0.138,0.195,0.237,0.356,0.299
			c0.161,0.062,0.387,0.092,0.678,0.092c0.184,0,0.372-0.016,0.563-0.046s0.38-0.069,0.563-0.115V133.63z"/>
		<path d="M126.192,119.071v-2.047h1.518v2.047H126.192z M126.261,133.584V121.67h1.38v11.914H126.261z"/>
		<path d="M129.895,121.67h1.495l3.864,10.212l3.864-10.212h1.495l-4.623,11.914h-1.541L129.895,121.67z"/>
		<path d="M143.511,127.949c0,0.644,0.084,1.253,0.253,1.828c0.169,0.575,0.418,1.073,0.748,1.495s0.748,0.759,1.254,1.012
			c0.506,0.253,1.088,0.38,1.748,0.38c0.905,0,1.679-0.237,2.323-0.713s1.073-1.15,1.288-2.024h1.541
			c-0.169,0.567-0.391,1.093-0.667,1.576c-0.276,0.482-0.621,0.904-1.035,1.265s-0.905,0.641-1.472,0.84
			c-0.567,0.198-1.227,0.299-1.978,0.299c-0.951,0-1.771-0.161-2.461-0.483s-1.257-0.763-1.702-1.322
			c-0.445-0.56-0.774-1.219-0.989-1.979c-0.215-0.759-0.322-1.575-0.322-2.449s0.126-1.694,0.379-2.461s0.613-1.438,1.081-2.013
			c0.467-0.575,1.039-1.026,1.713-1.356s1.441-0.495,2.3-0.495c1.641,0,2.929,0.563,3.864,1.69c0.935,1.127,1.395,2.765,1.38,4.911
			H143.511z M151.285,126.799c0-0.582-0.08-1.131-0.241-1.645s-0.399-0.958-0.713-1.334c-0.314-0.375-0.709-0.675-1.185-0.896
			c-0.476-0.223-1.02-0.334-1.633-0.334s-1.154,0.115-1.621,0.345c-0.468,0.23-0.867,0.537-1.196,0.921
			c-0.33,0.383-0.594,0.827-0.793,1.334c-0.199,0.506-0.33,1.042-0.391,1.609H151.285z"/>
		<path d="M156.253,129.858c0.215,1.027,0.602,1.752,1.162,2.173c0.56,0.422,1.36,0.633,2.403,0.633
			c0.506,0,0.943-0.062,1.311-0.184c0.368-0.123,0.671-0.288,0.909-0.495c0.237-0.207,0.417-0.44,0.541-0.701
			c0.123-0.261,0.184-0.537,0.184-0.828c0-0.583-0.188-1.016-0.563-1.3c-0.376-0.283-0.848-0.506-1.415-0.667
			c-0.568-0.161-1.181-0.299-1.84-0.414c-0.659-0.114-1.273-0.287-1.84-0.518c-0.567-0.229-1.039-0.56-1.415-0.988
			c-0.376-0.43-0.563-1.035-0.563-1.817c0-0.996,0.364-1.813,1.092-2.449c0.729-0.637,1.76-0.955,3.094-0.955
			c1.288,0,2.334,0.288,3.14,0.863c0.805,0.574,1.292,1.537,1.46,2.886h-1.403c-0.123-0.92-0.471-1.567-1.046-1.943
			c-0.575-0.375-1.299-0.563-2.173-0.563s-1.541,0.188-2.001,0.563c-0.46,0.376-0.69,0.87-0.69,1.483
			c0,0.537,0.188,0.947,0.563,1.23c0.375,0.284,0.847,0.515,1.415,0.69c0.567,0.177,1.18,0.333,1.84,0.472
			c0.659,0.138,1.272,0.333,1.84,0.586s1.039,0.595,1.415,1.023c0.375,0.43,0.563,1.027,0.563,1.794c0,0.567-0.123,1.07-0.368,1.507
			c-0.246,0.438-0.583,0.802-1.012,1.093c-0.43,0.291-0.939,0.51-1.529,0.655c-0.591,0.146-1.239,0.219-1.944,0.219
			s-1.33-0.104-1.875-0.311s-1.008-0.495-1.391-0.862c-0.384-0.368-0.683-0.798-0.897-1.288c-0.215-0.491-0.337-1.02-0.368-1.587
			H156.253z"/>
		<path d="M178.816,126.638c0.261-0.03,0.571-0.076,0.932-0.138c0.36-0.062,0.655-0.146,0.885-0.253s0.372-0.287,0.426-0.541
			c0.054-0.253,0.081-0.486,0.081-0.701c0-0.705-0.227-1.284-0.679-1.736s-1.215-0.679-2.289-0.679
			c-0.475,0-0.912,0.043-1.311,0.127s-0.747,0.229-1.046,0.437c-0.299,0.207-0.544,0.483-0.736,0.828
			c-0.192,0.345-0.318,0.778-0.379,1.3h-1.403c0.046-0.705,0.207-1.308,0.483-1.806c0.276-0.498,0.633-0.904,1.07-1.219
			s0.943-0.545,1.518-0.69c0.575-0.146,1.185-0.219,1.828-0.219c0.598,0,1.162,0.065,1.691,0.196c0.529,0.13,0.989,0.337,1.38,0.62
			c0.391,0.284,0.697,0.664,0.92,1.139c0.222,0.476,0.333,1.059,0.333,1.748v6.486c0,0.537,0.096,0.878,0.288,1.023
			c0.191,0.146,0.579,0.111,1.162-0.104v1.081c-0.108,0.031-0.265,0.076-0.472,0.138s-0.411,0.092-0.609,0.092
			c-0.215,0-0.422-0.022-0.621-0.068c-0.23-0.031-0.414-0.104-0.552-0.219c-0.138-0.115-0.249-0.253-0.333-0.414
			s-0.142-0.337-0.172-0.529c-0.031-0.191-0.046-0.395-0.046-0.609c-0.583,0.645-1.25,1.135-2.001,1.473
			c-0.751,0.337-1.564,0.506-2.438,0.506c-0.521,0-1.023-0.069-1.507-0.207c-0.483-0.139-0.908-0.353-1.276-0.645
			c-0.368-0.291-0.659-0.647-0.874-1.069s-0.322-0.924-0.322-1.507c0-2.023,1.387-3.22,4.163-3.588L178.816,126.638z
			 M181.139,127.328c-0.583,0.245-1.173,0.406-1.771,0.482c-0.598,0.077-1.196,0.139-1.794,0.185
			c-1.058,0.077-1.883,0.314-2.473,0.713c-0.59,0.398-0.886,1.005-0.886,1.817c0,0.367,0.073,0.686,0.219,0.954
			c0.146,0.269,0.337,0.491,0.575,0.667c0.237,0.177,0.513,0.307,0.828,0.391c0.314,0.085,0.633,0.127,0.955,0.127
			c0.552,0,1.088-0.069,1.61-0.207s0.985-0.349,1.392-0.633c0.406-0.283,0.732-0.644,0.978-1.081
			c0.245-0.437,0.368-0.954,0.368-1.552V127.328z"/>
		<path d="M187.579,133.584h-1.38V121.67h1.38v2.231h0.046c0.383-0.951,0.878-1.614,1.483-1.99c0.606-0.375,1.407-0.563,2.404-0.563
			v1.495c-0.782-0.015-1.426,0.107-1.932,0.368s-0.909,0.613-1.208,1.058c-0.299,0.445-0.506,0.971-0.621,1.576
			c-0.115,0.605-0.172,1.238-0.172,1.897V133.584z"/>
		<path d="M194.226,127.949c0,0.644,0.084,1.253,0.253,1.828c0.169,0.575,0.418,1.073,0.748,1.495s0.748,0.759,1.254,1.012
			c0.506,0.253,1.088,0.38,1.748,0.38c0.905,0,1.679-0.237,2.323-0.713s1.073-1.15,1.288-2.024h1.541
			c-0.169,0.567-0.391,1.093-0.667,1.576c-0.276,0.482-0.621,0.904-1.035,1.265s-0.905,0.641-1.472,0.84
			c-0.567,0.198-1.227,0.299-1.978,0.299c-0.951,0-1.771-0.161-2.461-0.483s-1.257-0.763-1.702-1.322
			c-0.445-0.56-0.774-1.219-0.989-1.979c-0.215-0.759-0.322-1.575-0.322-2.449s0.126-1.694,0.379-2.461s0.613-1.438,1.081-2.013
			c0.467-0.575,1.039-1.026,1.713-1.356s1.441-0.495,2.3-0.495c1.641,0,2.929,0.563,3.864,1.69c0.935,1.127,1.395,2.765,1.38,4.911
			H194.226z M202,126.799c0-0.582-0.08-1.131-0.241-1.645s-0.399-0.958-0.713-1.334c-0.314-0.375-0.709-0.675-1.185-0.896
			c-0.476-0.223-1.02-0.334-1.633-0.334s-1.154,0.115-1.621,0.345c-0.468,0.23-0.867,0.537-1.196,0.921
			c-0.33,0.383-0.594,0.827-0.793,1.334c-0.199,0.506-0.33,1.042-0.391,1.609H202z"/>
		<path d="M211.361,122.82v-1.15h1.771v-1.886c0-0.951,0.191-1.702,0.575-2.254c0.383-0.553,1.035-0.828,1.955-0.828
			c0.214,0,0.414,0.008,0.598,0.022c0.184,0.016,0.368,0.039,0.552,0.069v1.265c-0.307-0.076-0.583-0.114-0.828-0.114
			c-0.353,0-0.629,0.065-0.828,0.195s-0.345,0.303-0.437,0.518c-0.092,0.215-0.149,0.456-0.172,0.725s-0.035,0.54-0.035,0.816v1.472
			h2.3v1.15h-2.3v10.764h-1.38V122.82H211.361z"/>
		<path d="M223.689,133.906c-0.767-0.016-1.483-0.153-2.15-0.414s-1.25-0.651-1.748-1.173c-0.499-0.521-0.894-1.174-1.185-1.955
			c-0.292-0.782-0.437-1.694-0.437-2.737c0-0.874,0.115-1.69,0.345-2.449c0.23-0.759,0.575-1.422,1.035-1.99
			c0.46-0.566,1.035-1.015,1.725-1.345s1.495-0.495,2.415-0.495c0.935,0,1.748,0.165,2.438,0.495s1.265,0.774,1.725,1.334
			s0.801,1.223,1.023,1.989c0.222,0.767,0.333,1.587,0.333,2.461c0,0.951-0.13,1.81-0.391,2.576s-0.632,1.426-1.115,1.978
			c-0.483,0.553-1.066,0.978-1.748,1.276C225.272,133.757,224.517,133.906,223.689,133.906z M227.737,127.627
			c0-0.705-0.077-1.364-0.23-1.978s-0.391-1.146-0.713-1.599c-0.322-0.452-0.736-0.809-1.242-1.069
			c-0.506-0.261-1.127-0.392-1.863-0.392c-0.721,0-1.338,0.143-1.852,0.426c-0.514,0.284-0.932,0.659-1.253,1.127
			c-0.322,0.468-0.56,1.004-0.713,1.61c-0.154,0.605-0.23,1.23-0.23,1.874c0,0.736,0.088,1.414,0.264,2.035s0.433,1.154,0.771,1.599
			c0.337,0.445,0.759,0.79,1.265,1.035s1.088,0.368,1.748,0.368c0.721,0,1.337-0.142,1.852-0.426
			c0.514-0.283,0.931-0.663,1.253-1.139c0.322-0.475,0.56-1.012,0.713-1.609C227.66,128.892,227.737,128.271,227.737,127.627z"/>
		<path d="M239.812,121.67h1.38v11.914h-1.38v-1.656c-0.184,0.215-0.391,0.438-0.621,0.667c-0.23,0.23-0.495,0.441-0.793,0.633
			s-0.648,0.353-1.046,0.483c-0.399,0.13-0.859,0.195-1.38,0.195c-0.798,0-1.465-0.111-2.001-0.334
			c-0.537-0.222-0.97-0.532-1.3-0.932c-0.33-0.398-0.567-0.862-0.713-1.392c-0.146-0.528-0.219-1.107-0.219-1.736v-7.843h1.38v7.82
			c0,1.027,0.237,1.813,0.713,2.357c0.475,0.544,1.257,0.816,2.346,0.816c0.567,0,1.077-0.111,1.529-0.334
			c0.452-0.222,0.832-0.532,1.139-0.931c0.306-0.399,0.544-0.874,0.713-1.427c0.168-0.552,0.253-1.157,0.253-1.816V121.67z"/>
		<path d="M245.907,133.584h-1.38V121.67h1.38v1.656c0.552-0.583,1.123-1.059,1.713-1.426c0.59-0.368,1.299-0.553,2.127-0.553
			c0.736,0,1.418,0.127,2.047,0.38s1.158,0.694,1.587,1.322c0.291,0.43,0.463,0.87,0.517,1.322c0.054,0.453,0.081,0.925,0.081,1.415
			v7.797h-1.38v-7.774c0-1.072-0.238-1.878-0.713-2.415c-0.476-0.536-1.265-0.805-2.369-0.805c-0.429,0-0.82,0.065-1.173,0.195
			c-0.353,0.131-0.671,0.304-0.955,0.518c-0.284,0.215-0.525,0.46-0.725,0.736s-0.353,0.567-0.46,0.874
			c-0.138,0.384-0.223,0.751-0.253,1.104c-0.031,0.354-0.046,0.736-0.046,1.15V133.584z"/>
		<path d="M266.515,117.024h1.38v16.56h-1.38v-2.093h-0.046c-0.2,0.398-0.457,0.747-0.771,1.046c-0.314,0.3-0.66,0.549-1.035,0.748
			c-0.376,0.199-0.763,0.353-1.162,0.46c-0.398,0.107-0.79,0.161-1.173,0.161c-0.966,0-1.786-0.161-2.461-0.483
			s-1.23-0.763-1.667-1.322s-0.755-1.223-0.955-1.989s-0.299-1.587-0.299-2.461c0-0.828,0.107-1.626,0.322-2.393
			s0.541-1.438,0.978-2.013c0.437-0.574,0.989-1.034,1.656-1.38c0.667-0.345,1.453-0.518,2.357-0.518
			c0.843,0,1.652,0.188,2.426,0.563c0.774,0.376,1.384,0.932,1.829,1.668V117.024z M266.515,127.581
			c0-0.675-0.092-1.314-0.276-1.921c-0.184-0.605-0.449-1.134-0.793-1.587c-0.345-0.452-0.767-0.812-1.265-1.081
			c-0.499-0.268-1.062-0.402-1.69-0.402c-0.721,0-1.342,0.143-1.863,0.426c-0.521,0.284-0.951,0.671-1.288,1.161
			c-0.337,0.491-0.583,1.062-0.736,1.714s-0.215,1.354-0.184,2.104c0,0.751,0.104,1.414,0.311,1.989s0.495,1.062,0.863,1.461
			c0.368,0.398,0.797,0.701,1.288,0.908c0.49,0.207,1.027,0.311,1.61,0.311c0.644,0,1.219-0.13,1.725-0.391
			c0.506-0.261,0.927-0.617,1.265-1.07c0.337-0.452,0.594-0.988,0.771-1.609S266.515,128.302,266.515,127.581z"/>
		<path d="M271,137.977c1.104-1.595,1.966-3.3,2.587-5.117c0.621-1.816,0.932-3.699,0.932-5.646c0-1.916-0.322-3.771-0.966-5.565
			c-0.644-1.795-1.495-3.481-2.553-5.061h1.173c0.628,0.874,1.188,1.722,1.679,2.542c0.49,0.82,0.9,1.655,1.23,2.507
			c0.33,0.851,0.583,1.74,0.759,2.668s0.265,1.936,0.265,3.024c0,1.058-0.088,2.051-0.265,2.979s-0.433,1.82-0.771,2.68
			c-0.337,0.858-0.751,1.697-1.242,2.519c-0.491,0.819-1.043,1.645-1.656,2.472H271z"/>
	</g>
	<g clip-path="url(#SVGID_2_)">
		<path d="M136.129,161.906c-0.767-0.016-1.483-0.153-2.15-0.414s-1.25-0.651-1.748-1.173c-0.499-0.521-0.894-1.174-1.185-1.955
			c-0.292-0.782-0.437-1.694-0.437-2.737c0-0.874,0.115-1.69,0.345-2.449c0.23-0.759,0.575-1.422,1.035-1.99
			c0.46-0.566,1.035-1.015,1.725-1.345s1.495-0.495,2.415-0.495c0.935,0,1.748,0.165,2.438,0.495s1.265,0.774,1.725,1.334
			s0.801,1.223,1.023,1.989c0.222,0.767,0.333,1.587,0.333,2.461c0,0.951-0.13,1.81-0.391,2.576s-0.632,1.426-1.115,1.978
			c-0.483,0.553-1.066,0.978-1.748,1.276C137.712,161.757,136.958,161.906,136.129,161.906z M140.177,155.627
			c0-0.705-0.077-1.364-0.23-1.978s-0.391-1.146-0.713-1.599c-0.322-0.452-0.736-0.809-1.242-1.069
			c-0.506-0.261-1.127-0.392-1.863-0.392c-0.721,0-1.338,0.143-1.852,0.426c-0.514,0.284-0.932,0.659-1.253,1.127
			c-0.322,0.468-0.56,1.004-0.713,1.61c-0.154,0.605-0.23,1.23-0.23,1.874c0,0.736,0.088,1.414,0.264,2.035s0.433,1.154,0.771,1.599
			c0.337,0.445,0.759,0.79,1.265,1.035s1.088,0.368,1.748,0.368c0.721,0,1.337-0.142,1.852-0.426
			c0.514-0.283,0.931-0.663,1.253-1.139c0.322-0.475,0.56-1.012,0.713-1.609C140.101,156.892,140.177,156.271,140.177,155.627z"/>
		<path d="M145.628,161.584h-1.38V149.67h1.38v2.231h0.046c0.383-0.951,0.878-1.614,1.483-1.99c0.606-0.375,1.407-0.563,2.404-0.563
			v1.495c-0.782-0.015-1.426,0.107-1.932,0.368s-0.909,0.613-1.208,1.058c-0.299,0.445-0.506,0.971-0.621,1.576
			c-0.115,0.605-0.172,1.238-0.172,1.897V161.584z"/>
	</g>
	<g clip-path="url(#SVGID_2_)">
		<path d="M87.771,184.475c-0.052,0.756,0.034,1.321,0.258,1.695c0.419,0.682,1.31,1.021,2.673,1.021c0.816,0,1.498-0.09,2.044-0.27
			c1.041-0.344,1.658-0.984,1.853-1.92c0.12-0.547-0.03-0.97-0.449-1.27c-0.412-0.291-1.108-0.55-2.089-0.774l-1.673-0.394
			c-1.64-0.389-2.74-0.812-3.302-1.269c-0.951-0.764-1.254-1.958-0.91-3.583c0.314-1.482,1.116-2.714,2.403-3.694
			s2.976-1.472,5.065-1.472c1.745,0,3.133,0.463,4.167,1.388s1.393,2.267,1.078,4.026h-3.324c0.157-0.996-0.124-1.704-0.842-2.123
			c-0.479-0.277-1.119-0.416-1.92-0.416c-0.891,0-1.642,0.18-2.251,0.539c-0.61,0.359-0.983,0.861-1.118,1.506
			c-0.127,0.591,0.041,1.033,0.505,1.324c0.292,0.195,0.962,0.424,2.01,0.686l2.707,0.686c1.183,0.299,2.04,0.699,2.572,1.201
			c0.824,0.778,1.078,1.905,0.764,3.381c-0.322,1.512-1.168,2.768-2.538,3.768c-1.37,0.999-3.111,1.499-5.222,1.499
			c-2.156,0-3.747-0.492-4.773-1.477s-1.355-2.338-0.988-4.06H87.771z"/>
		<path d="M111.029,179.398c0.33,0.726,0.46,1.568,0.393,2.526c-0.03,0.562-0.165,1.37-0.404,2.426h-8.378
			c-0.217,1.228-0.015,2.089,0.606,2.583c0.375,0.307,0.872,0.461,1.494,0.461c0.659,0,1.235-0.188,1.729-0.562
			c0.262-0.201,0.521-0.482,0.775-0.842h3.268c-0.24,0.727-0.775,1.464-1.606,2.213c-1.303,1.189-2.897,1.785-4.784,1.785
			c-1.557,0-2.825-0.502-3.801-1.505c-0.978-1.003-1.226-2.636-0.747-4.896c0.449-2.119,1.331-3.743,2.645-4.874
			c1.314-1.131,2.829-1.695,4.543-1.695c1.018,0,1.896,0.19,2.634,0.572C110.133,177.972,110.677,178.574,111.029,179.398z
			 M103.168,182.239h4.975c0.127-0.846,0.005-1.488-0.365-1.926c-0.371-0.438-0.897-0.657-1.578-0.657
			c-0.741,0-1.364,0.232-1.87,0.696C103.825,180.816,103.438,181.445,103.168,182.239z"/>
		<path d="M124.91,181.341l-1.752,8.243h-3.279l1.572-7.445c0.142-0.645,0.161-1.139,0.056-1.482
			c-0.18-0.629-0.711-0.943-1.595-0.943c-1.085,0-1.928,0.46-2.527,1.381c-0.314,0.486-0.55,1.108-0.708,1.864l-1.404,6.626h-3.189
			l2.594-12.219h3.088l-0.382,1.785c0.546-0.629,1.033-1.081,1.46-1.358c0.764-0.494,1.651-0.741,2.662-0.741
			c1.265,0,2.229,0.331,2.892,0.994C125.062,178.707,125.232,179.806,124.91,181.341z"/>
		<path d="M129.425,185.676c-0.052,0.569,0.011,0.974,0.191,1.213c0.299,0.427,0.984,0.641,2.055,0.641
			c0.629,0,1.149-0.094,1.561-0.281s0.659-0.468,0.741-0.842c0.075-0.359-0.019-0.633-0.281-0.82s-1.307-0.509-3.133-0.966
			c-1.31-0.345-2.194-0.774-2.65-1.292c-0.464-0.509-0.591-1.242-0.382-2.201c0.24-1.13,0.889-2.102,1.949-2.914
			c1.059-0.812,2.394-1.219,4.003-1.219c1.527,0,2.707,0.306,3.538,0.916s1.161,1.664,0.988,3.161h-3.201
			c0.038-0.412-0.011-0.737-0.146-0.978c-0.262-0.434-0.816-0.65-1.662-0.65c-0.696,0-1.215,0.108-1.556,0.325
			c-0.34,0.217-0.541,0.472-0.601,0.764c-0.083,0.367,0.019,0.633,0.303,0.798c0.277,0.172,1.325,0.468,3.145,0.887
			c1.206,0.3,2.062,0.752,2.572,1.359c0.501,0.613,0.655,1.381,0.46,2.302c-0.262,1.213-0.925,2.203-1.988,2.971
			S132.794,190,130.907,190c-1.924,0-3.259-0.406-4.004-1.219c-0.745-0.812-0.986-1.848-0.724-3.105H129.425z"/>
		<path d="M141.542,177.343h3.246l-2.594,12.241h-3.246L141.542,177.343z M145.103,175.883h-3.246l0.629-2.953h3.246
			L145.103,175.883z"/>
		<path d="M146.125,179.734l0.483-2.279h1.707l0.73-3.414h3.167l-0.73,3.414h1.988l-0.483,2.279h-1.988l-1.381,6.469
			c-0.105,0.502-0.106,0.814-0.006,0.938c0.102,0.123,0.478,0.185,1.129,0.185c0.097,0,0.2-0.001,0.309-0.005
			c0.109-0.004,0.219-0.01,0.332-0.017l-0.517,2.392l-1.527,0.056c-1.52,0.053-2.497-0.209-2.931-0.785
			c-0.277-0.367-0.337-0.933-0.18-1.696l1.606-7.536H146.125z"/>
		<path d="M155.592,177.343h3.246l-2.594,12.241h-3.246L155.592,177.343z M159.152,175.883h-3.246l0.629-2.953h3.246
			L159.152,175.883z"/>
		<path d="M169.484,177.343h3.437l-7.008,12.241h-3.38l-1.797-12.241h3.594l0.629,9.029L169.484,177.343z"/>
		<path d="M174.773,177.343h3.246l-2.594,12.241h-3.246L174.773,177.343z M178.333,175.883h-3.246l0.629-2.953h3.246
			L178.333,175.883z"/>
		<path d="M179.355,179.734l0.483-2.279h1.707l0.73-3.414h3.167l-0.73,3.414h1.988l-0.483,2.279h-1.988l-1.381,6.469
			c-0.105,0.502-0.106,0.814-0.006,0.938c0.102,0.123,0.478,0.185,1.129,0.185c0.097,0,0.2-0.001,0.309-0.005
			c0.109-0.004,0.219-0.01,0.332-0.017l-0.517,2.392l-1.527,0.056c-1.52,0.053-2.497-0.209-2.931-0.785
			c-0.277-0.367-0.337-0.933-0.18-1.696l1.606-7.536H179.355z"/>
		<path d="M186.172,191.932l0.404,0.021c0.307,0.016,0.606,0.004,0.898-0.033s0.55-0.123,0.775-0.258
			c0.217-0.128,0.449-0.394,0.696-0.798s0.363-0.651,0.348-0.741l-1.774-12.78h3.56l0.752,9.029l4.447-9.029h3.403l-6.761,12.039
			c-1.303,2.321-2.248,3.761-2.835,4.318c-0.588,0.558-1.589,0.837-3.004,0.837c-0.285,0-0.513-0.002-0.685-0.006
			s-0.427-0.018-0.764-0.039L186.172,191.932z"/>
	</g>
	
		<line clip-path="url(#SVGID_2_)" fill="none" stroke="#000000" stroke-width="0.8" x1="287.313" y1="322.868" x2="592.865" y2="9.791"/>
	<polyline clip-path="url(#SVGID_2_)" fill="none" stroke="#000000" stroke-width="2" points="442.787,133.454 442.08,132.747 
		401.466,92.133 400.759,91.426 	"/>
	<polygon clip-path="url(#SVGID_2_)" points="404.859,88.738 394.678,85.344 398.072,95.527 	"/>
	<polygon clip-path="url(#SVGID_2_)" points="438.686,136.141 448.868,139.535 445.474,129.353 	"/>
	<path clip-path="url(#SVGID_2_)" fill="none" stroke="#0B5D18" stroke-width="2" d="M307.201,86.899
		c12.942-48.898,44.884-65.743,75.972-75.399h1.327"/>
	<polygon clip-path="url(#SVGID_2_)" fill="#0B5D18" points="384.886,16.388 392.755,9.088 382.194,7.173 	"/>
</g>
<rect x="-111.375" y="-121.375" fill="none" stroke="#000000" stroke-width="0.25" width="1023.75" height="767.75"/>
</svg>
